  0
SECTION
  2
HEADER
  9
$ACADVER
  1
AC1006
  9
$EXTMIN
 10
0.0
 20
0.0
  9
$EXTMAX
 10
45.703197
 20
26.499996
  9
$LTSCALE
 40
0.000394
  9
$PDMODE
 70
35
  9
$PDSIZE
 40
0.000315
  0
ENDSEC
  0
SECTION
  2
TABLES
  0
TABLE
  2
LTYPE
 70
  9
  0
LTYPE
  2
CONTINUOUS
 70
 64
  3
Solid line
 72
 65
 73
  0
 40
0.000000
  0
LTYPE
  2
DASHED
 70
 64
  3
__ __ __ __ __ __ __ __ __ __ __ __ __ __ __
 72
 65
 73
  2
 40
0.000003
 49
0.000002
 49
-0.000001
  0
LTYPE
  2
HIDDEN
 70
 64
  3
 _ _ _ _ _ _ _ _ _ _ _ _ _ _ _ _ _ _ _ _ _ _
 72
 65
 73
  2
 40
0.000001
 49
0.000001
 49
-0.000000
  0
LTYPE
  2
CENTER
 70
 64
  3
____ _ ____ _ ____ _ ____ _ ____ _ ____ _ ____
 72
 65
 73
  4
 40
0.000008
 49
0.000005
 49
-0.000001
 49
0.000001
 49
-0.000001
  0
LTYPE
  2
PHANTOM
 70
 64
  3
_____ _ _ _____ _ _ _____ _ _ _____ _ _ ____
 72
 65
 73
  6
 40
0.000010
 49
0.000005
 49
-0.000001
 49
0.000001
 49
-0.000001
 49
0.000001
 49
-0.000001
  0
LTYPE
  2
DOT
 70
 64
  3
...............................................
 72
 65
 73
  2
 40
0.000001
 49
0.000000
 49
-0.000001
  0
LTYPE
  2
DASHDOT
 70
 64
  3
__ . __ . __ . __ . __ . __ . __ . __ . __ . __
 72
 65
 73
  4
 40
0.000004
 49
0.000002
 49
-0.000001
 49
0.000000
 49
-0.000001
  0
LTYPE
  2
BORDER
 70
 64
  3
__ __ . __ __ . __ __ . __ __ . __ __ . __ __
 72
 65
 73
  6
 40
0.000007
 49
0.000002
 49
-0.000001
 49
0.000002
 49
-0.000001
 49
0.000000
 49
-0.000001
  0
LTYPE
  2
DIVIDE
 70
 64
  3
__ . . __ . . __ . . __ . . __ . . __ . . __
 72
 65
 73
  6
 40
0.000005
 49
0.000002
 49
-0.000001
 49
0.000000
 49
-0.000001
 49
0.000000
 49
-0.000001
  0
LTYPE
  2
DOTDOT
 70
 64
  3
 . .  . .  . .  . .  . .  . .
 72
 65
 73
  5
 40
0.000002
 49
-0.000001
 49
0.000000
 49
-0.000001
 49
0.000000
 49
-0.000001
  0
ENDTAB
  0
TABLE
  2
STYLE
 70
  0
  0
ENDTAB
  0
TABLE
  2
LAYER
 70
  4
  0
LAYER
  2
FOREGROUND
 70
 64
 62
  7
  6
CONTINUOUS
  0
LAYER
  2
BACKGROUND
 70
 65
 62
 -7
  6
CONTINUOUS
  0
LAYER
  2
PLAN_1
 70
 64
 62
  7
  6
CONTINUOUS
  0
ENDTAB
  0
ENDSEC
  0
SECTION
  2
ENTITIES
  0
POINT
  8
PLAN_1
 62
2
 10
4.101601
 20
11.879999
 30
-2.0
  0
POINT
  8
PLAN_1
 62
2
 10
4.101601
 20
14.42
 30
-2.0
  0
POINT
  8
PLAN_1
 62
2
 10
4.101601
 20
16.959997
 30
-2.0
  0
POINT
  8
PLAN_1
 62
2
 10
4.101601
 20
19.499998
 30
-2.0
  0
POINT
  8
PLAN_1
 62
5
 10
41.101597
 20
6.0
 30
-2.0
  0
POINT
  8
PLAN_1
 62
5
 10
38.5616
 20
6.0
 30
-2.0
  0
POINT
  8
PLAN_1
 62
5
 10
36.021599
 20
6.0
 30
-2.0
  0
POINT
  8
PLAN_1
 62
5
 10
29.601599
 20
6.379999
 30
-2.0
  0
POINT
  8
PLAN_1
 62
5
 10
24.2216
 20
9.379999
 30
-2.0
  0
POINT
  8
PLAN_1
 62
5
 10
24.2216
 20
11.92
 30
-2.0
  0
POINT
  8
PLAN_1
 62
5
 10
24.2216
 20
14.459997
 30
-2.0
  0
POINT
  8
PLAN_1
 62
5
 10
24.2216
 20
16.999998
 30
-2.0
  0
POINT
  8
PLAN_1
 62
5
 10
26.101599
 20
20.999994
 30
-2.0
  0
POINT
  8
PLAN_1
 62
5
 10
29.601599
 20
13.999998
 30
-2.0
  0
POINT
  8
PLAN_1
 62
5
 10
34.601601
 20
13.999998
 30
-2.0
  0
POINT
  8
PLAN_1
 62
5
 10
36.261597
 20
20.999994
 30
-2.0
  0
POINT
  8
PLAN_1
 62
5
 10
42.221596
 20
13.999998
 30
-2.0
  0
POINT
  8
PLAN_1
 62
5
 10
16.601601
 20
14.459997
 30
-2.0
  0
POINT
  8
PLAN_1
 62
5
 10
16.601601
 20
11.92
 30
-2.0
  0
POINT
  8
PLAN_1
 62
5
 10
16.601601
 20
9.379999
 30
-2.0
  0
POINT
  8
PLAN_1
 62
5
 10
11.601601
 20
14.499998
 30
-2.0
  0
POINT
  8
PLAN_1
 62
5
 10
11.601601
 20
17.039999
 30
-2.0
  0
POINT
  8
PLAN_1
 62
5
 10
16.601601
 20
16.999998
 30
-2.0
  0
LINE
  8
PLAN_1
 62
5
 10
41.938103
 20
5.163492
 30
0.2
 11
42.085224
 21
5.34276
 31
0.2
  0
LINE
  8
PLAN_1
 62
5
 10
42.085224
 20
5.34276
 30
0.2
 11
42.194546
 21
5.547285
 31
0.2
  0
LINE
  8
PLAN_1
 62
5
 10
42.194546
 20
5.547285
 30
0.2
 11
42.261868
 21
5.769208
 31
0.2
  0
LINE
  8
PLAN_1
 62
5
 10
42.261868
 20
5.769208
 30
0.2
 11
42.284595
 21
6.0
 31
0.2
  0
LINE
  8
PLAN_1
 62
5
 10
42.284595
 20
6.0
 30
0.2
 11
42.261868
 21
6.230792
 31
0.2
  0
LINE
  8
PLAN_1
 62
5
 10
42.261868
 20
6.230792
 30
0.2
 11
42.194546
 21
6.452714
 31
0.2
  0
LINE
  8
PLAN_1
 62
5
 10
42.194546
 20
6.452714
 30
0.2
 11
42.085224
 21
6.657239
 31
0.2
  0
LINE
  8
PLAN_1
 62
5
 10
42.085224
 20
6.657239
 30
0.2
 11
41.938103
 21
6.836507
 31
0.2
  0
LINE
  8
PLAN_1
 62
5
 10
41.938103
 20
6.836507
 30
0.2
 11
41.776596
 21
6.969052
 31
0.2
  0
LINE
  8
PLAN_1
 62
5
 10
41.776596
 20
6.969052
 30
0.2
 11
41.776596
 21
7.975403
 31
0.2
  0
LINE
  8
PLAN_1
 62
5
 10
41.776596
 20
7.975403
 30
0.2
 11
42.698895
 21
8.897702
 31
0.2
  0
LINE
  8
PLAN_1
 62
5
 10
42.698895
 20
8.897702
 30
0.2
 11
42.782837
 21
8.99999
 31
0.2
  0
LINE
  8
PLAN_1
 62
5
 10
42.782837
 20
8.99999
 30
0.2
 11
42.845215
 21
9.116688
 31
0.2
  0
LINE
  8
PLAN_1
 62
5
 10
42.845215
 20
9.116688
 30
0.2
 11
42.883625
 21
9.243313
 31
0.2
  0
LINE
  8
PLAN_1
 62
5
 10
42.883625
 20
9.243313
 30
0.2
 11
42.896595
 21
9.374999
 31
0.2
  0
LINE
  8
PLAN_1
 62
5
 10
42.896595
 20
9.374999
 30
0.2
 11
42.896595
 21
13.030945
 31
0.2
  0
LINE
  8
PLAN_1
 62
5
 10
42.896595
 20
13.030945
 30
0.2
 11
43.058102
 21
13.16349
 31
0.2
  0
LINE
  8
PLAN_1
 62
5
 10
43.058102
 20
13.16349
 30
0.2
 11
43.205223
 21
13.342758
 31
0.2
  0
LINE
  8
PLAN_1
 62
5
 10
43.205223
 20
13.342758
 30
0.2
 11
43.314545
 21
13.547283
 31
0.2
  0
LINE
  8
PLAN_1
 62
5
 10
43.314545
 20
13.547283
 30
0.2
 11
43.381866
 21
13.769206
 31
0.2
  0
LINE
  8
PLAN_1
 62
5
 10
43.381866
 20
13.769206
 30
0.2
 11
43.404594
 21
13.999998
 31
0.2
  0
LINE
  8
PLAN_1
 62
5
 10
43.404594
 20
13.999998
 30
0.2
 11
43.381866
 21
14.23079
 31
0.2
  0
LINE
  8
PLAN_1
 62
5
 10
43.381866
 20
14.23079
 30
0.2
 11
43.314545
 21
14.452713
 31
0.2
  0
LINE
  8
PLAN_1
 62
5
 10
43.314545
 20
14.452713
 30
0.2
 11
43.205223
 21
14.657238
 31
0.2
  0
LINE
  8
PLAN_1
 62
5
 10
43.205223
 20
14.657238
 30
0.2
 11
43.058102
 21
14.836506
 31
0.2
  0
LINE
  8
PLAN_1
 62
5
 10
43.058102
 20
14.836506
 30
0.2
 11
42.878834
 21
14.983626
 31
0.2
  0
LINE
  8
PLAN_1
 62
5
 10
42.878834
 20
14.983626
 30
0.2
 11
42.674309
 21
15.092948
 31
0.2
  0
LINE
  8
PLAN_1
 62
5
 10
42.674309
 20
15.092948
 30
0.2
 11
42.452389
 21
15.160267
 31
0.2
  0
LINE
  8
PLAN_1
 62
5
 10
42.452389
 20
15.160267
 30
0.2
 11
42.221596
 21
15.182998
 31
0.2
  0
LINE
  8
PLAN_1
 62
5
 10
42.221596
 20
15.182998
 30
0.2
 11
41.990803
 21
15.160267
 31
0.2
  0
LINE
  8
PLAN_1
 62
5
 10
41.990803
 20
15.160267
 30
0.2
 11
41.768883
 21
15.092948
 31
0.2
  0
LINE
  8
PLAN_1
 62
5
 10
41.768883
 20
15.092948
 30
0.2
 11
41.564358
 21
14.983626
 31
0.2
  0
LINE
  8
PLAN_1
 62
5
 10
41.564358
 20
14.983626
 30
0.2
 11
41.38509
 21
14.836506
 31
0.2
  0
LINE
  8
PLAN_1
 62
5
 10
41.38509
 20
14.836506
 30
0.2
 11
41.237968
 21
14.657238
 31
0.2
  0
LINE
  8
PLAN_1
 62
5
 10
41.237968
 20
14.657238
 30
0.2
 11
41.128647
 21
14.452713
 31
0.2
  0
LINE
  8
PLAN_1
 62
5
 10
41.128647
 20
14.452713
 30
0.2
 11
41.061325
 21
14.23079
 31
0.2
  0
LINE
  8
PLAN_1
 62
5
 10
41.061325
 20
14.23079
 30
0.2
 11
41.038597
 21
13.999998
 31
0.2
  0
LINE
  8
PLAN_1
 62
5
 10
41.038597
 20
13.999998
 30
0.2
 11
41.061325
 21
13.769206
 31
0.2
  0
LINE
  8
PLAN_1
 62
5
 10
41.061325
 20
13.769206
 30
0.2
 11
41.128647
 21
13.547283
 31
0.2
  0
LINE
  8
PLAN_1
 62
5
 10
41.128647
 20
13.547283
 30
0.2
 11
41.237968
 21
13.342758
 31
0.2
  0
LINE
  8
PLAN_1
 62
5
 10
41.237968
 20
13.342758
 30
0.2
 11
41.38509
 21
13.16349
 31
0.2
  0
LINE
  8
PLAN_1
 62
5
 10
41.38509
 20
13.16349
 30
0.2
 11
41.546597
 21
13.030946
 31
0.2
  0
LINE
  8
PLAN_1
 62
5
 10
41.546597
 20
13.030946
 30
0.2
 11
41.546597
 21
9.654595
 31
0.2
  0
LINE
  8
PLAN_1
 62
5
 10
41.546597
 20
9.654595
 30
0.2
 11
40.624298
 21
8.732296
 31
0.2
  0
LINE
  8
PLAN_1
 62
5
 10
40.624298
 20
8.732296
 30
0.2
 11
40.540356
 21
8.630009
 31
0.2
  0
LINE
  8
PLAN_1
 62
5
 10
40.540356
 20
8.630009
 30
0.2
 11
40.477978
 21
8.51331
 31
0.2
  0
LINE
  8
PLAN_1
 62
5
 10
40.477978
 20
8.51331
 30
0.2
 11
40.439568
 21
8.386684
 31
0.2
  0
LINE
  8
PLAN_1
 62
5
 10
40.439568
 20
8.386684
 30
0.2
 11
40.426598
 21
8.254999
 31
0.2
  0
LINE
  8
PLAN_1
 62
5
 10
40.426598
 20
8.254999
 30
0.2
 11
40.426598
 21
6.969052
 31
0.2
  0
LINE
  8
PLAN_1
 62
5
 10
40.426598
 20
6.969052
 30
0.2
 11
40.481579
 21
6.92792
 31
0.2
  0
LINE
  8
PLAN_1
 62
5
 10
40.481579
 20
6.92792
 30
0.2
 11
40.312466
 21
6.789131
 31
0.2
  0
LINE
  8
PLAN_1
 62
5
 10
40.312466
 20
6.789131
 30
0.2
 11
40.173676
 21
6.620016
 31
0.2
  0
LINE
  8
PLAN_1
 62
5
 10
40.173676
 20
6.620016
 30
0.2
 11
40.070549
 21
6.427074
 31
0.2
  0
LINE
  8
PLAN_1
 62
5
 10
40.070549
 20
6.427074
 30
0.2
 11
40.007042
 21
6.217721
 31
0.2
  0
LINE
  8
PLAN_1
 62
5
 10
40.007042
 20
6.217721
 30
0.2
 11
39.985596
 21
6.0
 31
0.2
  0
LINE
  8
PLAN_1
 62
5
 10
39.985596
 20
6.0
 30
0.2
 11
40.007042
 21
5.782279
 31
0.2
  0
LINE
  8
PLAN_1
 62
5
 10
40.007042
 20
5.782279
 30
0.2
 11
40.070549
 21
5.572925
 31
0.2
  0
LINE
  8
PLAN_1
 62
5
 10
40.070549
 20
5.572925
 30
0.2
 11
40.173676
 21
5.379983
 31
0.2
  0
LINE
  8
PLAN_1
 62
5
 10
40.173676
 20
5.379983
 30
0.2
 11
40.312466
 21
5.210868
 31
0.2
  0
LINE
  8
PLAN_1
 62
5
 10
40.312466
 20
5.210868
 30
0.2
 11
40.481579
 21
5.07208
 31
0.2
  0
LINE
  8
PLAN_1
 62
5
 10
40.481579
 20
5.07208
 30
0.2
 11
40.674522
 21
4.96895
 31
0.2
  0
LINE
  8
PLAN_1
 62
5
 10
40.674522
 20
4.96895
 30
0.2
 11
40.883877
 21
4.905443
 31
0.2
  0
LINE
  8
PLAN_1
 62
5
 10
40.883877
 20
4.905443
 30
0.2
 11
41.101597
 21
4.883999
 31
0.2
  0
LINE
  8
PLAN_1
 62
5
 10
41.101597
 20
4.883999
 30
0.2
 11
41.319317
 21
4.905443
 31
0.2
  0
LINE
  8
PLAN_1
 62
5
 10
41.319317
 20
4.905443
 30
0.2
 11
41.528671
 21
4.96895
 31
0.2
  0
LINE
  8
PLAN_1
 62
5
 10
41.528671
 20
4.96895
 30
0.2
 11
41.721615
 21
5.072079
 31
0.2
  0
LINE
  8
PLAN_1
 62
5
 10
41.721615
 20
5.072079
 30
0.2
 11
41.890728
 21
5.210868
 31
0.2
  0
LINE
  8
PLAN_1
 62
5
 10
41.890728
 20
5.210868
 30
0.2
 11
42.029518
 21
5.379983
 31
0.2
  0
LINE
  8
PLAN_1
 62
5
 10
42.029518
 20
5.379983
 30
0.2
 11
42.132645
 21
5.572925
 31
0.2
  0
LINE
  8
PLAN_1
 62
5
 10
42.132645
 20
5.572925
 30
0.2
 11
42.196152
 21
5.782279
 31
0.2
  0
LINE
  8
PLAN_1
 62
5
 10
42.196152
 20
5.782279
 30
0.2
 11
42.217598
 21
6.0
 31
0.2
  0
LINE
  8
PLAN_1
 62
5
 10
42.217598
 20
6.0
 30
0.2
 11
42.196152
 21
6.217721
 31
0.2
  0
LINE
  8
PLAN_1
 62
5
 10
42.196152
 20
6.217721
 30
0.2
 11
42.132645
 21
6.427074
 31
0.2
  0
LINE
  8
PLAN_1
 62
5
 10
42.132645
 20
6.427074
 30
0.2
 11
42.029518
 21
6.620016
 31
0.2
  0
LINE
  8
PLAN_1
 62
5
 10
42.029518
 20
6.620016
 30
0.2
 11
41.890728
 21
6.789131
 31
0.2
  0
LINE
  8
PLAN_1
 62
5
 10
41.890728
 20
6.789131
 30
0.2
 11
41.721615
 21
6.92792
 31
0.2
  0
LINE
  8
PLAN_1
 62
5
 10
41.721615
 20
6.92792
 30
0.2
 11
41.709599
 21
6.934343
 31
0.2
  0
LINE
  8
PLAN_1
 62
5
 10
41.709599
 20
6.934343
 30
0.2
 11
41.709599
 21
8.00316
 31
0.2
  0
LINE
  8
PLAN_1
 62
5
 10
41.709599
 20
8.00316
 30
0.2
 11
42.651516
 21
8.945078
 31
0.2
  0
LINE
  8
PLAN_1
 62
5
 10
42.651516
 20
8.945078
 30
0.2
 11
42.727131
 21
9.037212
 31
0.2
  0
LINE
  8
PLAN_1
 62
5
 10
42.727131
 20
9.037212
 30
0.2
 11
42.783314
 21
9.142327
 31
0.2
  0
LINE
  8
PLAN_1
 62
5
 10
42.783314
 20
9.142327
 30
0.2
 11
42.817913
 21
9.256384
 31
0.2
  0
LINE
  8
PLAN_1
 62
5
 10
42.817913
 20
9.256384
 30
0.2
 11
42.829597
 21
9.374999
 31
0.2
  0
LINE
  8
PLAN_1
 62
5
 10
42.829597
 20
9.374999
 30
0.2
 11
42.829597
 21
13.065655
 31
0.2
  0
LINE
  8
PLAN_1
 62
5
 10
42.829597
 20
13.065655
 30
0.2
 11
42.841614
 21
13.072078
 31
0.2
  0
LINE
  8
PLAN_1
 62
5
 10
42.841614
 20
13.072078
 30
0.2
 11
43.010727
 21
13.210867
 31
0.2
  0
LINE
  8
PLAN_1
 62
5
 10
43.010727
 20
13.210867
 30
0.2
 11
43.149517
 21
13.379982
 31
0.2
  0
LINE
  8
PLAN_1
 62
5
 10
43.149517
 20
13.379982
 30
0.2
 11
43.252644
 21
13.572924
 31
0.2
  0
LINE
  8
PLAN_1
 62
5
 10
43.252644
 20
13.572924
 30
0.2
 11
43.316151
 21
13.782277
 31
0.2
  0
LINE
  8
PLAN_1
 62
5
 10
43.316151
 20
13.782277
 30
0.2
 11
43.337597
 21
13.999998
 31
0.2
  0
LINE
  8
PLAN_1
 62
5
 10
43.337597
 20
13.999998
 30
0.2
 11
43.316151
 21
14.217719
 31
0.2
  0
LINE
  8
PLAN_1
 62
5
 10
43.316151
 20
14.217719
 30
0.2
 11
43.252644
 21
14.427073
 31
0.2
  0
LINE
  8
PLAN_1
 62
5
 10
43.252644
 20
14.427073
 30
0.2
 11
43.149517
 21
14.620014
 31
0.2
  0
LINE
  8
PLAN_1
 62
5
 10
43.149517
 20
14.620014
 30
0.2
 11
43.010727
 21
14.789129
 31
0.2
  0
LINE
  8
PLAN_1
 62
5
 10
43.010727
 20
14.789129
 30
0.2
 11
42.841614
 21
14.927918
 31
0.2
  0
LINE
  8
PLAN_1
 62
5
 10
42.841614
 20
14.927918
 30
0.2
 11
42.64867
 21
15.031048
 31
0.2
  0
LINE
  8
PLAN_1
 62
5
 10
42.64867
 20
15.031048
 30
0.2
 11
42.439316
 21
15.094555
 31
0.2
  0
LINE
  8
PLAN_1
 62
5
 10
42.439316
 20
15.094555
 30
0.2
 11
42.221596
 21
15.115998
 31
0.2
  0
LINE
  8
PLAN_1
 62
5
 10
42.221596
 20
15.115998
 30
0.2
 11
42.003876
 21
15.094555
 31
0.2
  0
LINE
  8
PLAN_1
 62
5
 10
42.003876
 20
15.094555
 30
0.2
 11
41.794521
 21
15.031048
 31
0.2
  0
LINE
  8
PLAN_1
 62
5
 10
41.794521
 20
15.031048
 30
0.2
 11
41.601578
 21
14.927918
 31
0.2
  0
LINE
  8
PLAN_1
 62
5
 10
41.601578
 20
14.927918
 30
0.2
 11
41.432465
 21
14.789129
 31
0.2
  0
LINE
  8
PLAN_1
 62
5
 10
41.432465
 20
14.789129
 30
0.2
 11
41.293674
 21
14.620014
 31
0.2
  0
LINE
  8
PLAN_1
 62
5
 10
41.293674
 20
14.620014
 30
0.2
 11
41.190548
 21
14.427073
 31
0.2
  0
LINE
  8
PLAN_1
 62
5
 10
41.190548
 20
14.427073
 30
0.2
 11
41.127041
 21
14.217719
 31
0.2
  0
LINE
  8
PLAN_1
 62
5
 10
41.127041
 20
14.217719
 30
0.2
 11
41.105595
 21
13.999998
 31
0.2
  0
LINE
  8
PLAN_1
 62
5
 10
41.105595
 20
13.999998
 30
0.2
 11
41.127041
 21
13.782277
 31
0.2
  0
LINE
  8
PLAN_1
 62
5
 10
41.127041
 20
13.782277
 30
0.2
 11
41.190548
 21
13.572924
 31
0.2
  0
LINE
  8
PLAN_1
 62
5
 10
41.190548
 20
13.572924
 30
0.2
 11
41.293674
 21
13.379982
 31
0.2
  0
LINE
  8
PLAN_1
 62
5
 10
41.293674
 20
13.379982
 30
0.2
 11
41.432465
 21
13.210867
 31
0.2
  0
LINE
  8
PLAN_1
 62
5
 10
41.432465
 20
13.210867
 30
0.2
 11
41.601578
 21
13.072078
 31
0.2
  0
LINE
  8
PLAN_1
 62
5
 10
41.601578
 20
13.072078
 30
0.2
 11
41.613594
 21
13.065655
 31
0.2
  0
LINE
  8
PLAN_1
 62
5
 10
41.613594
 20
13.065655
 30
0.2
 11
41.613594
 21
9.626839
 31
0.2
  0
LINE
  8
PLAN_1
 62
5
 10
41.613594
 20
9.626839
 30
0.2
 11
40.671677
 21
8.68492
 31
0.2
  0
LINE
  8
PLAN_1
 62
5
 10
40.671677
 20
8.68492
 30
0.2
 11
40.596062
 21
8.592786
 31
0.2
  0
LINE
  8
PLAN_1
 62
5
 10
40.596062
 20
8.592786
 30
0.2
 11
40.539879
 21
8.487671
 31
0.2
  0
LINE
  8
PLAN_1
 62
5
 10
40.539879
 20
8.487671
 30
0.2
 11
40.50528
 21
8.373613
 31
0.2
  0
LINE
  8
PLAN_1
 62
5
 10
40.50528
 20
8.373613
 30
0.2
 11
40.493595
 21
8.254999
 31
0.2
  0
LINE
  8
PLAN_1
 62
5
 10
40.493595
 20
8.254999
 30
0.2
 11
40.493595
 21
6.934343
 31
0.2
  0
LINE
  8
PLAN_1
 62
5
 10
40.493595
 20
6.934343
 30
0.2
 11
40.426598
 21
6.969052
 31
0.2
  0
LINE
  8
PLAN_1
 62
5
 10
40.426598
 20
6.969052
 30
0.2
 11
40.265091
 21
6.836507
 31
0.2
  0
LINE
  8
PLAN_1
 62
5
 10
40.265091
 20
6.836507
 30
0.2
 11
40.11797
 21
6.657239
 31
0.2
  0
LINE
  8
PLAN_1
 62
5
 10
40.11797
 20
6.657239
 30
0.2
 11
40.008648
 21
6.452714
 31
0.2
  0
LINE
  8
PLAN_1
 62
5
 10
40.008648
 20
6.452714
 30
0.2
 11
39.941326
 21
6.230792
 31
0.2
  0
LINE
  8
PLAN_1
 62
5
 10
39.941326
 20
6.230792
 30
0.2
 11
39.918598
 21
6.0
 31
0.2
  0
LINE
  8
PLAN_1
 62
5
 10
39.918598
 20
6.0
 30
0.2
 11
39.941326
 21
5.769208
 31
0.2
  0
LINE
  8
PLAN_1
 62
5
 10
39.941326
 20
5.769208
 30
0.2
 11
40.008648
 21
5.547285
 31
0.2
  0
LINE
  8
PLAN_1
 62
5
 10
40.008648
 20
5.547285
 30
0.2
 11
40.11797
 21
5.34276
 31
0.2
  0
LINE
  8
PLAN_1
 62
5
 10
40.11797
 20
5.34276
 30
0.2
 11
40.265091
 21
5.163492
 31
0.2
  0
LINE
  8
PLAN_1
 62
5
 10
40.265091
 20
5.163492
 30
0.2
 11
40.444359
 21
5.016371
 31
0.2
  0
LINE
  8
PLAN_1
 62
5
 10
40.444359
 20
5.016371
 30
0.2
 11
40.648884
 21
4.90705
 31
0.2
  0
LINE
  8
PLAN_1
 62
5
 10
40.648884
 20
4.90705
 30
0.2
 11
40.870804
 21
4.83973
 31
0.2
  0
LINE
  8
PLAN_1
 62
5
 10
40.870804
 20
4.83973
 30
0.2
 11
41.101597
 21
4.816999
 31
0.2
  0
LINE
  8
PLAN_1
 62
5
 10
41.101597
 20
4.816999
 30
0.2
 11
41.33239
 21
4.83973
 31
0.2
  0
LINE
  8
PLAN_1
 62
5
 10
41.33239
 20
4.83973
 30
0.2
 11
41.55431
 21
4.90705
 31
0.2
  0
LINE
  8
PLAN_1
 62
5
 10
41.55431
 20
4.90705
 30
0.2
 11
41.758835
 21
5.016371
 31
0.2
  0
LINE
  8
PLAN_1
 62
5
 10
41.758835
 20
5.016371
 30
0.2
 11
41.938103
 21
5.163492
 31
0.2
  0
LINE
  8
PLAN_1
 62
5
 10
39.72187
 20
5.769208
 30
0.2
 11
39.744598
 21
6.0
 31
0.2
  0
LINE
  8
PLAN_1
 62
5
 10
39.744598
 20
6.0
 30
0.2
 11
39.72187
 21
6.230792
 31
0.2
  0
LINE
  8
PLAN_1
 62
5
 10
39.72187
 20
6.230792
 30
0.2
 11
39.654549
 21
6.452714
 31
0.2
  0
LINE
  8
PLAN_1
 62
5
 10
39.654549
 20
6.452714
 30
0.2
 11
39.545227
 21
6.657239
 31
0.2
  0
LINE
  8
PLAN_1
 62
5
 10
39.545227
 20
6.657239
 30
0.2
 11
39.398106
 21
6.836507
 31
0.2
  0
LINE
  8
PLAN_1
 62
5
 10
39.398106
 20
6.836507
 30
0.2
 11
39.236599
 21
6.969052
 31
0.2
  0
LINE
  8
PLAN_1
 62
5
 10
39.236599
 20
6.969052
 30
0.2
 11
39.236599
 21
7.039999
 31
0.2
  0
LINE
  8
PLAN_1
 62
5
 10
39.236599
 20
7.039999
 30
0.2
 11
39.223629
 21
7.171685
 31
0.2
  0
LINE
  8
PLAN_1
 62
5
 10
39.223629
 20
7.171685
 30
0.2
 11
39.185219
 21
7.29831
 31
0.2
  0
LINE
  8
PLAN_1
 62
5
 10
39.185219
 20
7.29831
 30
0.2
 11
39.122841
 21
7.415009
 31
0.2
  0
LINE
  8
PLAN_1
 62
5
 10
39.122841
 20
7.415009
 30
0.2
 11
39.038898
 21
7.517296
 31
0.2
  0
LINE
  8
PLAN_1
 62
5
 10
39.038898
 20
7.517296
 30
0.2
 11
34.158886
 21
12.397305
 31
0.2
  0
LINE
  8
PLAN_1
 62
5
 10
34.158886
 20
12.397305
 30
0.2
 11
34.056599
 21
12.481251
 31
0.2
  0
LINE
  8
PLAN_1
 62
5
 10
34.056599
 20
12.481251
 30
0.2
 11
33.939899
 21
12.543628
 31
0.2
  0
LINE
  8
PLAN_1
 62
5
 10
33.939899
 20
12.543628
 30
0.2
 11
33.813274
 21
12.582039
 31
0.2
  0
LINE
  8
PLAN_1
 62
5
 10
33.813274
 20
12.582039
 30
0.2
 11
33.681587
 21
12.595009
 31
0.2
  0
LINE
  8
PLAN_1
 62
5
 10
33.681587
 20
12.595009
 30
0.2
 11
25.190653
 21
12.594999
 31
0.2
  0
LINE
  8
PLAN_1
 62
5
 10
25.190653
 20
12.594999
 30
0.2
 11
25.058107
 21
12.756506
 31
0.2
  0
LINE
  8
PLAN_1
 62
5
 10
25.058107
 20
12.756506
 30
0.2
 11
24.878839
 21
12.903626
 31
0.2
  0
LINE
  8
PLAN_1
 62
5
 10
24.878839
 20
12.903626
 30
0.2
 11
24.674314
 21
13.012948
 31
0.2
  0
LINE
  8
PLAN_1
 62
5
 10
24.674314
 20
13.012948
 30
0.2
 11
24.452391
 21
13.080267
 31
0.2
  0
LINE
  8
PLAN_1
 62
5
 10
24.452391
 20
13.080267
 30
0.2
 11
24.2216
 21
13.102998
 31
0.2
  0
LINE
  8
PLAN_1
 62
5
 10
24.2216
 20
13.102998
 30
0.2
 11
23.990808
 21
13.080267
 31
0.2
  0
LINE
  8
PLAN_1
 62
5
 10
23.990808
 20
13.080267
 30
0.2
 11
23.768885
 21
13.012948
 31
0.2
  0
LINE
  8
PLAN_1
 62
5
 10
23.768885
 20
13.012948
 30
0.2
 11
23.56436
 21
12.903626
 31
0.2
  0
LINE
  8
PLAN_1
 62
5
 10
23.56436
 20
12.903626
 30
0.2
 11
23.385092
 21
12.756506
 31
0.2
  0
LINE
  8
PLAN_1
 62
5
 10
23.385092
 20
12.756506
 30
0.2
 11
23.25255
 21
12.595004
 31
0.2
  0
LINE
  8
PLAN_1
 62
5
 10
23.25255
 20
12.595004
 30
0.2
 11
22.711184
 21
12.595007
 31
0.2
  0
LINE
  8
PLAN_1
 62
5
 10
22.711184
 20
12.595007
 30
0.2
 11
20.368896
 21
14.937295
 31
0.2
  0
LINE
  8
PLAN_1
 62
5
 10
20.368896
 20
14.937295
 30
0.2
 11
20.266609
 21
15.02124
 31
0.2
  0
LINE
  8
PLAN_1
 62
5
 10
20.266609
 20
15.02124
 30
0.2
 11
20.149912
 21
15.083617
 31
0.2
  0
LINE
  8
PLAN_1
 62
5
 10
20.149912
 20
15.083617
 30
0.2
 11
20.023285
 21
15.122028
 31
0.2
  0
LINE
  8
PLAN_1
 62
5
 10
20.023285
 20
15.122028
 30
0.2
 11
19.8916
 21
15.134998
 31
0.2
  0
LINE
  8
PLAN_1
 62
5
 10
19.8916
 20
15.134998
 30
0.2
 11
17.570654
 21
15.134998
 31
0.2
  0
LINE
  8
PLAN_1
 62
5
 10
17.570654
 20
15.134998
 30
0.2
 11
17.438108
 21
15.296506
 31
0.2
  0
LINE
  8
PLAN_1
 62
5
 10
17.438108
 20
15.296506
 30
0.2
 11
17.258841
 21
15.443626
 31
0.2
  0
LINE
  8
PLAN_1
 62
5
 10
17.258841
 20
15.443626
 30
0.2
 11
17.054316
 21
15.552948
 31
0.2
  0
LINE
  8
PLAN_1
 62
5
 10
17.054316
 20
15.552948
 30
0.2
 11
16.832392
 21
15.620267
 31
0.2
  0
LINE
  8
PLAN_1
 62
5
 10
16.832392
 20
15.620267
 30
0.2
 11
16.601601
 21
15.642998
 31
0.2
  0
LINE
  8
PLAN_1
 62
5
 10
16.601601
 20
15.642998
 30
0.2
 11
16.37081
 21
15.620267
 31
0.2
  0
LINE
  8
PLAN_1
 62
5
 10
16.37081
 20
15.620267
 30
0.2
 11
16.148886
 21
15.552948
 31
0.2
  0
LINE
  8
PLAN_1
 62
5
 10
16.148886
 20
15.552948
 30
0.2
 11
15.944361
 21
15.443626
 31
0.2
  0
LINE
  8
PLAN_1
 62
5
 10
15.944361
 20
15.443626
 30
0.2
 11
15.765093
 21
15.296506
 31
0.2
  0
LINE
  8
PLAN_1
 62
5
 10
15.765093
 20
15.296506
 30
0.2
 11
15.665375
 21
15.174998
 31
0.2
  0
LINE
  8
PLAN_1
 62
5
 10
15.665375
 20
15.174998
 30
0.2
 11
12.570654
 21
15.174998
 31
0.2
  0
LINE
  8
PLAN_1
 62
5
 10
12.570654
 20
15.174998
 30
0.2
 11
12.438108
 21
15.336506
 31
0.2
  0
LINE
  8
PLAN_1
 62
5
 10
12.438108
 20
15.336506
 30
0.2
 11
12.258841
 21
15.483626
 31
0.2
  0
LINE
  8
PLAN_1
 62
5
 10
12.258841
 20
15.483626
 30
0.2
 11
12.054316
 21
15.592948
 31
0.2
  0
LINE
  8
PLAN_1
 62
5
 10
12.054316
 20
15.592948
 30
0.2
 11
11.832393
 21
15.660267
 31
0.2
  0
LINE
  8
PLAN_1
 62
5
 10
11.832393
 20
15.660267
 30
0.2
 11
11.601601
 21
15.682998
 31
0.2
  0
LINE
  8
PLAN_1
 62
5
 10
11.601601
 20
15.682998
 30
0.2
 11
11.370809
 21
15.660267
 31
0.2
  0
LINE
  8
PLAN_1
 62
5
 10
11.370809
 20
15.660267
 30
0.2
 11
11.148886
 21
15.592948
 31
0.2
  0
LINE
  8
PLAN_1
 62
5
 10
11.148886
 20
15.592948
 30
0.2
 11
10.944361
 21
15.483626
 31
0.2
  0
LINE
  8
PLAN_1
 62
5
 10
10.944361
 20
15.483626
 30
0.2
 11
10.765093
 21
15.336506
 31
0.2
  0
LINE
  8
PLAN_1
 62
5
 10
10.765093
 20
15.336506
 30
0.2
 11
10.632547
 21
15.174998
 31
0.2
  0
LINE
  8
PLAN_1
 62
5
 10
10.632547
 20
15.174998
 30
0.2
 11
7.826603
 21
15.174998
 31
0.2
  0
LINE
  8
PLAN_1
 62
5
 10
7.826603
 20
15.174998
 30
0.2
 11
7.694925
 21
15.162029
 31
0.2
  0
LINE
  8
PLAN_1
 62
5
 10
7.694925
 20
15.162029
 30
0.2
 11
7.568299
 21
15.12362
 31
0.2
  0
LINE
  8
PLAN_1
 62
5
 10
7.568299
 20
15.12362
 30
0.2
 11
7.51475
 21
15.094998
 31
0.2
  0
LINE
  8
PLAN_1
 62
5
 10
7.51475
 20
15.094998
 30
0.2
 11
5.284601
 21
15.094998
 31
0.2
  0
LINE
  8
PLAN_1
 62
5
 10
5.284601
 20
15.094998
 30
0.2
 11
5.284601
 21
15.602999
 31
0.2
  0
LINE
  8
PLAN_1
 62
5
 10
5.284601
 20
15.602999
 30
0.2
 11
2.918601
 21
15.602999
 31
0.2
  0
LINE
  8
PLAN_1
 62
5
 10
2.918601
 20
15.602999
 30
0.2
 11
2.918601
 21
13.236998
 31
0.2
  0
LINE
  8
PLAN_1
 62
5
 10
2.918601
 20
13.236998
 30
0.2
 11
5.284601
 21
13.236998
 31
0.2
  0
LINE
  8
PLAN_1
 62
5
 10
5.284601
 20
13.236998
 30
0.2
 11
5.284601
 21
13.744998
 31
0.2
  0
LINE
  8
PLAN_1
 62
5
 10
5.284601
 20
13.744998
 30
0.2
 11
7.746601
 21
13.744998
 31
0.2
  0
LINE
  8
PLAN_1
 62
5
 10
7.746601
 20
13.744998
 30
0.2
 11
7.878287
 21
13.757968
 31
0.2
  0
LINE
  8
PLAN_1
 62
5
 10
7.878287
 20
13.757968
 30
0.2
 11
8.004912
 21
13.796379
 31
0.2
  0
LINE
  8
PLAN_1
 62
5
 10
8.004912
 20
13.796379
 30
0.2
 11
8.058454
 21
13.824998
 31
0.2
  0
LINE
  8
PLAN_1
 62
5
 10
8.058454
 20
13.824998
 30
0.2
 11
10.632547
 21
13.824998
 31
0.2
  0
LINE
  8
PLAN_1
 62
5
 10
10.632547
 20
13.824998
 30
0.2
 11
10.765093
 21
13.66349
 31
0.2
  0
LINE
  8
PLAN_1
 62
5
 10
10.765093
 20
13.66349
 30
0.2
 11
10.944361
 21
13.51637
 31
0.2
  0
LINE
  8
PLAN_1
 62
5
 10
10.944361
 20
13.51637
 30
0.2
 11
11.148886
 21
13.407048
 31
0.2
  0
LINE
  8
PLAN_1
 62
5
 10
11.148886
 20
13.407048
 30
0.2
 11
11.370809
 21
13.339729
 31
0.2
  0
LINE
  8
PLAN_1
 62
5
 10
11.370809
 20
13.339729
 30
0.2
 11
11.601601
 21
13.316998
 31
0.2
  0
LINE
  8
PLAN_1
 62
5
 10
11.601601
 20
13.316998
 30
0.2
 11
11.832393
 21
13.339729
 31
0.2
  0
LINE
  8
PLAN_1
 62
5
 10
11.832393
 20
13.339729
 30
0.2
 11
12.054316
 21
13.407048
 31
0.2
  0
LINE
  8
PLAN_1
 62
5
 10
12.054316
 20
13.407048
 30
0.2
 11
12.25884
 21
13.516369
 31
0.2
  0
LINE
  8
PLAN_1
 62
5
 10
12.25884
 20
13.516369
 30
0.2
 11
12.438107
 21
13.66349
 31
0.2
  0
LINE
  8
PLAN_1
 62
5
 10
12.438107
 20
13.66349
 30
0.2
 11
12.570653
 21
13.824998
 31
0.2
  0
LINE
  8
PLAN_1
 62
5
 10
12.570653
 20
13.824998
 30
0.2
 11
15.606085
 21
13.824998
 31
0.2
  0
LINE
  8
PLAN_1
 62
5
 10
15.606085
 20
13.824998
 30
0.2
 11
15.617972
 21
13.802758
 31
0.2
  0
LINE
  8
PLAN_1
 62
5
 10
15.617972
 20
13.802758
 30
0.2
 11
15.765093
 21
13.62349
 31
0.2
  0
LINE
  8
PLAN_1
 62
5
 10
15.765093
 20
13.62349
 30
0.2
 11
15.944361
 21
13.47637
 31
0.2
  0
LINE
  8
PLAN_1
 62
5
 10
15.944361
 20
13.47637
 30
0.2
 11
16.148886
 21
13.367048
 31
0.2
  0
LINE
  8
PLAN_1
 62
5
 10
16.148886
 20
13.367048
 30
0.2
 11
16.37081
 21
13.299729
 31
0.2
  0
LINE
  8
PLAN_1
 62
5
 10
16.37081
 20
13.299729
 30
0.2
 11
16.601601
 21
13.276999
 31
0.2
  0
LINE
  8
PLAN_1
 62
5
 10
16.601601
 20
13.276999
 30
0.2
 11
16.832392
 21
13.299729
 31
0.2
  0
LINE
  8
PLAN_1
 62
5
 10
16.832392
 20
13.299729
 30
0.2
 11
17.054316
 21
13.367048
 31
0.2
  0
LINE
  8
PLAN_1
 62
5
 10
17.054316
 20
13.367048
 30
0.2
 11
17.258841
 21
13.476369
 31
0.2
  0
LINE
  8
PLAN_1
 62
5
 10
17.258841
 20
13.476369
 30
0.2
 11
17.438108
 21
13.62349
 31
0.2
  0
LINE
  8
PLAN_1
 62
5
 10
17.438108
 20
13.62349
 30
0.2
 11
17.570654
 21
13.784998
 31
0.2
  0
LINE
  8
PLAN_1
 62
5
 10
17.570654
 20
13.784998
 30
0.2
 11
19.612007
 21
13.784998
 31
0.2
  0
LINE
  8
PLAN_1
 62
5
 10
19.612007
 20
13.784998
 30
0.2
 11
21.954292
 21
11.442712
 31
0.2
  0
LINE
  8
PLAN_1
 62
5
 10
21.954292
 20
11.442712
 30
0.2
 11
22.056576
 21
11.358768
 31
0.2
  0
LINE
  8
PLAN_1
 62
5
 10
22.056576
 20
11.358768
 30
0.2
 11
22.173275
 21
11.296391
 31
0.2
  0
LINE
  8
PLAN_1
 62
5
 10
22.173275
 20
11.296391
 30
0.2
 11
22.2999
 21
11.257979
 31
0.2
  0
LINE
  8
PLAN_1
 62
5
 10
22.2999
 20
11.257979
 30
0.2
 11
22.431585
 21
11.245008
 31
0.2
  0
LINE
  8
PLAN_1
 62
5
 10
22.431585
 20
11.245008
 30
0.2
 11
23.252541
 21
11.245004
 31
0.2
  0
LINE
  8
PLAN_1
 62
5
 10
23.252541
 20
11.245004
 30
0.2
 11
23.385092
 21
11.08349
 31
0.2
  0
LINE
  8
PLAN_1
 62
5
 10
23.385092
 20
11.08349
 30
0.2
 11
23.56436
 21
10.93637
 31
0.2
  0
LINE
  8
PLAN_1
 62
5
 10
23.56436
 20
10.93637
 30
0.2
 11
23.768885
 21
10.827048
 31
0.2
  0
LINE
  8
PLAN_1
 62
5
 10
23.768885
 20
10.827048
 30
0.2
 11
23.990808
 21
10.759729
 31
0.2
  0
LINE
  8
PLAN_1
 62
5
 10
23.990808
 20
10.759729
 30
0.2
 11
24.2216
 21
10.736999
 31
0.2
  0
LINE
  8
PLAN_1
 62
5
 10
24.2216
 20
10.736999
 30
0.2
 11
24.452391
 21
10.759729
 31
0.2
  0
LINE
  8
PLAN_1
 62
5
 10
24.452391
 20
10.759729
 30
0.2
 11
24.674314
 21
10.827048
 31
0.2
  0
LINE
  8
PLAN_1
 62
5
 10
24.674314
 20
10.827048
 30
0.2
 11
24.878839
 21
10.936369
 31
0.2
  0
LINE
  8
PLAN_1
 62
5
 10
24.878839
 20
10.936369
 30
0.2
 11
25.058107
 21
11.08349
 31
0.2
  0
LINE
  8
PLAN_1
 62
5
 10
25.058107
 20
11.08349
 30
0.2
 11
25.190655
 21
11.244999
 31
0.2
  0
LINE
  8
PLAN_1
 62
5
 10
25.190655
 20
11.244999
 30
0.2
 11
33.401993
 21
11.245008
 31
0.2
  0
LINE
  8
PLAN_1
 62
5
 10
33.401993
 20
11.245008
 30
0.2
 11
37.771999
 21
6.875002
 31
0.2
  0
LINE
  8
PLAN_1
 62
5
 10
37.771999
 20
6.875002
 30
0.2
 11
37.772469
 21
6.789131
 31
0.2
  0
LINE
  8
PLAN_1
 62
5
 10
37.772469
 20
6.789131
 30
0.2
 11
37.633678
 21
6.620016
 31
0.2
  0
LINE
  8
PLAN_1
 62
5
 10
37.633678
 20
6.620016
 30
0.2
 11
37.530552
 21
6.427074
 31
0.2
  0
LINE
  8
PLAN_1
 62
5
 10
37.530552
 20
6.427074
 30
0.2
 11
37.467045
 21
6.217721
 31
0.2
  0
LINE
  8
PLAN_1
 62
5
 10
37.467045
 20
6.217721
 30
0.2
 11
37.445599
 21
6.0
 31
0.2
  0
LINE
  8
PLAN_1
 62
5
 10
37.445599
 20
6.0
 30
0.2
 11
37.467045
 21
5.782279
 31
0.2
  0
LINE
  8
PLAN_1
 62
5
 10
37.467045
 20
5.782279
 30
0.2
 11
37.530552
 21
5.572925
 31
0.2
  0
LINE
  8
PLAN_1
 62
5
 10
37.530552
 20
5.572925
 30
0.2
 11
37.633678
 21
5.379983
 31
0.2
  0
LINE
  8
PLAN_1
 62
5
 10
37.633678
 20
5.379983
 30
0.2
 11
37.772469
 21
5.210868
 31
0.2
  0
LINE
  8
PLAN_1
 62
5
 10
37.772469
 20
5.210868
 30
0.2
 11
37.941582
 21
5.07208
 31
0.2
  0
LINE
  8
PLAN_1
 62
5
 10
37.941582
 20
5.07208
 30
0.2
 11
38.134525
 21
4.96895
 31
0.2
  0
LINE
  8
PLAN_1
 62
5
 10
38.134525
 20
4.96895
 30
0.2
 11
38.34388
 21
4.905443
 31
0.2
  0
LINE
  8
PLAN_1
 62
5
 10
38.34388
 20
4.905443
 30
0.2
 11
38.5616
 21
4.883999
 31
0.2
  0
LINE
  8
PLAN_1
 62
5
 10
38.5616
 20
4.883999
 30
0.2
 11
38.77932
 21
4.905443
 31
0.2
  0
LINE
  8
PLAN_1
 62
5
 10
38.77932
 20
4.905443
 30
0.2
 11
38.988674
 21
4.96895
 31
0.2
  0
LINE
  8
PLAN_1
 62
5
 10
38.988674
 20
4.96895
 30
0.2
 11
39.181618
 21
5.072079
 31
0.2
  0
LINE
  8
PLAN_1
 62
5
 10
39.181618
 20
5.072079
 30
0.2
 11
39.350731
 21
5.210868
 31
0.2
  0
LINE
  8
PLAN_1
 62
5
 10
39.350731
 20
5.210868
 30
0.2
 11
39.489521
 21
5.379983
 31
0.2
  0
LINE
  8
PLAN_1
 62
5
 10
39.489521
 20
5.379983
 30
0.2
 11
39.592648
 21
5.572925
 31
0.2
  0
LINE
  8
PLAN_1
 62
5
 10
39.592648
 20
5.572925
 30
0.2
 11
39.656155
 21
5.782279
 31
0.2
  0
LINE
  8
PLAN_1
 62
5
 10
39.656155
 20
5.782279
 30
0.2
 11
39.677601
 21
6.0
 31
0.2
  0
LINE
  8
PLAN_1
 62
5
 10
39.677601
 20
6.0
 30
0.2
 11
39.656155
 21
6.217721
 31
0.2
  0
LINE
  8
PLAN_1
 62
5
 10
39.656155
 20
6.217721
 30
0.2
 11
39.592648
 21
6.427074
 31
0.2
  0
LINE
  8
PLAN_1
 62
5
 10
39.592648
 20
6.427074
 30
0.2
 11
39.489521
 21
6.620016
 31
0.2
  0
LINE
  8
PLAN_1
 62
5
 10
39.489521
 20
6.620016
 30
0.2
 11
39.350731
 21
6.789131
 31
0.2
  0
LINE
  8
PLAN_1
 62
5
 10
39.350731
 20
6.789131
 30
0.2
 11
39.181618
 21
6.92792
 31
0.2
  0
LINE
  8
PLAN_1
 62
5
 10
39.181618
 20
6.92792
 30
0.2
 11
39.169601
 21
6.934343
 31
0.2
  0
LINE
  8
PLAN_1
 62
5
 10
39.169601
 20
6.934343
 30
0.2
 11
39.169601
 21
7.039999
 31
0.2
  0
LINE
  8
PLAN_1
 62
5
 10
39.169601
 20
7.039999
 30
0.2
 11
39.157917
 21
7.158614
 31
0.2
  0
LINE
  8
PLAN_1
 62
5
 10
39.157917
 20
7.158614
 30
0.2
 11
39.123318
 21
7.27267
 31
0.2
  0
LINE
  8
PLAN_1
 62
5
 10
39.123318
 20
7.27267
 30
0.2
 11
39.067135
 21
7.377786
 31
0.2
  0
LINE
  8
PLAN_1
 62
5
 10
39.067135
 20
7.377786
 30
0.2
 11
38.99152
 21
7.46992
 31
0.2
  0
LINE
  8
PLAN_1
 62
5
 10
38.99152
 20
7.46992
 30
0.2
 11
34.111507
 21
12.34993
 31
0.2
  0
LINE
  8
PLAN_1
 62
5
 10
34.111507
 20
12.34993
 30
0.2
 11
34.019375
 21
12.425542
 31
0.2
  0
LINE
  8
PLAN_1
 62
5
 10
34.019375
 20
12.425542
 30
0.2
 11
33.914257
 21
12.481728
 31
0.2
  0
LINE
  8
PLAN_1
 62
5
 10
33.914257
 20
12.481728
 30
0.2
 11
33.800201
 21
12.516326
 31
0.2
  0
LINE
  8
PLAN_1
 62
5
 10
33.800201
 20
12.516326
 30
0.2
 11
33.681587
 21
12.528008
 31
0.2
  0
LINE
  8
PLAN_1
 62
5
 10
33.681587
 20
12.528008
 30
0.2
 11
25.155941
 21
12.527999
 31
0.2
  0
LINE
  8
PLAN_1
 62
5
 10
25.155941
 20
12.527999
 30
0.2
 11
25.149519
 21
12.540014
 31
0.2
  0
LINE
  8
PLAN_1
 62
5
 10
25.149519
 20
12.540014
 30
0.2
 11
25.010731
 21
12.709129
 31
0.2
  0
LINE
  8
PLAN_1
 62
5
 10
25.010731
 20
12.709129
 30
0.2
 11
24.841616
 21
12.847919
 31
0.2
  0
LINE
  8
PLAN_1
 62
5
 10
24.841616
 20
12.847919
 30
0.2
 11
24.648674
 21
12.951048
 31
0.2
  0
LINE
  8
PLAN_1
 62
5
 10
24.648674
 20
12.951048
 30
0.2
 11
24.43932
 21
13.014555
 31
0.2
  0
LINE
  8
PLAN_1
 62
5
 10
24.43932
 20
13.014555
 30
0.2
 11
24.2216
 21
13.035998
 31
0.2
  0
LINE
  8
PLAN_1
 62
5
 10
24.2216
 20
13.035998
 30
0.2
 11
24.00388
 21
13.014555
 31
0.2
  0
LINE
  8
PLAN_1
 62
5
 10
24.00388
 20
13.014555
 30
0.2
 11
23.794525
 21
12.951048
 31
0.2
  0
LINE
  8
PLAN_1
 62
5
 10
23.794525
 20
12.951048
 30
0.2
 11
23.601583
 21
12.847919
 31
0.2
  0
LINE
  8
PLAN_1
 62
5
 10
23.601583
 20
12.847919
 30
0.2
 11
23.432468
 21
12.709129
 31
0.2
  0
LINE
  8
PLAN_1
 62
5
 10
23.432468
 20
12.709129
 30
0.2
 11
23.29368
 21
12.540014
 31
0.2
  0
LINE
  8
PLAN_1
 62
5
 10
23.29368
 20
12.540014
 30
0.2
 11
23.28726
 21
12.528004
 31
0.2
  0
LINE
  8
PLAN_1
 62
5
 10
23.28726
 20
12.528004
 30
0.2
 11
22.683432
 21
12.528008
 31
0.2
  0
LINE
  8
PLAN_1
 62
5
 10
22.683432
 20
12.528008
 30
0.2
 11
20.32152
 21
14.889919
 31
0.2
  0
LINE
  8
PLAN_1
 62
5
 10
20.32152
 20
14.889919
 30
0.2
 11
20.229387
 21
14.965531
 31
0.2
  0
LINE
  8
PLAN_1
 62
5
 10
20.229387
 20
14.965531
 30
0.2
 11
20.124271
 21
15.021717
 31
0.2
  0
LINE
  8
PLAN_1
 62
5
 10
20.124271
 20
15.021717
 30
0.2
 11
20.010214
 21
15.056315
 31
0.2
  0
LINE
  8
PLAN_1
 62
5
 10
20.010214
 20
15.056315
 30
0.2
 11
19.8916
 21
15.067998
 31
0.2
  0
LINE
  8
PLAN_1
 62
5
 10
19.8916
 20
15.067998
 30
0.2
 11
17.535942
 21
15.067998
 31
0.2
  0
LINE
  8
PLAN_1
 62
5
 10
17.535942
 20
15.067998
 30
0.2
 11
17.52952
 21
15.080014
 31
0.2
  0
LINE
  8
PLAN_1
 62
5
 10
17.52952
 20
15.080014
 30
0.2
 11
17.390732
 21
15.249129
 31
0.2
  0
LINE
  8
PLAN_1
 62
5
 10
17.390732
 20
15.249129
 30
0.2
 11
17.221617
 21
15.387918
 31
0.2
  0
LINE
  8
PLAN_1
 62
5
 10
17.221617
 20
15.387918
 30
0.2
 11
17.028675
 21
15.491048
 31
0.2
  0
LINE
  8
PLAN_1
 62
5
 10
17.028675
 20
15.491048
 30
0.2
 11
16.819321
 21
15.554555
 31
0.2
  0
LINE
  8
PLAN_1
 62
5
 10
16.819321
 20
15.554555
 30
0.2
 11
16.601601
 21
15.575998
 31
0.2
  0
LINE
  8
PLAN_1
 62
5
 10
16.601601
 20
15.575998
 30
0.2
 11
16.383881
 21
15.554555
 31
0.2
  0
LINE
  8
PLAN_1
 62
5
 10
16.383881
 20
15.554555
 30
0.2
 11
16.174526
 21
15.491048
 31
0.2
  0
LINE
  8
PLAN_1
 62
5
 10
16.174526
 20
15.491048
 30
0.2
 11
15.981585
 21
15.387918
 31
0.2
  0
LINE
  8
PLAN_1
 62
5
 10
15.981585
 20
15.387918
 30
0.2
 11
15.812469
 21
15.249129
 31
0.2
  0
LINE
  8
PLAN_1
 62
5
 10
15.812469
 20
15.249129
 30
0.2
 11
15.696646
 21
15.107998
 31
0.2
  0
LINE
  8
PLAN_1
 62
5
 10
15.696646
 20
15.107998
 30
0.2
 11
12.535944
 21
15.107998
 31
0.2
  0
LINE
  8
PLAN_1
 62
5
 10
12.535944
 20
15.107998
 30
0.2
 11
12.529521
 21
15.120014
 31
0.2
  0
LINE
  8
PLAN_1
 62
5
 10
12.529521
 20
15.120014
 30
0.2
 11
12.390732
 21
15.289129
 31
0.2
  0
LINE
  8
PLAN_1
 62
5
 10
12.390732
 20
15.289129
 30
0.2
 11
12.221617
 21
15.427918
 31
0.2
  0
LINE
  8
PLAN_1
 62
5
 10
12.221617
 20
15.427918
 30
0.2
 11
12.028675
 21
15.531048
 31
0.2
  0
LINE
  8
PLAN_1
 62
5
 10
12.028675
 20
15.531048
 30
0.2
 11
11.819322
 21
15.594555
 31
0.2
  0
LINE
  8
PLAN_1
 62
5
 10
11.819322
 20
15.594555
 30
0.2
 11
11.601601
 21
15.615998
 31
0.2
  0
LINE
  8
PLAN_1
 62
5
 10
11.601601
 20
15.615998
 30
0.2
 11
11.38388
 21
15.594555
 31
0.2
  0
LINE
  8
PLAN_1
 62
5
 10
11.38388
 20
15.594555
 30
0.2
 11
11.174526
 21
15.531048
 31
0.2
  0
LINE
  8
PLAN_1
 62
5
 10
11.174526
 20
15.531048
 30
0.2
 11
10.981585
 21
15.427918
 31
0.2
  0
LINE
  8
PLAN_1
 62
5
 10
10.981585
 20
15.427918
 30
0.2
 11
10.812469
 21
15.289129
 31
0.2
  0
LINE
  8
PLAN_1
 62
5
 10
10.812469
 20
15.289129
 30
0.2
 11
10.67368
 21
15.120014
 31
0.2
  0
LINE
  8
PLAN_1
 62
5
 10
10.67368
 20
15.120014
 30
0.2
 11
10.667257
 21
15.107998
 31
0.2
  0
LINE
  8
PLAN_1
 62
5
 10
10.667257
 20
15.107998
 30
0.2
 11
7.826603
 21
15.107998
 31
0.2
  0
LINE
  8
PLAN_1
 62
5
 10
7.826603
 20
15.107998
 30
0.2
 11
7.707995
 21
15.096317
 31
0.2
  0
LINE
  8
PLAN_1
 62
5
 10
7.707995
 20
15.096317
 30
0.2
 11
7.593938
 21
15.06172
 31
0.2
  0
LINE
  8
PLAN_1
 62
5
 10
7.593938
 20
15.06172
 30
0.2
 11
7.530847
 21
15.027998
 31
0.2
  0
LINE
  8
PLAN_1
 62
5
 10
7.530847
 20
15.027998
 30
0.2
 11
5.217601
 21
15.027998
 31
0.2
  0
LINE
  8
PLAN_1
 62
5
 10
5.217601
 20
15.027998
 30
0.2
 11
5.217601
 21
15.535998
 31
0.2
  0
LINE
  8
PLAN_1
 62
5
 10
5.217601
 20
15.535998
 30
0.2
 11
2.9856
 21
15.535998
 31
0.2
  0
LINE
  8
PLAN_1
 62
5
 10
2.9856
 20
15.535998
 30
0.2
 11
2.9856
 21
13.303998
 31
0.2
  0
LINE
  8
PLAN_1
 62
5
 10
2.9856
 20
13.303998
 30
0.2
 11
5.217601
 21
13.303998
 31
0.2
  0
LINE
  8
PLAN_1
 62
5
 10
5.217601
 20
13.303998
 30
0.2
 11
5.217601
 21
13.811998
 31
0.2
  0
LINE
  8
PLAN_1
 62
5
 10
5.217601
 20
13.811998
 30
0.2
 11
7.746601
 21
13.811998
 31
0.2
  0
LINE
  8
PLAN_1
 62
5
 10
7.746601
 20
13.811998
 30
0.2
 11
7.865216
 21
13.823681
 31
0.2
  0
LINE
  8
PLAN_1
 62
5
 10
7.865216
 20
13.823681
 30
0.2
 11
7.979273
 21
13.858279
 31
0.2
  0
LINE
  8
PLAN_1
 62
5
 10
7.979273
 20
13.858279
 30
0.2
 11
8.042356
 21
13.891998
 31
0.2
  0
LINE
  8
PLAN_1
 62
5
 10
8.042356
 20
13.891998
 30
0.2
 11
10.667257
 21
13.891998
 31
0.2
  0
LINE
  8
PLAN_1
 62
5
 10
10.667257
 20
13.891998
 30
0.2
 11
10.67368
 21
13.879982
 31
0.2
  0
LINE
  8
PLAN_1
 62
5
 10
10.67368
 20
13.879982
 30
0.2
 11
10.812469
 21
13.710867
 31
0.2
  0
LINE
  8
PLAN_1
 62
5
 10
10.812469
 20
13.710867
 30
0.2
 11
10.981584
 21
13.572078
 31
0.2
  0
LINE
  8
PLAN_1
 62
5
 10
10.981584
 20
13.572078
 30
0.2
 11
11.174526
 21
13.468948
 31
0.2
  0
LINE
  8
PLAN_1
 62
5
 10
11.174526
 20
13.468948
 30
0.2
 11
11.38388
 21
13.405441
 31
0.2
  0
LINE
  8
PLAN_1
 62
5
 10
11.38388
 20
13.405441
 30
0.2
 11
11.601601
 21
13.383998
 31
0.2
  0
LINE
  8
PLAN_1
 62
5
 10
11.601601
 20
13.383998
 30
0.2
 11
11.819322
 21
13.405441
 31
0.2
  0
LINE
  8
PLAN_1
 62
5
 10
11.819322
 20
13.405441
 30
0.2
 11
12.028676
 21
13.468948
 31
0.2
  0
LINE
  8
PLAN_1
 62
5
 10
12.028676
 20
13.468948
 30
0.2
 11
12.221617
 21
13.572078
 31
0.2
  0
LINE
  8
PLAN_1
 62
5
 10
12.221617
 20
13.572078
 30
0.2
 11
12.390732
 21
13.710867
 31
0.2
  0
LINE
  8
PLAN_1
 62
5
 10
12.390732
 20
13.710867
 30
0.2
 11
12.529521
 21
13.879982
 31
0.2
  0
LINE
  8
PLAN_1
 62
5
 10
12.529521
 20
13.879982
 30
0.2
 11
12.535944
 21
13.891998
 31
0.2
  0
LINE
  8
PLAN_1
 62
5
 10
12.535944
 20
13.891998
 30
0.2
 11
15.645877
 21
13.891998
 31
0.2
  0
LINE
  8
PLAN_1
 62
5
 10
15.645877
 20
13.891998
 30
0.2
 11
15.67368
 21
13.839982
 31
0.2
  0
LINE
  8
PLAN_1
 62
5
 10
15.67368
 20
13.839982
 30
0.2
 11
15.812469
 21
13.670867
 31
0.2
  0
LINE
  8
PLAN_1
 62
5
 10
15.812469
 20
13.670867
 30
0.2
 11
15.981584
 21
13.532078
 31
0.2
  0
LINE
  8
PLAN_1
 62
5
 10
15.981584
 20
13.532078
 30
0.2
 11
16.174526
 21
13.428948
 31
0.2
  0
LINE
  8
PLAN_1
 62
5
 10
16.174526
 20
13.428948
 30
0.2
 11
16.383881
 21
13.365441
 31
0.2
  0
LINE
  8
PLAN_1
 62
5
 10
16.383881
 20
13.365441
 30
0.2
 11
16.601601
 21
13.343998
 31
0.2
  0
LINE
  8
PLAN_1
 62
5
 10
16.601601
 20
13.343998
 30
0.2
 11
16.819321
 21
13.365441
 31
0.2
  0
LINE
  8
PLAN_1
 62
5
 10
16.819321
 20
13.365441
 30
0.2
 11
17.028675
 21
13.428948
 31
0.2
  0
LINE
  8
PLAN_1
 62
5
 10
17.028675
 20
13.428948
 30
0.2
 11
17.221617
 21
13.532078
 31
0.2
  0
LINE
  8
PLAN_1
 62
5
 10
17.221617
 20
13.532078
 30
0.2
 11
17.390732
 21
13.670867
 31
0.2
  0
LINE
  8
PLAN_1
 62
5
 10
17.390732
 20
13.670867
 30
0.2
 11
17.52952
 21
13.839982
 31
0.2
  0
LINE
  8
PLAN_1
 62
5
 10
17.52952
 20
13.839982
 30
0.2
 11
17.535942
 21
13.851998
 31
0.2
  0
LINE
  8
PLAN_1
 62
5
 10
17.535942
 20
13.851998
 30
0.2
 11
19.639759
 21
13.851998
 31
0.2
  0
LINE
  8
PLAN_1
 62
5
 10
19.639759
 20
13.851998
 30
0.2
 11
22.001669
 21
11.490088
 31
0.2
  0
LINE
  8
PLAN_1
 62
5
 10
22.001669
 20
11.490088
 30
0.2
 11
22.0938
 21
11.414477
 31
0.2
  0
LINE
  8
PLAN_1
 62
5
 10
22.0938
 20
11.414477
 30
0.2
 11
22.198914
 21
11.358292
 31
0.2
  0
LINE
  8
PLAN_1
 62
5
 10
22.198914
 20
11.358292
 30
0.2
 11
22.312971
 21
11.323692
 31
0.2
  0
LINE
  8
PLAN_1
 62
5
 10
22.312971
 20
11.323692
 30
0.2
 11
22.431585
 21
11.312009
 31
0.2
  0
LINE
  8
PLAN_1
 62
5
 10
22.431585
 20
11.312009
 30
0.2
 11
23.287254
 21
11.312004
 31
0.2
  0
LINE
  8
PLAN_1
 62
5
 10
23.287254
 20
11.312004
 30
0.2
 11
23.29368
 21
11.299982
 31
0.2
  0
LINE
  8
PLAN_1
 62
5
 10
23.29368
 20
11.299982
 30
0.2
 11
23.432468
 21
11.130867
 31
0.2
  0
LINE
  8
PLAN_1
 62
5
 10
23.432468
 20
11.130867
 30
0.2
 11
23.601583
 21
10.992078
 31
0.2
  0
LINE
  8
PLAN_1
 62
5
 10
23.601583
 20
10.992078
 30
0.2
 11
23.794525
 21
10.888948
 31
0.2
  0
LINE
  8
PLAN_1
 62
5
 10
23.794525
 20
10.888948
 30
0.2
 11
24.00388
 21
10.825441
 31
0.2
  0
LINE
  8
PLAN_1
 62
5
 10
24.00388
 20
10.825441
 30
0.2
 11
24.2216
 21
10.803998
 31
0.2
  0
LINE
  8
PLAN_1
 62
5
 10
24.2216
 20
10.803998
 30
0.2
 11
24.43932
 21
10.825441
 31
0.2
  0
LINE
  8
PLAN_1
 62
5
 10
24.43932
 20
10.825441
 30
0.2
 11
24.648674
 21
10.888948
 31
0.2
  0
LINE
  8
PLAN_1
 62
5
 10
24.648674
 20
10.888948
 30
0.2
 11
24.841616
 21
10.992078
 31
0.2
  0
LINE
  8
PLAN_1
 62
5
 10
24.841616
 20
10.992078
 30
0.2
 11
25.010731
 21
11.130867
 31
0.2
  0
LINE
  8
PLAN_1
 62
5
 10
25.010731
 20
11.130867
 30
0.2
 11
25.149519
 21
11.299982
 31
0.2
  0
LINE
  8
PLAN_1
 62
5
 10
25.149519
 20
11.299982
 30
0.2
 11
25.155943
 21
11.311999
 31
0.2
  0
LINE
  8
PLAN_1
 62
5
 10
25.155943
 20
11.311999
 30
0.2
 11
33.429745
 21
11.312009
 31
0.2
  0
LINE
  8
PLAN_1
 62
5
 10
33.429745
 20
11.312009
 30
0.2
 11
37.871418
 21
6.870338
 31
0.2
  0
LINE
  8
PLAN_1
 62
5
 10
37.871418
 20
6.870338
 30
0.2
 11
37.771999
 21
6.875002
 31
0.2
  0
LINE
  8
PLAN_1
 62
5
 10
37.771999
 20
6.875002
 30
0.2
 11
37.725094
 21
6.836507
 31
0.2
  0
LINE
  8
PLAN_1
 62
5
 10
37.725094
 20
6.836507
 30
0.2
 11
37.577972
 21
6.657239
 31
0.2
  0
LINE
  8
PLAN_1
 62
5
 10
37.577972
 20
6.657239
 30
0.2
 11
37.468651
 21
6.452714
 31
0.2
  0
LINE
  8
PLAN_1
 62
5
 10
37.468651
 20
6.452714
 30
0.2
 11
37.401329
 21
6.230792
 31
0.2
  0
LINE
  8
PLAN_1
 62
5
 10
37.401329
 20
6.230792
 30
0.2
 11
37.378601
 21
6.0
 31
0.2
  0
LINE
  8
PLAN_1
 62
5
 10
37.378601
 20
6.0
 30
0.2
 11
37.401329
 21
5.769208
 31
0.2
  0
LINE
  8
PLAN_1
 62
5
 10
37.401329
 20
5.769208
 30
0.2
 11
37.468651
 21
5.547285
 31
0.2
  0
LINE
  8
PLAN_1
 62
5
 10
37.468651
 20
5.547285
 30
0.2
 11
37.577972
 21
5.34276
 31
0.2
  0
LINE
  8
PLAN_1
 62
5
 10
37.577972
 20
5.34276
 30
0.2
 11
37.725094
 21
5.163492
 31
0.2
  0
LINE
  8
PLAN_1
 62
5
 10
37.725094
 20
5.163492
 30
0.2
 11
37.904362
 21
5.016371
 31
0.2
  0
LINE
  8
PLAN_1
 62
5
 10
37.904362
 20
5.016371
 30
0.2
 11
38.108887
 21
4.90705
 31
0.2
  0
LINE
  8
PLAN_1
 62
5
 10
38.108887
 20
4.90705
 30
0.2
 11
38.330807
 21
4.83973
 31
0.2
  0
LINE
  8
PLAN_1
 62
5
 10
38.330807
 20
4.83973
 30
0.2
 11
38.5616
 21
4.816999
 31
0.2
  0
LINE
  8
PLAN_1
 62
5
 10
38.5616
 20
4.816999
 30
0.2
 11
38.792393
 21
4.83973
 31
0.2
  0
LINE
  8
PLAN_1
 62
5
 10
38.792393
 20
4.83973
 30
0.2
 11
39.014313
 21
4.90705
 31
0.2
  0
LINE
  8
PLAN_1
 62
5
 10
39.014313
 20
4.90705
 30
0.2
 11
39.218838
 21
5.016371
 31
0.2
  0
LINE
  8
PLAN_1
 62
5
 10
39.218838
 20
5.016371
 30
0.2
 11
39.398106
 21
5.163492
 31
0.2
  0
LINE
  8
PLAN_1
 62
5
 10
39.398106
 20
5.163492
 30
0.2
 11
39.545227
 21
5.34276
 31
0.2
  0
LINE
  8
PLAN_1
 62
5
 10
39.545227
 20
5.34276
 30
0.2
 11
39.654549
 21
5.547285
 31
0.2
  0
LINE
  8
PLAN_1
 62
5
 10
39.654549
 20
5.547285
 30
0.2
 11
39.72187
 21
5.769208
 31
0.2
  0
LINE
  8
PLAN_1
 62
5
 10
37.204597
 20
6.0
 30
0.2
 11
37.18187
 21
6.230792
 31
0.2
  0
LINE
  8
PLAN_1
 62
5
 10
37.18187
 20
6.230792
 30
0.2
 11
37.114548
 21
6.452714
 31
0.2
  0
LINE
  8
PLAN_1
 62
5
 10
37.114548
 20
6.452714
 30
0.2
 11
37.005226
 21
6.657239
 31
0.2
  0
LINE
  8
PLAN_1
 62
5
 10
37.005226
 20
6.657239
 30
0.2
 11
36.858105
 21
6.836507
 31
0.2
  0
LINE
  8
PLAN_1
 62
5
 10
36.858105
 20
6.836507
 30
0.2
 11
36.678837
 21
6.983628
 31
0.2
  0
LINE
  8
PLAN_1
 62
5
 10
36.678837
 20
6.983628
 30
0.2
 11
36.474312
 21
7.092949
 31
0.2
  0
LINE
  8
PLAN_1
 62
5
 10
36.474312
 20
7.092949
 30
0.2
 11
36.252392
 21
7.160269
 31
0.2
  0
LINE
  8
PLAN_1
 62
5
 10
36.252392
 20
7.160269
 30
0.2
 11
36.021599
 21
7.183
 31
0.2
  0
LINE
  8
PLAN_1
 62
5
 10
36.021599
 20
7.183
 30
0.2
 11
35.790806
 21
7.160269
 31
0.2
  0
LINE
  8
PLAN_1
 62
5
 10
35.790806
 20
7.160269
 30
0.2
 11
35.568886
 21
7.092949
 31
0.2
  0
LINE
  8
PLAN_1
 62
5
 10
35.568886
 20
7.092949
 30
0.2
 11
35.364361
 21
6.983628
 31
0.2
  0
LINE
  8
PLAN_1
 62
5
 10
35.364361
 20
6.983628
 30
0.2
 11
35.185093
 21
6.836507
 31
0.2
  0
LINE
  8
PLAN_1
 62
5
 10
35.185093
 20
6.836507
 30
0.2
 11
35.052547
 21
6.675
 31
0.2
  0
LINE
  8
PLAN_1
 62
5
 10
35.052547
 20
6.675
 30
0.2
 11
32.236195
 21
6.675
 31
0.2
  0
LINE
  8
PLAN_1
 62
5
 10
32.236195
 20
6.675
 30
0.2
 11
32.053898
 21
6.857296
 31
0.2
  0
LINE
  8
PLAN_1
 62
5
 10
32.053898
 20
6.857296
 30
0.2
 11
31.951609
 21
6.941241
 31
0.2
  0
LINE
  8
PLAN_1
 62
5
 10
31.951609
 20
6.941241
 30
0.2
 11
31.834909
 21
7.003618
 31
0.2
  0
LINE
  8
PLAN_1
 62
5
 10
31.834909
 20
7.003618
 30
0.2
 11
31.708284
 21
7.042029
 31
0.2
  0
LINE
  8
PLAN_1
 62
5
 10
31.708284
 20
7.042029
 30
0.2
 11
31.576599
 21
7.054999
 31
0.2
  0
LINE
  8
PLAN_1
 62
5
 10
31.576599
 20
7.054999
 30
0.2
 11
30.570652
 21
7.054999
 31
0.2
  0
LINE
  8
PLAN_1
 62
5
 10
30.570652
 20
7.054999
 30
0.2
 11
30.438107
 21
7.216506
 31
0.2
  0
LINE
  8
PLAN_1
 62
5
 10
30.438107
 20
7.216506
 30
0.2
 11
30.258839
 21
7.363628
 31
0.2
  0
LINE
  8
PLAN_1
 62
5
 10
30.258839
 20
7.363628
 30
0.2
 11
30.054314
 21
7.472949
 31
0.2
  0
LINE
  8
PLAN_1
 62
5
 10
30.054314
 20
7.472949
 30
0.2
 11
29.83239
 21
7.540268
 31
0.2
  0
LINE
  8
PLAN_1
 62
5
 10
29.83239
 20
7.540268
 30
0.2
 11
29.601599
 21
7.562999
 31
0.2
  0
LINE
  8
PLAN_1
 62
5
 10
29.601599
 20
7.562999
 30
0.2
 11
29.370808
 21
7.540268
 31
0.2
  0
LINE
  8
PLAN_1
 62
5
 10
29.370808
 20
7.540268
 30
0.2
 11
29.148884
 21
7.472949
 31
0.2
  0
LINE
  8
PLAN_1
 62
5
 10
29.148884
 20
7.472949
 30
0.2
 11
28.944359
 21
7.363628
 31
0.2
  0
LINE
  8
PLAN_1
 62
5
 10
28.944359
 20
7.363628
 30
0.2
 11
28.765091
 21
7.216506
 31
0.2
  0
LINE
  8
PLAN_1
 62
5
 10
28.765091
 20
7.216506
 30
0.2
 11
28.61797
 21
7.037239
 31
0.2
  0
LINE
  8
PLAN_1
 62
5
 10
28.61797
 20
7.037239
 30
0.2
 11
28.50865
 21
6.832714
 31
0.2
  0
LINE
  8
PLAN_1
 62
5
 10
28.50865
 20
6.832714
 30
0.2
 11
28.44133
 21
6.610791
 31
0.2
  0
LINE
  8
PLAN_1
 62
5
 10
28.44133
 20
6.610791
 30
0.2
 11
28.418598
 21
6.379999
 31
0.2
  0
LINE
  8
PLAN_1
 62
5
 10
28.418598
 20
6.379999
 30
0.2
 11
28.44133
 21
6.149208
 31
0.2
  0
LINE
  8
PLAN_1
 62
5
 10
28.44133
 20
6.149208
 30
0.2
 11
28.50865
 21
5.927285
 31
0.2
  0
LINE
  8
PLAN_1
 62
5
 10
28.50865
 20
5.927285
 30
0.2
 11
28.61797
 21
5.722759
 31
0.2
  0
LINE
  8
PLAN_1
 62
5
 10
28.61797
 20
5.722759
 30
0.2
 11
28.765091
 21
5.543492
 31
0.2
  0
LINE
  8
PLAN_1
 62
5
 10
28.765091
 20
5.543492
 30
0.2
 11
28.944359
 21
5.396371
 31
0.2
  0
LINE
  8
PLAN_1
 62
5
 10
28.944359
 20
5.396371
 30
0.2
 11
29.148884
 21
5.28705
 31
0.2
  0
LINE
  8
PLAN_1
 62
5
 10
29.148884
 20
5.28705
 30
0.2
 11
29.370808
 21
5.21973
 31
0.2
  0
LINE
  8
PLAN_1
 62
5
 10
29.370808
 20
5.21973
 30
0.2
 11
29.601599
 21
5.196999
 31
0.2
  0
LINE
  8
PLAN_1
 62
5
 10
29.601599
 20
5.196999
 30
0.2
 11
29.83239
 21
5.21973
 31
0.2
  0
LINE
  8
PLAN_1
 62
5
 10
29.83239
 20
5.21973
 30
0.2
 11
30.054314
 21
5.28705
 31
0.2
  0
LINE
  8
PLAN_1
 62
5
 10
30.054314
 20
5.28705
 30
0.2
 11
30.258839
 21
5.39637
 31
0.2
  0
LINE
  8
PLAN_1
 62
5
 10
30.258839
 20
5.39637
 30
0.2
 11
30.438107
 21
5.543492
 31
0.2
  0
LINE
  8
PLAN_1
 62
5
 10
30.438107
 20
5.543492
 30
0.2
 11
30.570652
 21
5.704999
 31
0.2
  0
LINE
  8
PLAN_1
 62
5
 10
30.570652
 20
5.704999
 30
0.2
 11
31.297005
 21
5.704999
 31
0.2
  0
LINE
  8
PLAN_1
 62
5
 10
31.297005
 20
5.704999
 30
0.2
 11
31.479301
 21
5.522703
 31
0.2
  0
LINE
  8
PLAN_1
 62
5
 10
31.479301
 20
5.522703
 30
0.2
 11
31.581589
 21
5.438758
 31
0.2
  0
LINE
  8
PLAN_1
 62
5
 10
31.581589
 20
5.438758
 30
0.2
 11
31.698286
 21
5.376381
 31
0.2
  0
LINE
  8
PLAN_1
 62
5
 10
31.698286
 20
5.376381
 30
0.2
 11
31.824911
 21
5.33797
 31
0.2
  0
LINE
  8
PLAN_1
 62
5
 10
31.824911
 20
5.33797
 30
0.2
 11
31.956598
 21
5.324999
 31
0.2
  0
LINE
  8
PLAN_1
 62
5
 10
31.956598
 20
5.324999
 30
0.2
 11
35.052547
 21
5.324999
 31
0.2
  0
LINE
  8
PLAN_1
 62
5
 10
35.052547
 20
5.324999
 30
0.2
 11
35.093678
 21
5.379983
 31
0.2
  0
LINE
  8
PLAN_1
 62
5
 10
35.093678
 20
5.379983
 30
0.2
 11
35.232468
 21
5.210868
 31
0.2
  0
LINE
  8
PLAN_1
 62
5
 10
35.232468
 20
5.210868
 30
0.2
 11
35.401581
 21
5.07208
 31
0.2
  0
LINE
  8
PLAN_1
 62
5
 10
35.401581
 20
5.07208
 30
0.2
 11
35.594524
 21
4.96895
 31
0.2
  0
LINE
  8
PLAN_1
 62
5
 10
35.594524
 20
4.96895
 30
0.2
 11
35.803879
 21
4.905443
 31
0.2
  0
LINE
  8
PLAN_1
 62
5
 10
35.803879
 20
4.905443
 30
0.2
 11
36.021599
 21
4.883999
 31
0.2
  0
LINE
  8
PLAN_1
 62
5
 10
36.021599
 20
4.883999
 30
0.2
 11
36.239319
 21
4.905443
 31
0.2
  0
LINE
  8
PLAN_1
 62
5
 10
36.239319
 20
4.905443
 30
0.2
 11
36.448673
 21
4.96895
 31
0.2
  0
LINE
  8
PLAN_1
 62
5
 10
36.448673
 20
4.96895
 30
0.2
 11
36.641617
 21
5.072079
 31
0.2
  0
LINE
  8
PLAN_1
 62
5
 10
36.641617
 20
5.072079
 30
0.2
 11
36.81073
 21
5.210868
 31
0.2
  0
LINE
  8
PLAN_1
 62
5
 10
36.81073
 20
5.210868
 30
0.2
 11
36.94952
 21
5.379983
 31
0.2
  0
LINE
  8
PLAN_1
 62
5
 10
36.94952
 20
5.379983
 30
0.2
 11
37.052647
 21
5.572925
 31
0.2
  0
LINE
  8
PLAN_1
 62
5
 10
37.052647
 20
5.572925
 30
0.2
 11
37.116154
 21
5.782279
 31
0.2
  0
LINE
  8
PLAN_1
 62
5
 10
37.116154
 20
5.782279
 30
0.2
 11
37.1376
 21
6.0
 31
0.2
  0
LINE
  8
PLAN_1
 62
5
 10
37.1376
 20
6.0
 30
0.2
 11
37.116154
 21
6.217721
 31
0.2
  0
LINE
  8
PLAN_1
 62
5
 10
37.116154
 20
6.217721
 30
0.2
 11
37.052647
 21
6.427074
 31
0.2
  0
LINE
  8
PLAN_1
 62
5
 10
37.052647
 20
6.427074
 30
0.2
 11
36.94952
 21
6.620016
 31
0.2
  0
LINE
  8
PLAN_1
 62
5
 10
36.94952
 20
6.620016
 30
0.2
 11
36.81073
 21
6.789131
 31
0.2
  0
LINE
  8
PLAN_1
 62
5
 10
36.81073
 20
6.789131
 30
0.2
 11
36.641617
 21
6.92792
 31
0.2
  0
LINE
  8
PLAN_1
 62
5
 10
36.641617
 20
6.92792
 30
0.2
 11
36.448673
 21
7.031049
 31
0.2
  0
LINE
  8
PLAN_1
 62
5
 10
36.448673
 20
7.031049
 30
0.2
 11
36.239319
 21
7.094556
 31
0.2
  0
LINE
  8
PLAN_1
 62
5
 10
36.239319
 20
7.094556
 30
0.2
 11
36.021599
 21
7.116
 31
0.2
  0
LINE
  8
PLAN_1
 62
5
 10
36.021599
 20
7.116
 30
0.2
 11
35.803879
 21
7.094556
 31
0.2
  0
LINE
  8
PLAN_1
 62
5
 10
35.803879
 20
7.094556
 30
0.2
 11
35.594524
 21
7.031049
 31
0.2
  0
LINE
  8
PLAN_1
 62
5
 10
35.594524
 20
7.031049
 30
0.2
 11
35.401581
 21
6.92792
 31
0.2
  0
LINE
  8
PLAN_1
 62
5
 10
35.401581
 20
6.92792
 30
0.2
 11
35.232468
 21
6.789131
 31
0.2
  0
LINE
  8
PLAN_1
 62
5
 10
35.232468
 20
6.789131
 30
0.2
 11
35.093678
 21
6.620016
 31
0.2
  0
LINE
  8
PLAN_1
 62
5
 10
35.093678
 20
6.620016
 30
0.2
 11
35.087254
 21
6.607999
 31
0.2
  0
LINE
  8
PLAN_1
 62
5
 10
35.087254
 20
6.607999
 30
0.2
 11
32.208443
 21
6.607999
 31
0.2
  0
LINE
  8
PLAN_1
 62
5
 10
32.208443
 20
6.607999
 30
0.2
 11
32.006519
 21
6.80992
 31
0.2
  0
LINE
  8
PLAN_1
 62
5
 10
32.006519
 20
6.80992
 30
0.2
 11
31.914385
 21
6.885533
 31
0.2
  0
LINE
  8
PLAN_1
 62
5
 10
31.914385
 20
6.885533
 30
0.2
 11
31.809271
 21
6.941718
 31
0.2
  0
LINE
  8
PLAN_1
 62
5
 10
31.809271
 20
6.941718
 30
0.2
 11
31.695213
 21
6.976316
 31
0.2
  0
LINE
  8
PLAN_1
 62
5
 10
31.695213
 20
6.976316
 30
0.2
 11
31.576599
 21
6.987999
 31
0.2
  0
LINE
  8
PLAN_1
 62
5
 10
31.576599
 20
6.987999
 30
0.2
 11
30.535942
 21
6.987999
 31
0.2
  0
LINE
  8
PLAN_1
 62
5
 10
30.535942
 20
6.987999
 30
0.2
 11
30.529518
 21
7.000016
 31
0.2
  0
LINE
  8
PLAN_1
 62
5
 10
30.529518
 20
7.000016
 30
0.2
 11
30.39073
 21
7.16913
 31
0.2
  0
LINE
  8
PLAN_1
 62
5
 10
30.39073
 20
7.16913
 30
0.2
 11
30.221615
 21
7.30792
 31
0.2
  0
LINE
  8
PLAN_1
 62
5
 10
30.221615
 20
7.30792
 30
0.2
 11
30.028673
 21
7.411049
 31
0.2
  0
LINE
  8
PLAN_1
 62
5
 10
30.028673
 20
7.411049
 30
0.2
 11
29.819319
 21
7.474555
 31
0.2
  0
LINE
  8
PLAN_1
 62
5
 10
29.819319
 20
7.474555
 30
0.2
 11
29.601599
 21
7.495999
 31
0.2
  0
LINE
  8
PLAN_1
 62
5
 10
29.601599
 20
7.495999
 30
0.2
 11
29.383879
 21
7.474555
 31
0.2
  0
LINE
  8
PLAN_1
 62
5
 10
29.383879
 20
7.474555
 30
0.2
 11
29.174524
 21
7.411049
 31
0.2
  0
LINE
  8
PLAN_1
 62
5
 10
29.174524
 20
7.411049
 30
0.2
 11
28.981583
 21
7.30792
 31
0.2
  0
LINE
  8
PLAN_1
 62
5
 10
28.981583
 20
7.30792
 30
0.2
 11
28.812468
 21
7.16913
 31
0.2
  0
LINE
  8
PLAN_1
 62
5
 10
28.812468
 20
7.16913
 30
0.2
 11
28.673679
 21
7.000015
 31
0.2
  0
LINE
  8
PLAN_1
 62
5
 10
28.673679
 20
7.000015
 30
0.2
 11
28.570549
 21
6.807074
 31
0.2
  0
LINE
  8
PLAN_1
 62
5
 10
28.570549
 20
6.807074
 30
0.2
 11
28.507042
 21
6.59772
 31
0.2
  0
LINE
  8
PLAN_1
 62
5
 10
28.507042
 20
6.59772
 30
0.2
 11
28.4856
 21
6.379999
 31
0.2
  0
LINE
  8
PLAN_1
 62
5
 10
28.4856
 20
6.379999
 30
0.2
 11
28.507042
 21
6.162279
 31
0.2
  0
LINE
  8
PLAN_1
 62
5
 10
28.507042
 20
6.162279
 30
0.2
 11
28.570549
 21
5.952924
 31
0.2
  0
LINE
  8
PLAN_1
 62
5
 10
28.570549
 20
5.952924
 30
0.2
 11
28.673679
 21
5.759983
 31
0.2
  0
LINE
  8
PLAN_1
 62
5
 10
28.673679
 20
5.759983
 30
0.2
 11
28.812468
 21
5.590868
 31
0.2
  0
LINE
  8
PLAN_1
 62
5
 10
28.812468
 20
5.590868
 30
0.2
 11
28.981583
 21
5.452079
 31
0.2
  0
LINE
  8
PLAN_1
 62
5
 10
28.981583
 20
5.452079
 30
0.2
 11
29.174524
 21
5.348949
 31
0.2
  0
LINE
  8
PLAN_1
 62
5
 10
29.174524
 20
5.348949
 30
0.2
 11
29.383879
 21
5.285443
 31
0.2
  0
LINE
  8
PLAN_1
 62
5
 10
29.383879
 20
5.285443
 30
0.2
 11
29.601599
 21
5.263999
 31
0.2
  0
LINE
  8
PLAN_1
 62
5
 10
29.601599
 20
5.263999
 30
0.2
 11
29.819319
 21
5.285443
 31
0.2
  0
LINE
  8
PLAN_1
 62
5
 10
29.819319
 20
5.285443
 30
0.2
 11
30.028673
 21
5.348949
 31
0.2
  0
LINE
  8
PLAN_1
 62
5
 10
30.028673
 20
5.348949
 30
0.2
 11
30.221615
 21
5.452079
 31
0.2
  0
LINE
  8
PLAN_1
 62
5
 10
30.221615
 20
5.452079
 30
0.2
 11
30.39073
 21
5.590868
 31
0.2
  0
LINE
  8
PLAN_1
 62
5
 10
30.39073
 20
5.590868
 30
0.2
 11
30.529518
 21
5.759983
 31
0.2
  0
LINE
  8
PLAN_1
 62
5
 10
30.529518
 20
5.759983
 30
0.2
 11
30.535942
 21
5.771999
 31
0.2
  0
LINE
  8
PLAN_1
 62
5
 10
30.535942
 20
5.771999
 30
0.2
 11
31.324757
 21
5.771999
 31
0.2
  0
LINE
  8
PLAN_1
 62
5
 10
31.324757
 20
5.771999
 30
0.2
 11
31.526676
 21
5.570079
 31
0.2
  0
LINE
  8
PLAN_1
 62
5
 10
31.526676
 20
5.570079
 30
0.2
 11
31.618811
 21
5.494466
 31
0.2
  0
LINE
  8
PLAN_1
 62
5
 10
31.618811
 20
5.494466
 30
0.2
 11
31.723927
 21
5.438281
 31
0.2
  0
LINE
  8
PLAN_1
 62
5
 10
31.723927
 20
5.438281
 30
0.2
 11
31.837982
 21
5.403682
 31
0.2
  0
LINE
  8
PLAN_1
 62
5
 10
31.837982
 20
5.403682
 30
0.2
 11
31.956598
 21
5.392
 31
0.2
  0
LINE
  8
PLAN_1
 62
5
 10
31.956598
 20
5.392
 30
0.2
 11
35.087254
 21
5.392
 31
0.2
  0
LINE
  8
PLAN_1
 62
5
 10
35.087254
 20
5.392
 30
0.2
 11
35.052547
 21
5.324999
 31
0.2
  0
LINE
  8
PLAN_1
 62
5
 10
35.052547
 20
5.324999
 30
0.2
 11
35.185093
 21
5.163492
 31
0.2
  0
LINE
  8
PLAN_1
 62
5
 10
35.185093
 20
5.163492
 30
0.2
 11
35.364361
 21
5.016371
 31
0.2
  0
LINE
  8
PLAN_1
 62
5
 10
35.364361
 20
5.016371
 30
0.2
 11
35.568886
 21
4.90705
 31
0.2
  0
LINE
  8
PLAN_1
 62
5
 10
35.568886
 20
4.90705
 30
0.2
 11
35.790806
 21
4.83973
 31
0.2
  0
LINE
  8
PLAN_1
 62
5
 10
35.790806
 20
4.83973
 30
0.2
 11
36.021599
 21
4.816999
 31
0.2
  0
LINE
  8
PLAN_1
 62
5
 10
36.021599
 20
4.816999
 30
0.2
 11
36.252392
 21
4.83973
 31
0.2
  0
LINE
  8
PLAN_1
 62
5
 10
36.252392
 20
4.83973
 30
0.2
 11
36.474312
 21
4.90705
 31
0.2
  0
LINE
  8
PLAN_1
 62
5
 10
36.474312
 20
4.90705
 30
0.2
 11
36.678837
 21
5.016371
 31
0.2
  0
LINE
  8
PLAN_1
 62
5
 10
36.678837
 20
5.016371
 30
0.2
 11
36.858105
 21
5.163492
 31
0.2
  0
LINE
  8
PLAN_1
 62
5
 10
36.858105
 20
5.163492
 30
0.2
 11
37.005226
 21
5.34276
 31
0.2
  0
LINE
  8
PLAN_1
 62
5
 10
37.005226
 20
5.34276
 30
0.2
 11
37.114548
 21
5.547285
 31
0.2
  0
LINE
  8
PLAN_1
 62
5
 10
37.114548
 20
5.547285
 30
0.2
 11
37.18187
 21
5.769208
 31
0.2
  0
LINE
  8
PLAN_1
 62
5
 10
37.18187
 20
5.769208
 30
0.2
 11
37.204597
 21
6.0
 31
0.2
  0
LINE
  8
PLAN_1
 62
5
 10
35.054314
 20
12.907048
 30
0.2
 11
35.258839
 21
13.016369
 31
0.2
  0
LINE
  8
PLAN_1
 62
5
 10
35.258839
 20
13.016369
 30
0.2
 11
35.438107
 21
13.16349
 31
0.2
  0
LINE
  8
PLAN_1
 62
5
 10
35.438107
 20
13.16349
 30
0.2
 11
35.585228
 21
13.342758
 31
0.2
  0
LINE
  8
PLAN_1
 62
5
 10
35.585228
 20
13.342758
 30
0.2
 11
35.69455
 21
13.547283
 31
0.2
  0
LINE
  8
PLAN_1
 62
5
 10
35.69455
 20
13.547283
 30
0.2
 11
35.761871
 21
13.769206
 31
0.2
  0
LINE
  8
PLAN_1
 62
5
 10
35.761871
 20
13.769206
 30
0.2
 11
35.784599
 21
13.999998
 31
0.2
  0
LINE
  8
PLAN_1
 62
5
 10
35.784599
 20
13.999998
 30
0.2
 11
35.764122
 21
14.207927
 31
0.2
  0
LINE
  8
PLAN_1
 62
5
 10
35.764122
 20
14.207927
 30
0.2
 11
36.738895
 21
15.182701
 31
0.2
  0
LINE
  8
PLAN_1
 62
5
 10
36.738895
 20
15.182701
 30
0.2
 11
36.822838
 21
15.284988
 31
0.2
  0
LINE
  8
PLAN_1
 62
5
 10
36.822838
 20
15.284988
 30
0.2
 11
36.885216
 21
15.401687
 31
0.2
  0
LINE
  8
PLAN_1
 62
5
 10
36.885216
 20
15.401687
 30
0.2
 11
36.923626
 21
15.528312
 31
0.2
  0
LINE
  8
PLAN_1
 62
5
 10
36.923626
 20
15.528312
 30
0.2
 11
36.936596
 21
15.659998
 31
0.2
  0
LINE
  8
PLAN_1
 62
5
 10
36.936596
 20
15.659998
 30
0.2
 11
36.936596
 21
20.030945
 31
0.2
  0
LINE
  8
PLAN_1
 62
5
 10
36.936596
 20
20.030945
 30
0.2
 11
37.098103
 21
20.16349
 31
0.2
  0
LINE
  8
PLAN_1
 62
5
 10
37.098103
 20
20.16349
 30
0.2
 11
37.245224
 21
20.342758
 31
0.2
  0
LINE
  8
PLAN_1
 62
5
 10
37.245224
 20
20.342758
 30
0.2
 11
37.354546
 21
20.547283
 31
0.2
  0
LINE
  8
PLAN_1
 62
5
 10
37.354546
 20
20.547283
 30
0.2
 11
37.421867
 21
20.769207
 31
0.2
  0
LINE
  8
PLAN_1
 62
5
 10
37.421867
 20
20.769207
 30
0.2
 11
37.444595
 21
20.999998
 31
0.2
  0
LINE
  8
PLAN_1
 62
5
 10
37.444595
 20
20.999998
 30
0.2
 11
37.421867
 21
21.230789
 31
0.2
  0
LINE
  8
PLAN_1
 62
5
 10
37.421867
 20
21.230789
 30
0.2
 11
37.354546
 21
21.452713
 31
0.2
  0
LINE
  8
PLAN_1
 62
5
 10
37.354546
 20
21.452713
 30
0.2
 11
37.245224
 21
21.657238
 31
0.2
  0
LINE
  8
PLAN_1
 62
5
 10
37.245224
 20
21.657238
 30
0.2
 11
37.098103
 21
21.836506
 31
0.2
  0
LINE
  8
PLAN_1
 62
5
 10
37.098103
 20
21.836506
 30
0.2
 11
36.918835
 21
21.983627
 31
0.2
  0
LINE
  8
PLAN_1
 62
5
 10
36.918835
 20
21.983627
 30
0.2
 11
36.71431
 21
22.092947
 31
0.2
  0
LINE
  8
PLAN_1
 62
5
 10
36.71431
 20
22.092947
 30
0.2
 11
36.49239
 21
22.160267
 31
0.2
  0
LINE
  8
PLAN_1
 62
5
 10
36.49239
 20
22.160267
 30
0.2
 11
36.261597
 21
22.182999
 31
0.2
  0
LINE
  8
PLAN_1
 62
5
 10
36.261597
 20
22.182999
 30
0.2
 11
36.030804
 21
22.160267
 31
0.2
  0
LINE
  8
PLAN_1
 62
5
 10
36.030804
 20
22.160267
 30
0.2
 11
35.808884
 21
22.092947
 31
0.2
  0
LINE
  8
PLAN_1
 62
5
 10
35.808884
 20
22.092947
 30
0.2
 11
35.604359
 21
21.983627
 31
0.2
  0
LINE
  8
PLAN_1
 62
5
 10
35.604359
 20
21.983627
 30
0.2
 11
35.425091
 21
21.836506
 31
0.2
  0
LINE
  8
PLAN_1
 62
5
 10
35.425091
 20
21.836506
 30
0.2
 11
35.277969
 21
21.657238
 31
0.2
  0
LINE
  8
PLAN_1
 62
5
 10
35.277969
 20
21.657238
 30
0.2
 11
35.168648
 21
21.452713
 31
0.2
  0
LINE
  8
PLAN_1
 62
5
 10
35.168648
 20
21.452713
 30
0.2
 11
35.101326
 21
21.230789
 31
0.2
  0
LINE
  8
PLAN_1
 62
5
 10
35.101326
 20
21.230789
 30
0.2
 11
35.078598
 21
20.999998
 31
0.2
  0
LINE
  8
PLAN_1
 62
5
 10
35.078598
 20
20.999998
 30
0.2
 11
35.101326
 21
20.769207
 31
0.2
  0
LINE
  8
PLAN_1
 62
5
 10
35.101326
 20
20.769207
 30
0.2
 11
35.168648
 21
20.547283
 31
0.2
  0
LINE
  8
PLAN_1
 62
5
 10
35.168648
 20
20.547283
 30
0.2
 11
35.277969
 21
20.342758
 31
0.2
  0
LINE
  8
PLAN_1
 62
5
 10
35.277969
 20
20.342758
 30
0.2
 11
35.425091
 21
20.16349
 31
0.2
  0
LINE
  8
PLAN_1
 62
5
 10
35.425091
 20
20.16349
 30
0.2
 11
35.586597
 21
20.030945
 31
0.2
  0
LINE
  8
PLAN_1
 62
5
 10
35.586597
 20
20.030945
 30
0.2
 11
35.586597
 21
15.939594
 31
0.2
  0
LINE
  8
PLAN_1
 62
5
 10
35.586597
 20
15.939594
 30
0.2
 11
34.809525
 21
15.162519
 31
0.2
  0
LINE
  8
PLAN_1
 62
5
 10
34.809525
 20
15.162519
 30
0.2
 11
34.601601
 21
15.182998
 31
0.2
  0
LINE
  8
PLAN_1
 62
5
 10
34.601601
 20
15.182998
 30
0.2
 11
34.370808
 21
15.160267
 31
0.2
  0
LINE
  8
PLAN_1
 62
5
 10
34.370808
 20
15.160267
 30
0.2
 11
34.148888
 21
15.092948
 31
0.2
  0
LINE
  8
PLAN_1
 62
5
 10
34.148888
 20
15.092948
 30
0.2
 11
33.944363
 21
14.983626
 31
0.2
  0
LINE
  8
PLAN_1
 62
5
 10
33.944363
 20
14.983626
 30
0.2
 11
33.765095
 21
14.836506
 31
0.2
  0
LINE
  8
PLAN_1
 62
5
 10
33.765095
 20
14.836506
 30
0.2
 11
33.632549
 21
14.674998
 31
0.2
  0
LINE
  8
PLAN_1
 62
5
 10
33.632549
 20
14.674998
 30
0.2
 11
30.570652
 21
14.674998
 31
0.2
  0
LINE
  8
PLAN_1
 62
5
 10
30.570652
 20
14.674998
 30
0.2
 11
30.438107
 21
14.836506
 31
0.2
  0
LINE
  8
PLAN_1
 62
5
 10
30.438107
 20
14.836506
 30
0.2
 11
30.258839
 21
14.983626
 31
0.2
  0
LINE
  8
PLAN_1
 62
5
 10
30.258839
 20
14.983626
 30
0.2
 11
30.054314
 21
15.092948
 31
0.2
  0
LINE
  8
PLAN_1
 62
5
 10
30.054314
 20
15.092948
 30
0.2
 11
29.83239
 21
15.160267
 31
0.2
  0
LINE
  8
PLAN_1
 62
5
 10
29.83239
 20
15.160267
 30
0.2
 11
29.601599
 21
15.182998
 31
0.2
  0
LINE
  8
PLAN_1
 62
5
 10
29.601599
 20
15.182998
 30
0.2
 11
29.370808
 21
15.160267
 31
0.2
  0
LINE
  8
PLAN_1
 62
5
 10
29.370808
 20
15.160267
 30
0.2
 11
29.148884
 21
15.092948
 31
0.2
  0
LINE
  8
PLAN_1
 62
5
 10
29.148884
 20
15.092948
 30
0.2
 11
28.944359
 21
14.983626
 31
0.2
  0
LINE
  8
PLAN_1
 62
5
 10
28.944359
 20
14.983626
 30
0.2
 11
28.765091
 21
14.836506
 31
0.2
  0
LINE
  8
PLAN_1
 62
5
 10
28.765091
 20
14.836506
 30
0.2
 11
28.632545
 21
14.674998
 31
0.2
  0
LINE
  8
PLAN_1
 62
5
 10
28.632545
 20
14.674998
 30
0.2
 11
25.383423
 21
14.674998
 31
0.2
  0
LINE
  8
PLAN_1
 62
5
 10
25.383423
 20
14.674998
 30
0.2
 11
25.316156
 21
14.677719
 31
0.2
  0
LINE
  8
PLAN_1
 62
5
 10
25.316156
 20
14.677719
 30
0.2
 11
25.252649
 21
14.887073
 31
0.2
  0
LINE
  8
PLAN_1
 62
5
 10
25.252649
 20
14.887073
 30
0.2
 11
25.149519
 21
15.080014
 31
0.2
  0
LINE
  8
PLAN_1
 62
5
 10
25.149519
 20
15.080014
 30
0.2
 11
25.010731
 21
15.249129
 31
0.2
  0
LINE
  8
PLAN_1
 62
5
 10
25.010731
 20
15.249129
 30
0.2
 11
24.841616
 21
15.387918
 31
0.2
  0
LINE
  8
PLAN_1
 62
5
 10
24.841616
 20
15.387918
 30
0.2
 11
24.648674
 21
15.491048
 31
0.2
  0
LINE
  8
PLAN_1
 62
5
 10
24.648674
 20
15.491048
 30
0.2
 11
24.43932
 21
15.554555
 31
0.2
  0
LINE
  8
PLAN_1
 62
5
 10
24.43932
 20
15.554555
 30
0.2
 11
24.2216
 21
15.575998
 31
0.2
  0
LINE
  8
PLAN_1
 62
5
 10
24.2216
 20
15.575998
 30
0.2
 11
24.00388
 21
15.554555
 31
0.2
  0
LINE
  8
PLAN_1
 62
5
 10
24.00388
 20
15.554555
 30
0.2
 11
23.794525
 21
15.491048
 31
0.2
  0
LINE
  8
PLAN_1
 62
5
 10
23.794525
 20
15.491048
 30
0.2
 11
23.601583
 21
15.387918
 31
0.2
  0
LINE
  8
PLAN_1
 62
5
 10
23.601583
 20
15.387918
 30
0.2
 11
23.432468
 21
15.249129
 31
0.2
  0
LINE
  8
PLAN_1
 62
5
 10
23.432468
 20
15.249129
 30
0.2
 11
23.29368
 21
15.080014
 31
0.2
  0
LINE
  8
PLAN_1
 62
5
 10
23.29368
 20
15.080014
 30
0.2
 11
23.19055
 21
14.887073
 31
0.2
  0
LINE
  8
PLAN_1
 62
5
 10
23.19055
 20
14.887073
 30
0.2
 11
23.127043
 21
14.677719
 31
0.2
  0
LINE
  8
PLAN_1
 62
5
 10
23.127043
 20
14.677719
 30
0.2
 11
23.1056
 21
14.459998
 31
0.2
  0
LINE
  8
PLAN_1
 62
5
 10
23.1056
 20
14.459998
 30
0.2
 11
23.127043
 21
14.242277
 31
0.2
  0
LINE
  8
PLAN_1
 62
5
 10
23.127043
 20
14.242277
 30
0.2
 11
23.19055
 21
14.032924
 31
0.2
  0
LINE
  8
PLAN_1
 62
5
 10
23.19055
 20
14.032924
 30
0.2
 11
23.29368
 21
13.839982
 31
0.2
  0
LINE
  8
PLAN_1
 62
5
 10
23.29368
 20
13.839982
 30
0.2
 11
23.432468
 21
13.670867
 31
0.2
  0
LINE
  8
PLAN_1
 62
5
 10
23.432468
 20
13.670867
 30
0.2
 11
23.601583
 21
13.532078
 31
0.2
  0
LINE
  8
PLAN_1
 62
5
 10
23.601583
 20
13.532078
 30
0.2
 11
23.794525
 21
13.428948
 31
0.2
  0
LINE
  8
PLAN_1
 62
5
 10
23.794525
 20
13.428948
 30
0.2
 11
24.00388
 21
13.365441
 31
0.2
  0
LINE
  8
PLAN_1
 62
5
 10
24.00388
 20
13.365441
 30
0.2
 11
24.2216
 21
13.343998
 31
0.2
  0
LINE
  8
PLAN_1
 62
5
 10
24.2216
 20
13.343998
 30
0.2
 11
24.43932
 21
13.365441
 31
0.2
  0
LINE
  8
PLAN_1
 62
5
 10
24.43932
 20
13.365441
 30
0.2
 11
24.564791
 21
13.403502
 31
0.2
  0
LINE
  8
PLAN_1
 62
5
 10
24.564791
 20
13.403502
 30
0.2
 11
24.563002
 21
13.403679
 31
0.2
  0
LINE
  8
PLAN_1
 62
5
 10
24.563002
 20
13.403679
 30
0.2
 11
24.681618
 21
13.391998
 31
0.2
  0
LINE
  8
PLAN_1
 62
5
 10
24.681618
 20
13.391998
 30
0.2
 11
28.667257
 21
13.391998
 31
0.2
  0
LINE
  8
PLAN_1
 62
5
 10
28.667257
 20
13.391998
 30
0.2
 11
28.673679
 21
13.379982
 31
0.2
  0
LINE
  8
PLAN_1
 62
5
 10
28.673679
 20
13.379982
 30
0.2
 11
28.812468
 21
13.210867
 31
0.2
  0
LINE
  8
PLAN_1
 62
5
 10
28.812468
 20
13.210867
 30
0.2
 11
28.981583
 21
13.072078
 31
0.2
  0
LINE
  8
PLAN_1
 62
5
 10
28.981583
 20
13.072078
 30
0.2
 11
29.174524
 21
12.968948
 31
0.2
  0
LINE
  8
PLAN_1
 62
5
 10
29.174524
 20
12.968948
 30
0.2
 11
29.383879
 21
12.905441
 31
0.2
  0
LINE
  8
PLAN_1
 62
5
 10
29.383879
 20
12.905441
 30
0.2
 11
29.601599
 21
12.883998
 31
0.2
  0
LINE
  8
PLAN_1
 62
5
 10
29.601599
 20
12.883998
 30
0.2
 11
29.819319
 21
12.905441
 31
0.2
  0
LINE
  8
PLAN_1
 62
5
 10
29.819319
 20
12.905441
 30
0.2
 11
30.028673
 21
12.968948
 31
0.2
  0
LINE
  8
PLAN_1
 62
5
 10
30.028673
 20
12.968948
 30
0.2
 11
30.221615
 21
13.072078
 31
0.2
  0
LINE
  8
PLAN_1
 62
5
 10
30.221615
 20
13.072078
 30
0.2
 11
30.39073
 21
13.210867
 31
0.2
  0
LINE
  8
PLAN_1
 62
5
 10
30.39073
 20
13.210867
 30
0.2
 11
30.529518
 21
13.379982
 31
0.2
  0
LINE
  8
PLAN_1
 62
5
 10
30.529518
 20
13.379982
 30
0.2
 11
30.53594
 21
13.391998
 31
0.2
  0
LINE
  8
PLAN_1
 62
5
 10
30.53594
 20
13.391998
 30
0.2
 11
33.667255
 21
13.391998
 31
0.2
  0
LINE
  8
PLAN_1
 62
5
 10
33.667255
 20
13.391998
 30
0.2
 11
33.673679
 21
13.379982
 31
0.2
  0
LINE
  8
PLAN_1
 62
5
 10
33.673679
 20
13.379982
 30
0.2
 11
33.812469
 21
13.210867
 31
0.2
  0
LINE
  8
PLAN_1
 62
5
 10
33.812469
 20
13.210867
 30
0.2
 11
33.981583
 21
13.072078
 31
0.2
  0
LINE
  8
PLAN_1
 62
5
 10
33.981583
 20
13.072078
 30
0.2
 11
34.174526
 21
12.968948
 31
0.2
  0
LINE
  8
PLAN_1
 62
5
 10
34.174526
 20
12.968948
 30
0.2
 11
34.383881
 21
12.905441
 31
0.2
  0
LINE
  8
PLAN_1
 62
5
 10
34.383881
 20
12.905441
 30
0.2
 11
34.601601
 21
12.883998
 31
0.2
  0
LINE
  8
PLAN_1
 62
5
 10
34.601601
 20
12.883998
 30
0.2
 11
34.819321
 21
12.905441
 31
0.2
  0
LINE
  8
PLAN_1
 62
5
 10
34.819321
 20
12.905441
 30
0.2
 11
35.028675
 21
12.968948
 31
0.2
  0
LINE
  8
PLAN_1
 62
5
 10
35.028675
 20
12.968948
 30
0.2
 11
35.221619
 21
13.072078
 31
0.2
  0
LINE
  8
PLAN_1
 62
5
 10
35.221619
 20
13.072078
 30
0.2
 11
35.390732
 21
13.210867
 31
0.2
  0
LINE
  8
PLAN_1
 62
5
 10
35.390732
 20
13.210867
 30
0.2
 11
35.529522
 21
13.379982
 31
0.2
  0
LINE
  8
PLAN_1
 62
5
 10
35.529522
 20
13.379982
 30
0.2
 11
35.632648
 21
13.572924
 31
0.2
  0
LINE
  8
PLAN_1
 62
5
 10
35.632648
 20
13.572924
 30
0.2
 11
35.696156
 21
13.782277
 31
0.2
  0
LINE
  8
PLAN_1
 62
5
 10
35.696156
 20
13.782277
 30
0.2
 11
35.717602
 21
13.999998
 31
0.2
  0
LINE
  8
PLAN_1
 62
5
 10
35.717602
 20
13.999998
 30
0.2
 11
35.696156
 21
14.217719
 31
0.2
  0
LINE
  8
PLAN_1
 62
5
 10
35.696156
 20
14.217719
 30
0.2
 11
35.6922
 21
14.230759
 31
0.2
  0
LINE
  8
PLAN_1
 62
5
 10
35.6922
 20
14.230759
 30
0.2
 11
36.691517
 21
15.230078
 31
0.2
  0
LINE
  8
PLAN_1
 62
5
 10
36.691517
 20
15.230078
 30
0.2
 11
36.767132
 21
15.322211
 31
0.2
  0
LINE
  8
PLAN_1
 62
5
 10
36.767132
 20
15.322211
 30
0.2
 11
36.823315
 21
15.427326
 31
0.2
  0
LINE
  8
PLAN_1
 62
5
 10
36.823315
 20
15.427326
 30
0.2
 11
36.857914
 21
15.541383
 31
0.2
  0
LINE
  8
PLAN_1
 62
5
 10
36.857914
 20
15.541383
 30
0.2
 11
36.869598
 21
15.659998
 31
0.2
  0
LINE
  8
PLAN_1
 62
5
 10
36.869598
 20
15.659998
 30
0.2
 11
36.869598
 21
20.065657
 31
0.2
  0
LINE
  8
PLAN_1
 62
5
 10
36.869598
 20
20.065657
 30
0.2
 11
36.881615
 21
20.072079
 31
0.2
  0
LINE
  8
PLAN_1
 62
5
 10
36.881615
 20
20.072079
 30
0.2
 11
37.050728
 21
20.210867
 31
0.2
  0
LINE
  8
PLAN_1
 62
5
 10
37.050728
 20
20.210867
 30
0.2
 11
37.189518
 21
20.379982
 31
0.2
  0
LINE
  8
PLAN_1
 62
5
 10
37.189518
 20
20.379982
 30
0.2
 11
37.292645
 21
20.572924
 31
0.2
  0
LINE
  8
PLAN_1
 62
5
 10
37.292645
 20
20.572924
 30
0.2
 11
37.356152
 21
20.782278
 31
0.2
  0
LINE
  8
PLAN_1
 62
5
 10
37.356152
 20
20.782278
 30
0.2
 11
37.377598
 21
20.999998
 31
0.2
  0
LINE
  8
PLAN_1
 62
5
 10
37.377598
 20
20.999998
 30
0.2
 11
37.356152
 21
21.217718
 31
0.2
  0
LINE
  8
PLAN_1
 62
5
 10
37.356152
 20
21.217718
 30
0.2
 11
37.292645
 21
21.427073
 31
0.2
  0
LINE
  8
PLAN_1
 62
5
 10
37.292645
 20
21.427073
 30
0.2
 11
37.189518
 21
21.620014
 31
0.2
  0
LINE
  8
PLAN_1
 62
5
 10
37.189518
 20
21.620014
 30
0.2
 11
37.050728
 21
21.789129
 31
0.2
  0
LINE
  8
PLAN_1
 62
5
 10
37.050728
 20
21.789129
 30
0.2
 11
36.881615
 21
21.927917
 31
0.2
  0
LINE
  8
PLAN_1
 62
5
 10
36.881615
 20
21.927917
 30
0.2
 11
36.688671
 21
22.031048
 31
0.2
  0
LINE
  8
PLAN_1
 62
5
 10
36.688671
 20
22.031048
 30
0.2
 11
36.479317
 21
22.094555
 31
0.2
  0
LINE
  8
PLAN_1
 62
5
 10
36.479317
 20
22.094555
 30
0.2
 11
36.261597
 21
22.115997
 31
0.2
  0
LINE
  8
PLAN_1
 62
5
 10
36.261597
 20
22.115997
 30
0.2
 11
36.043877
 21
22.094555
 31
0.2
  0
LINE
  8
PLAN_1
 62
5
 10
36.043877
 20
22.094555
 30
0.2
 11
35.834522
 21
22.031048
 31
0.2
  0
LINE
  8
PLAN_1
 62
5
 10
35.834522
 20
22.031048
 30
0.2
 11
35.641579
 21
21.927917
 31
0.2
  0
LINE
  8
PLAN_1
 62
5
 10
35.641579
 20
21.927917
 30
0.2
 11
35.472466
 21
21.789129
 31
0.2
  0
LINE
  8
PLAN_1
 62
5
 10
35.472466
 20
21.789129
 30
0.2
 11
35.333675
 21
21.620014
 31
0.2
  0
LINE
  8
PLAN_1
 62
5
 10
35.333675
 20
21.620014
 30
0.2
 11
35.230549
 21
21.427073
 31
0.2
  0
LINE
  8
PLAN_1
 62
5
 10
35.230549
 20
21.427073
 30
0.2
 11
35.167042
 21
21.217718
 31
0.2
  0
LINE
  8
PLAN_1
 62
5
 10
35.167042
 20
21.217718
 30
0.2
 11
35.145596
 21
20.999998
 31
0.2
  0
LINE
  8
PLAN_1
 62
5
 10
35.145596
 20
20.999998
 30
0.2
 11
35.167042
 21
20.782278
 31
0.2
  0
LINE
  8
PLAN_1
 62
5
 10
35.167042
 20
20.782278
 30
0.2
 11
35.230549
 21
20.572924
 31
0.2
  0
LINE
  8
PLAN_1
 62
5
 10
35.230549
 20
20.572924
 30
0.2
 11
35.333675
 21
20.379982
 31
0.2
  0
LINE
  8
PLAN_1
 62
5
 10
35.333675
 20
20.379982
 30
0.2
 11
35.472466
 21
20.210867
 31
0.2
  0
LINE
  8
PLAN_1
 62
5
 10
35.472466
 20
20.210867
 30
0.2
 11
35.641579
 21
20.072079
 31
0.2
  0
LINE
  8
PLAN_1
 62
5
 10
35.641579
 20
20.072079
 30
0.2
 11
35.653595
 21
20.065657
 31
0.2
  0
LINE
  8
PLAN_1
 62
5
 10
35.653595
 20
20.065657
 30
0.2
 11
35.653595
 21
15.911837
 31
0.2
  0
LINE
  8
PLAN_1
 62
5
 10
35.653595
 20
15.911837
 30
0.2
 11
34.832359
 21
15.090599
 31
0.2
  0
LINE
  8
PLAN_1
 62
5
 10
34.832359
 20
15.090599
 30
0.2
 11
34.819321
 21
15.094555
 31
0.2
  0
LINE
  8
PLAN_1
 62
5
 10
34.819321
 20
15.094555
 30
0.2
 11
34.601601
 21
15.115998
 31
0.2
  0
LINE
  8
PLAN_1
 62
5
 10
34.601601
 20
15.115998
 30
0.2
 11
34.383881
 21
15.094555
 31
0.2
  0
LINE
  8
PLAN_1
 62
5
 10
34.383881
 20
15.094555
 30
0.2
 11
34.174526
 21
15.031048
 31
0.2
  0
LINE
  8
PLAN_1
 62
5
 10
34.174526
 20
15.031048
 30
0.2
 11
33.981583
 21
14.927918
 31
0.2
  0
LINE
  8
PLAN_1
 62
5
 10
33.981583
 20
14.927918
 30
0.2
 11
33.812469
 21
14.789129
 31
0.2
  0
LINE
  8
PLAN_1
 62
5
 10
33.812469
 20
14.789129
 30
0.2
 11
33.673679
 21
14.620014
 31
0.2
  0
LINE
  8
PLAN_1
 62
5
 10
33.673679
 20
14.620014
 30
0.2
 11
33.667255
 21
14.607998
 31
0.2
  0
LINE
  8
PLAN_1
 62
5
 10
33.667255
 20
14.607998
 30
0.2
 11
30.53594
 21
14.607998
 31
0.2
  0
LINE
  8
PLAN_1
 62
5
 10
30.53594
 20
14.607998
 30
0.2
 11
30.529518
 21
14.620014
 31
0.2
  0
LINE
  8
PLAN_1
 62
5
 10
30.529518
 20
14.620014
 30
0.2
 11
30.39073
 21
14.789129
 31
0.2
  0
LINE
  8
PLAN_1
 62
5
 10
30.39073
 20
14.789129
 30
0.2
 11
30.221615
 21
14.927918
 31
0.2
  0
LINE
  8
PLAN_1
 62
5
 10
30.221615
 20
14.927918
 30
0.2
 11
30.028673
 21
15.031048
 31
0.2
  0
LINE
  8
PLAN_1
 62
5
 10
30.028673
 20
15.031048
 30
0.2
 11
29.819319
 21
15.094555
 31
0.2
  0
LINE
  8
PLAN_1
 62
5
 10
29.819319
 20
15.094555
 30
0.2
 11
29.601599
 21
15.115998
 31
0.2
  0
LINE
  8
PLAN_1
 62
5
 10
29.601599
 20
15.115998
 30
0.2
 11
29.383879
 21
15.094555
 31
0.2
  0
LINE
  8
PLAN_1
 62
5
 10
29.383879
 20
15.094555
 30
0.2
 11
29.174524
 21
15.031048
 31
0.2
  0
LINE
  8
PLAN_1
 62
5
 10
29.174524
 20
15.031048
 30
0.2
 11
28.981583
 21
14.927918
 31
0.2
  0
LINE
  8
PLAN_1
 62
5
 10
28.981583
 20
14.927918
 30
0.2
 11
28.812468
 21
14.789129
 31
0.2
  0
LINE
  8
PLAN_1
 62
5
 10
28.812468
 20
14.789129
 30
0.2
 11
28.673679
 21
14.620014
 31
0.2
  0
LINE
  8
PLAN_1
 62
5
 10
28.673679
 20
14.620014
 30
0.2
 11
28.667257
 21
14.607998
 31
0.2
  0
LINE
  8
PLAN_1
 62
5
 10
28.667257
 20
14.607998
 30
0.2
 11
25.323023
 21
14.607998
 31
0.2
  0
LINE
  8
PLAN_1
 62
5
 10
25.323023
 20
14.607998
 30
0.2
 11
25.383423
 21
14.674998
 31
0.2
  0
LINE
  8
PLAN_1
 62
5
 10
25.383423
 20
14.674998
 30
0.2
 11
25.381868
 21
14.69079
 31
0.2
  0
LINE
  8
PLAN_1
 62
5
 10
25.381868
 20
14.69079
 30
0.2
 11
25.314548
 21
14.912713
 31
0.2
  0
LINE
  8
PLAN_1
 62
5
 10
25.314548
 20
14.912713
 30
0.2
 11
25.205229
 21
15.117238
 31
0.2
  0
LINE
  8
PLAN_1
 62
5
 10
25.205229
 20
15.117238
 30
0.2
 11
25.058107
 21
15.296506
 31
0.2
  0
LINE
  8
PLAN_1
 62
5
 10
25.058107
 20
15.296506
 30
0.2
 11
24.878839
 21
15.443626
 31
0.2
  0
LINE
  8
PLAN_1
 62
5
 10
24.878839
 20
15.443626
 30
0.2
 11
24.674314
 21
15.552948
 31
0.2
  0
LINE
  8
PLAN_1
 62
5
 10
24.674314
 20
15.552948
 30
0.2
 11
24.452391
 21
15.620267
 31
0.2
  0
LINE
  8
PLAN_1
 62
5
 10
24.452391
 20
15.620267
 30
0.2
 11
24.2216
 21
15.642998
 31
0.2
  0
LINE
  8
PLAN_1
 62
5
 10
24.2216
 20
15.642998
 30
0.2
 11
23.990808
 21
15.620267
 31
0.2
  0
LINE
  8
PLAN_1
 62
5
 10
23.990808
 20
15.620267
 30
0.2
 11
23.768885
 21
15.552948
 31
0.2
  0
LINE
  8
PLAN_1
 62
5
 10
23.768885
 20
15.552948
 30
0.2
 11
23.56436
 21
15.443626
 31
0.2
  0
LINE
  8
PLAN_1
 62
5
 10
23.56436
 20
15.443626
 30
0.2
 11
23.385092
 21
15.296506
 31
0.2
  0
LINE
  8
PLAN_1
 62
5
 10
23.385092
 20
15.296506
 30
0.2
 11
23.23797
 21
15.117238
 31
0.2
  0
LINE
  8
PLAN_1
 62
5
 10
23.23797
 20
15.117238
 30
0.2
 11
23.128651
 21
14.912713
 31
0.2
  0
LINE
  8
PLAN_1
 62
5
 10
23.128651
 20
14.912713
 30
0.2
 11
23.061331
 21
14.69079
 31
0.2
  0
LINE
  8
PLAN_1
 62
5
 10
23.061331
 20
14.69079
 30
0.2
 11
23.038599
 21
14.459998
 31
0.2
  0
LINE
  8
PLAN_1
 62
5
 10
23.038599
 20
14.459998
 30
0.2
 11
23.061331
 21
14.229206
 31
0.2
  0
LINE
  8
PLAN_1
 62
5
 10
23.061331
 20
14.229206
 30
0.2
 11
23.128651
 21
14.007283
 31
0.2
  0
LINE
  8
PLAN_1
 62
5
 10
23.128651
 20
14.007283
 30
0.2
 11
23.23797
 21
13.802758
 31
0.2
  0
LINE
  8
PLAN_1
 62
5
 10
23.23797
 20
13.802758
 30
0.2
 11
23.385092
 21
13.62349
 31
0.2
  0
LINE
  8
PLAN_1
 62
5
 10
23.385092
 20
13.62349
 30
0.2
 11
23.56436
 21
13.47637
 31
0.2
  0
LINE
  8
PLAN_1
 62
5
 10
23.56436
 20
13.47637
 30
0.2
 11
23.768885
 21
13.367048
 31
0.2
  0
LINE
  8
PLAN_1
 62
5
 10
23.768885
 20
13.367048
 30
0.2
 11
23.990808
 21
13.299729
 31
0.2
  0
LINE
  8
PLAN_1
 62
5
 10
23.990808
 20
13.299729
 30
0.2
 11
24.2216
 21
13.276999
 31
0.2
  0
LINE
  8
PLAN_1
 62
5
 10
24.2216
 20
13.276999
 30
0.2
 11
24.452391
 21
13.299729
 31
0.2
  0
LINE
  8
PLAN_1
 62
5
 10
24.452391
 20
13.299729
 30
0.2
 11
24.571457
 21
13.335847
 31
0.2
  0
LINE
  8
PLAN_1
 62
5
 10
24.571457
 20
13.335847
 30
0.2
 11
24.681618
 21
13.324998
 31
0.2
  0
LINE
  8
PLAN_1
 62
5
 10
24.681618
 20
13.324998
 30
0.2
 11
28.632545
 21
13.324998
 31
0.2
  0
LINE
  8
PLAN_1
 62
5
 10
28.632545
 20
13.324998
 30
0.2
 11
28.765091
 21
13.16349
 31
0.2
  0
LINE
  8
PLAN_1
 62
5
 10
28.765091
 20
13.16349
 30
0.2
 11
28.944359
 21
13.01637
 31
0.2
  0
LINE
  8
PLAN_1
 62
5
 10
28.944359
 20
13.01637
 30
0.2
 11
29.148884
 21
12.907048
 31
0.2
  0
LINE
  8
PLAN_1
 62
5
 10
29.148884
 20
12.907048
 30
0.2
 11
29.370808
 21
12.839729
 31
0.2
  0
LINE
  8
PLAN_1
 62
5
 10
29.370808
 20
12.839729
 30
0.2
 11
29.601599
 21
12.816998
 31
0.2
  0
LINE
  8
PLAN_1
 62
5
 10
29.601599
 20
12.816998
 30
0.2
 11
29.83239
 21
12.839729
 31
0.2
  0
LINE
  8
PLAN_1
 62
5
 10
29.83239
 20
12.839729
 30
0.2
 11
30.054314
 21
12.907048
 31
0.2
  0
LINE
  8
PLAN_1
 62
5
 10
30.054314
 20
12.907048
 30
0.2
 11
30.258839
 21
13.016369
 31
0.2
  0
LINE
  8
PLAN_1
 62
5
 10
30.258839
 20
13.016369
 30
0.2
 11
30.438107
 21
13.16349
 31
0.2
  0
LINE
  8
PLAN_1
 62
5
 10
30.438107
 20
13.16349
 30
0.2
 11
30.570652
 21
13.324998
 31
0.2
  0
LINE
  8
PLAN_1
 62
5
 10
30.570652
 20
13.324998
 30
0.2
 11
33.632549
 21
13.324998
 31
0.2
  0
LINE
  8
PLAN_1
 62
5
 10
33.632549
 20
13.324998
 30
0.2
 11
33.765095
 21
13.16349
 31
0.2
  0
LINE
  8
PLAN_1
 62
5
 10
33.765095
 20
13.16349
 30
0.2
 11
33.944363
 21
13.01637
 31
0.2
  0
LINE
  8
PLAN_1
 62
5
 10
33.944363
 20
13.01637
 30
0.2
 11
34.148888
 21
12.907048
 31
0.2
  0
LINE
  8
PLAN_1
 62
5
 10
34.148888
 20
12.907048
 30
0.2
 11
34.370808
 21
12.839729
 31
0.2
  0
LINE
  8
PLAN_1
 62
5
 10
34.370808
 20
12.839729
 30
0.2
 11
34.601601
 21
12.816998
 31
0.2
  0
LINE
  8
PLAN_1
 62
5
 10
34.601601
 20
12.816998
 30
0.2
 11
34.832394
 21
12.839729
 31
0.2
  0
LINE
  8
PLAN_1
 62
5
 10
34.832394
 20
12.839729
 30
0.2
 11
35.054314
 21
12.907048
 31
0.2
  0
LINE
  8
PLAN_1
 62
5
 10
26.66284
 20
18.504988
 30
0.2
 11
26.725218
 21
18.621685
 31
0.2
  0
LINE
  8
PLAN_1
 62
5
 10
26.725218
 20
18.621685
 30
0.2
 11
26.763628
 21
18.748312
 31
0.2
  0
LINE
  8
PLAN_1
 62
5
 10
26.763628
 20
18.748312
 30
0.2
 11
26.776598
 21
18.879997
 31
0.2
  0
LINE
  8
PLAN_1
 62
5
 10
26.776598
 20
18.879997
 30
0.2
 11
26.776598
 21
20.030943
 31
0.2
  0
LINE
  8
PLAN_1
 62
5
 10
26.776598
 20
20.030943
 30
0.2
 11
26.938107
 21
20.16349
 31
0.2
  0
LINE
  8
PLAN_1
 62
5
 10
26.938107
 20
20.16349
 30
0.2
 11
27.085228
 21
20.342758
 31
0.2
  0
LINE
  8
PLAN_1
 62
5
 10
27.085228
 20
20.342758
 30
0.2
 11
27.194548
 21
20.547283
 31
0.2
  0
LINE
  8
PLAN_1
 62
5
 10
27.194548
 20
20.547283
 30
0.2
 11
27.261868
 21
20.769207
 31
0.2
  0
LINE
  8
PLAN_1
 62
5
 10
27.261868
 20
20.769207
 30
0.2
 11
27.284599
 21
20.999998
 31
0.2
  0
LINE
  8
PLAN_1
 62
5
 10
27.284599
 20
20.999998
 30
0.2
 11
27.261868
 21
21.230789
 31
0.2
  0
LINE
  8
PLAN_1
 62
5
 10
27.261868
 20
21.230789
 30
0.2
 11
27.194548
 21
21.452713
 31
0.2
  0
LINE
  8
PLAN_1
 62
5
 10
27.194548
 20
21.452713
 30
0.2
 11
27.085228
 21
21.657238
 31
0.2
  0
LINE
  8
PLAN_1
 62
5
 10
27.085228
 20
21.657238
 30
0.2
 11
26.938107
 21
21.836506
 31
0.2
  0
LINE
  8
PLAN_1
 62
5
 10
26.938107
 20
21.836506
 30
0.2
 11
26.758839
 21
21.983627
 31
0.2
  0
LINE
  8
PLAN_1
 62
5
 10
26.758839
 20
21.983627
 30
0.2
 11
26.554314
 21
22.092947
 31
0.2
  0
LINE
  8
PLAN_1
 62
5
 10
26.554314
 20
22.092947
 30
0.2
 11
26.33239
 21
22.160267
 31
0.2
  0
LINE
  8
PLAN_1
 62
5
 10
26.33239
 20
22.160267
 30
0.2
 11
26.101599
 21
22.182999
 31
0.2
  0
LINE
  8
PLAN_1
 62
5
 10
26.101599
 20
22.182999
 30
0.2
 11
25.870808
 21
22.160267
 31
0.2
  0
LINE
  8
PLAN_1
 62
5
 10
25.870808
 20
22.160267
 30
0.2
 11
25.648884
 21
22.092947
 31
0.2
  0
LINE
  8
PLAN_1
 62
5
 10
25.648884
 20
22.092947
 30
0.2
 11
25.444359
 21
21.983627
 31
0.2
  0
LINE
  8
PLAN_1
 62
5
 10
25.444359
 20
21.983627
 30
0.2
 11
25.265091
 21
21.836506
 31
0.2
  0
LINE
  8
PLAN_1
 62
5
 10
25.265091
 20
21.836506
 30
0.2
 11
25.11797
 21
21.657238
 31
0.2
  0
LINE
  8
PLAN_1
 62
5
 10
25.11797
 20
21.657238
 30
0.2
 11
25.00865
 21
21.452713
 31
0.2
  0
LINE
  8
PLAN_1
 62
5
 10
25.00865
 20
21.452713
 30
0.2
 11
24.94133
 21
21.230789
 31
0.2
  0
LINE
  8
PLAN_1
 62
5
 10
24.94133
 20
21.230789
 30
0.2
 11
24.918598
 21
20.999998
 31
0.2
  0
LINE
  8
PLAN_1
 62
5
 10
24.918598
 20
20.999998
 30
0.2
 11
24.94133
 21
20.769207
 31
0.2
  0
LINE
  8
PLAN_1
 62
5
 10
24.94133
 20
20.769207
 30
0.2
 11
25.00865
 21
20.547283
 31
0.2
  0
LINE
  8
PLAN_1
 62
5
 10
25.00865
 20
20.547283
 30
0.2
 11
25.11797
 21
20.342758
 31
0.2
  0
LINE
  8
PLAN_1
 62
5
 10
25.11797
 20
20.342758
 30
0.2
 11
25.265091
 21
20.16349
 31
0.2
  0
LINE
  8
PLAN_1
 62
5
 10
25.265091
 20
20.16349
 30
0.2
 11
25.4266
 21
20.030943
 31
0.2
  0
LINE
  8
PLAN_1
 62
5
 10
25.4266
 20
20.030943
 30
0.2
 11
25.4266
 21
19.159592
 31
0.2
  0
LINE
  8
PLAN_1
 62
5
 10
25.4266
 20
19.159592
 30
0.2
 11
24.429527
 21
18.162519
 31
0.2
  0
LINE
  8
PLAN_1
 62
5
 10
24.429527
 20
18.162519
 30
0.2
 11
24.43932
 21
18.094555
 31
0.2
  0
LINE
  8
PLAN_1
 62
5
 10
24.43932
 20
18.094555
 30
0.2
 11
24.2216
 21
18.115997
 31
0.2
  0
LINE
  8
PLAN_1
 62
5
 10
24.2216
 20
18.115997
 30
0.2
 11
24.00388
 21
18.094555
 31
0.2
  0
LINE
  8
PLAN_1
 62
5
 10
24.00388
 20
18.094555
 30
0.2
 11
23.990839
 21
18.090599
 31
0.2
  0
LINE
  8
PLAN_1
 62
5
 10
23.990839
 20
18.090599
 30
0.2
 11
22.15152
 21
19.929918
 31
0.2
  0
LINE
  8
PLAN_1
 62
5
 10
22.15152
 20
19.929918
 30
0.2
 11
22.059385
 21
20.005531
 31
0.2
  0
LINE
  8
PLAN_1
 62
5
 10
22.059385
 20
20.005531
 30
0.2
 11
21.954271
 21
20.061716
 31
0.2
  0
LINE
  8
PLAN_1
 62
5
 10
21.954271
 20
20.061716
 30
0.2
 11
21.840214
 21
20.096315
 31
0.2
  0
LINE
  8
PLAN_1
 62
5
 10
21.840214
 20
20.096315
 30
0.2
 11
21.7216
 21
20.107998
 31
0.2
  0
LINE
  8
PLAN_1
 62
5
 10
21.7216
 20
20.107998
 30
0.2
 11
5.217601
 21
20.107998
 31
0.2
  0
LINE
  8
PLAN_1
 62
5
 10
5.217601
 20
20.107998
 30
0.2
 11
5.217601
 21
20.615997
 31
0.2
  0
LINE
  8
PLAN_1
 62
5
 10
5.217601
 20
20.615997
 30
0.2
 11
2.9856
 21
20.615997
 31
0.2
  0
LINE
  8
PLAN_1
 62
5
 10
2.9856
 20
20.615997
 30
0.2
 11
2.9856
 21
18.383999
 31
0.2
  0
LINE
  8
PLAN_1
 62
5
 10
2.9856
 20
18.383999
 30
0.2
 11
5.217601
 21
18.383999
 31
0.2
  0
LINE
  8
PLAN_1
 62
5
 10
5.217601
 20
18.383999
 30
0.2
 11
5.217601
 21
18.891998
 31
0.2
  0
LINE
  8
PLAN_1
 62
5
 10
5.217601
 20
18.891998
 30
0.2
 11
21.469759
 21
18.891998
 31
0.2
  0
LINE
  8
PLAN_1
 62
5
 10
21.469759
 20
18.891998
 30
0.2
 11
23.130999
 21
17.230759
 31
0.2
  0
LINE
  8
PLAN_1
 62
5
 10
23.130999
 20
17.230759
 30
0.2
 11
23.127043
 21
17.217718
 31
0.2
  0
LINE
  8
PLAN_1
 62
5
 10
23.127043
 20
17.217718
 30
0.2
 11
23.1056
 21
16.999998
 31
0.2
  0
LINE
  8
PLAN_1
 62
5
 10
23.1056
 20
16.999998
 30
0.2
 11
23.127043
 21
16.782278
 31
0.2
  0
LINE
  8
PLAN_1
 62
5
 10
23.127043
 20
16.782278
 30
0.2
 11
23.19055
 21
16.572924
 31
0.2
  0
LINE
  8
PLAN_1
 62
5
 10
23.19055
 20
16.572924
 30
0.2
 11
23.29368
 21
16.379982
 31
0.2
  0
LINE
  8
PLAN_1
 62
5
 10
23.29368
 20
16.379982
 30
0.2
 11
23.432468
 21
16.210867
 31
0.2
  0
LINE
  8
PLAN_1
 62
5
 10
23.432468
 20
16.210867
 30
0.2
 11
23.601583
 21
16.072079
 31
0.2
  0
LINE
  8
PLAN_1
 62
5
 10
23.601583
 20
16.072079
 30
0.2
 11
23.794525
 21
15.968948
 31
0.2
  0
LINE
  8
PLAN_1
 62
5
 10
23.794525
 20
15.968948
 30
0.2
 11
24.00388
 21
15.905441
 31
0.2
  0
LINE
  8
PLAN_1
 62
5
 10
24.00388
 20
15.905441
 30
0.2
 11
24.2216
 21
15.883998
 31
0.2
  0
LINE
  8
PLAN_1
 62
5
 10
24.2216
 20
15.883998
 30
0.2
 11
24.43932
 21
15.905441
 31
0.2
  0
LINE
  8
PLAN_1
 62
5
 10
24.43932
 20
15.905441
 30
0.2
 11
24.648674
 21
15.968948
 31
0.2
  0
LINE
  8
PLAN_1
 62
5
 10
24.648674
 20
15.968948
 30
0.2
 11
24.841616
 21
16.072079
 31
0.2
  0
LINE
  8
PLAN_1
 62
5
 10
24.841616
 20
16.072079
 30
0.2
 11
25.010731
 21
16.210867
 31
0.2
  0
LINE
  8
PLAN_1
 62
5
 10
25.010731
 20
16.210867
 30
0.2
 11
25.149519
 21
16.379982
 31
0.2
  0
LINE
  8
PLAN_1
 62
5
 10
25.149519
 20
16.379982
 30
0.2
 11
25.252649
 21
16.572924
 31
0.2
  0
LINE
  8
PLAN_1
 62
5
 10
25.252649
 20
16.572924
 30
0.2
 11
25.316156
 21
16.782278
 31
0.2
  0
LINE
  8
PLAN_1
 62
5
 10
25.316156
 20
16.782278
 30
0.2
 11
25.337599
 21
16.999998
 31
0.2
  0
LINE
  8
PLAN_1
 62
5
 10
25.337599
 20
16.999998
 30
0.2
 11
25.316156
 21
17.217718
 31
0.2
  0
LINE
  8
PLAN_1
 62
5
 10
25.316156
 20
17.217718
 30
0.2
 11
25.312201
 21
17.230759
 31
0.2
  0
LINE
  8
PLAN_1
 62
5
 10
25.312201
 20
17.230759
 30
0.2
 11
26.531519
 21
18.450077
 31
0.2
  0
LINE
  8
PLAN_1
 62
5
 10
26.531519
 20
18.450077
 30
0.2
 11
26.607132
 21
18.54221
 31
0.2
  0
LINE
  8
PLAN_1
 62
5
 10
26.607132
 20
18.54221
 30
0.2
 11
26.663317
 21
18.647326
 31
0.2
  0
LINE
  8
PLAN_1
 62
5
 10
26.663317
 20
18.647326
 30
0.2
 11
26.697916
 21
18.761383
 31
0.2
  0
LINE
  8
PLAN_1
 62
5
 10
26.697916
 20
18.761383
 30
0.2
 11
26.709599
 21
18.879997
 31
0.2
  0
LINE
  8
PLAN_1
 62
5
 10
26.709599
 20
18.879997
 30
0.2
 11
26.709599
 21
20.065657
 31
0.2
  0
LINE
  8
PLAN_1
 62
5
 10
26.709599
 20
20.065657
 30
0.2
 11
26.721615
 21
20.072079
 31
0.2
  0
LINE
  8
PLAN_1
 62
5
 10
26.721615
 20
20.072079
 30
0.2
 11
26.89073
 21
20.210867
 31
0.2
  0
LINE
  8
PLAN_1
 62
5
 10
26.89073
 20
20.210867
 30
0.2
 11
27.029518
 21
20.379982
 31
0.2
  0
LINE
  8
PLAN_1
 62
5
 10
27.029518
 20
20.379982
 30
0.2
 11
27.132648
 21
20.572924
 31
0.2
  0
LINE
  8
PLAN_1
 62
5
 10
27.132648
 20
20.572924
 30
0.2
 11
27.196156
 21
20.782278
 31
0.2
  0
LINE
  8
PLAN_1
 62
5
 10
27.196156
 20
20.782278
 30
0.2
 11
27.217598
 21
20.999998
 31
0.2
  0
LINE
  8
PLAN_1
 62
5
 10
27.217598
 20
20.999998
 30
0.2
 11
27.196156
 21
21.217718
 31
0.2
  0
LINE
  8
PLAN_1
 62
5
 10
27.196156
 20
21.217718
 30
0.2
 11
27.132648
 21
21.427073
 31
0.2
  0
LINE
  8
PLAN_1
 62
5
 10
27.132648
 20
21.427073
 30
0.2
 11
27.029518
 21
21.620014
 31
0.2
  0
LINE
  8
PLAN_1
 62
5
 10
27.029518
 20
21.620014
 30
0.2
 11
26.89073
 21
21.789129
 31
0.2
  0
LINE
  8
PLAN_1
 62
5
 10
26.89073
 20
21.789129
 30
0.2
 11
26.721615
 21
21.927917
 31
0.2
  0
LINE
  8
PLAN_1
 62
5
 10
26.721615
 20
21.927917
 30
0.2
 11
26.528673
 21
22.031048
 31
0.2
  0
LINE
  8
PLAN_1
 62
5
 10
26.528673
 20
22.031048
 30
0.2
 11
26.319319
 21
22.094555
 31
0.2
  0
LINE
  8
PLAN_1
 62
5
 10
26.319319
 20
22.094555
 30
0.2
 11
26.101599
 21
22.115997
 31
0.2
  0
LINE
  8
PLAN_1
 62
5
 10
26.101599
 20
22.115997
 30
0.2
 11
25.883879
 21
22.094555
 31
0.2
  0
LINE
  8
PLAN_1
 62
5
 10
25.883879
 20
22.094555
 30
0.2
 11
25.674524
 21
22.031048
 31
0.2
  0
LINE
  8
PLAN_1
 62
5
 10
25.674524
 20
22.031048
 30
0.2
 11
25.481583
 21
21.927917
 31
0.2
  0
LINE
  8
PLAN_1
 62
5
 10
25.481583
 20
21.927917
 30
0.2
 11
25.312468
 21
21.789129
 31
0.2
  0
LINE
  8
PLAN_1
 62
5
 10
25.312468
 20
21.789129
 30
0.2
 11
25.173679
 21
21.620014
 31
0.2
  0
LINE
  8
PLAN_1
 62
5
 10
25.173679
 20
21.620014
 30
0.2
 11
25.070549
 21
21.427073
 31
0.2
  0
LINE
  8
PLAN_1
 62
5
 10
25.070549
 20
21.427073
 30
0.2
 11
25.007042
 21
21.217718
 31
0.2
  0
LINE
  8
PLAN_1
 62
5
 10
25.007042
 20
21.217718
 30
0.2
 11
24.9856
 21
20.999998
 31
0.2
  0
LINE
  8
PLAN_1
 62
5
 10
24.9856
 20
20.999998
 30
0.2
 11
25.007042
 21
20.782278
 31
0.2
  0
LINE
  8
PLAN_1
 62
5
 10
25.007042
 20
20.782278
 30
0.2
 11
25.070549
 21
20.572924
 31
0.2
  0
LINE
  8
PLAN_1
 62
5
 10
25.070549
 20
20.572924
 30
0.2
 11
25.173679
 21
20.379982
 31
0.2
  0
LINE
  8
PLAN_1
 62
5
 10
25.173679
 20
20.379982
 30
0.2
 11
25.312468
 21
20.210867
 31
0.2
  0
LINE
  8
PLAN_1
 62
5
 10
25.312468
 20
20.210867
 30
0.2
 11
25.481583
 21
20.072079
 31
0.2
  0
LINE
  8
PLAN_1
 62
5
 10
25.481583
 20
20.072079
 30
0.2
 11
25.493599
 21
20.065657
 31
0.2
  0
LINE
  8
PLAN_1
 62
5
 10
25.493599
 20
20.065657
 30
0.2
 11
25.493599
 21
19.131838
 31
0.2
  0
LINE
  8
PLAN_1
 62
5
 10
25.493599
 20
19.131838
 30
0.2
 11
24.45236
 21
18.090599
 31
0.2
  0
LINE
  8
PLAN_1
 62
5
 10
24.45236
 20
18.090599
 30
0.2
 11
24.429527
 21
18.162519
 31
0.2
  0
LINE
  8
PLAN_1
 62
5
 10
24.429527
 20
18.162519
 30
0.2
 11
24.2216
 21
18.182999
 31
0.2
  0
LINE
  8
PLAN_1
 62
5
 10
24.2216
 20
18.182999
 30
0.2
 11
24.013672
 21
18.162519
 31
0.2
  0
LINE
  8
PLAN_1
 62
5
 10
24.013672
 20
18.162519
 30
0.2
 11
22.198896
 21
19.977295
 31
0.2
  0
LINE
  8
PLAN_1
 62
5
 10
22.198896
 20
19.977295
 30
0.2
 11
22.096609
 21
20.061239
 31
0.2
  0
LINE
  8
PLAN_1
 62
5
 10
22.096609
 20
20.061239
 30
0.2
 11
21.97991
 21
20.123617
 31
0.2
  0
LINE
  8
PLAN_1
 62
5
 10
21.97991
 20
20.123617
 30
0.2
 11
21.853285
 21
20.162027
 31
0.2
  0
LINE
  8
PLAN_1
 62
5
 10
21.853285
 20
20.162027
 30
0.2
 11
21.7216
 21
20.174997
 31
0.2
  0
LINE
  8
PLAN_1
 62
5
 10
21.7216
 20
20.174997
 30
0.2
 11
5.284601
 21
20.174997
 31
0.2
  0
LINE
  8
PLAN_1
 62
5
 10
5.284601
 20
20.174997
 30
0.2
 11
5.284601
 21
20.682999
 31
0.2
  0
LINE
  8
PLAN_1
 62
5
 10
5.284601
 20
20.682999
 30
0.2
 11
2.918601
 21
20.682999
 31
0.2
  0
LINE
  8
PLAN_1
 62
5
 10
2.918601
 20
20.682999
 30
0.2
 11
2.918601
 21
18.316998
 31
0.2
  0
LINE
  8
PLAN_1
 62
5
 10
2.918601
 20
18.316998
 30
0.2
 11
5.284601
 21
18.316998
 31
0.2
  0
LINE
  8
PLAN_1
 62
5
 10
5.284601
 20
18.316998
 30
0.2
 11
5.284601
 21
18.824999
 31
0.2
  0
LINE
  8
PLAN_1
 62
5
 10
5.284601
 20
18.824999
 30
0.2
 11
21.442005
 21
18.824999
 31
0.2
  0
LINE
  8
PLAN_1
 62
5
 10
21.442005
 20
18.824999
 30
0.2
 11
23.059078
 21
17.207926
 31
0.2
  0
LINE
  8
PLAN_1
 62
5
 10
23.059078
 20
17.207926
 30
0.2
 11
23.038599
 21
16.999998
 31
0.2
  0
LINE
  8
PLAN_1
 62
5
 10
23.038599
 20
16.999998
 30
0.2
 11
23.061331
 21
16.769207
 31
0.2
  0
LINE
  8
PLAN_1
 62
5
 10
23.061331
 20
16.769207
 30
0.2
 11
23.128651
 21
16.547283
 31
0.2
  0
LINE
  8
PLAN_1
 62
5
 10
23.128651
 20
16.547283
 30
0.2
 11
23.23797
 21
16.342758
 31
0.2
  0
LINE
  8
PLAN_1
 62
5
 10
23.23797
 20
16.342758
 30
0.2
 11
23.385092
 21
16.16349
 31
0.2
  0
LINE
  8
PLAN_1
 62
5
 10
23.385092
 20
16.16349
 30
0.2
 11
23.56436
 21
16.016369
 31
0.2
  0
LINE
  8
PLAN_1
 62
5
 10
23.56436
 20
16.016369
 30
0.2
 11
23.768885
 21
15.907048
 31
0.2
  0
LINE
  8
PLAN_1
 62
5
 10
23.768885
 20
15.907048
 30
0.2
 11
23.990808
 21
15.839729
 31
0.2
  0
LINE
  8
PLAN_1
 62
5
 10
23.990808
 20
15.839729
 30
0.2
 11
24.2216
 21
15.816998
 31
0.2
  0
LINE
  8
PLAN_1
 62
5
 10
24.2216
 20
15.816998
 30
0.2
 11
24.452391
 21
15.839729
 31
0.2
  0
LINE
  8
PLAN_1
 62
5
 10
24.452391
 20
15.839729
 30
0.2
 11
24.674314
 21
15.907048
 31
0.2
  0
LINE
  8
PLAN_1
 62
5
 10
24.674314
 20
15.907048
 30
0.2
 11
24.878839
 21
16.016369
 31
0.2
  0
LINE
  8
PLAN_1
 62
5
 10
24.878839
 20
16.016369
 30
0.2
 11
25.058107
 21
16.16349
 31
0.2
  0
LINE
  8
PLAN_1
 62
5
 10
25.058107
 20
16.16349
 30
0.2
 11
25.205229
 21
16.342758
 31
0.2
  0
LINE
  8
PLAN_1
 62
5
 10
25.205229
 20
16.342758
 30
0.2
 11
25.314548
 21
16.547283
 31
0.2
  0
LINE
  8
PLAN_1
 62
5
 10
25.314548
 20
16.547283
 30
0.2
 11
25.381868
 21
16.769207
 31
0.2
  0
LINE
  8
PLAN_1
 62
5
 10
25.381868
 20
16.769207
 30
0.2
 11
25.4046
 21
16.999998
 31
0.2
  0
LINE
  8
PLAN_1
 62
5
 10
25.4046
 20
16.999998
 30
0.2
 11
25.384121
 21
17.207926
 31
0.2
  0
LINE
  8
PLAN_1
 62
5
 10
25.384121
 20
17.207926
 30
0.2
 11
26.578896
 21
18.4027
 31
0.2
  0
LINE
  8
PLAN_1
 62
5
 10
26.578896
 20
18.4027
 30
0.2
 11
26.66284
 21
18.504988
 31
0.2
  0
LINE
  8
PLAN_1
 62
5
 10
24.452391
 20
10.540268
 30
0.2
 11
24.2216
 21
10.562999
 31
0.2
  0
LINE
  8
PLAN_1
 62
5
 10
24.2216
 20
10.562999
 30
0.2
 11
23.990808
 21
10.540268
 31
0.2
  0
LINE
  8
PLAN_1
 62
5
 10
23.990808
 20
10.540268
 30
0.2
 11
23.768885
 21
10.472949
 31
0.2
  0
LINE
  8
PLAN_1
 62
5
 10
23.768885
 20
10.472949
 30
0.2
 11
23.56436
 21
10.363627
 31
0.2
  0
LINE
  8
PLAN_1
 62
5
 10
23.56436
 20
10.363627
 30
0.2
 11
23.385092
 21
10.216507
 31
0.2
  0
LINE
  8
PLAN_1
 62
5
 10
23.385092
 20
10.216507
 30
0.2
 11
23.23797
 21
10.037239
 31
0.2
  0
LINE
  8
PLAN_1
 62
5
 10
23.23797
 20
10.037239
 30
0.2
 11
23.128651
 21
9.832714
 31
0.2
  0
LINE
  8
PLAN_1
 62
5
 10
23.128651
 20
9.832714
 30
0.2
 11
23.061331
 21
9.610791
 31
0.2
  0
LINE
  8
PLAN_1
 62
5
 10
23.061331
 20
9.610791
 30
0.2
 11
23.038599
 21
9.379999
 31
0.2
  0
LINE
  8
PLAN_1
 62
5
 10
23.038599
 20
9.379999
 30
0.2
 11
23.061331
 21
9.149207
 31
0.2
  0
LINE
  8
PLAN_1
 62
5
 10
23.061331
 20
9.149207
 30
0.2
 11
23.128651
 21
8.927284
 31
0.2
  0
LINE
  8
PLAN_1
 62
5
 10
23.128651
 20
8.927284
 30
0.2
 11
23.23797
 21
8.722759
 31
0.2
  0
LINE
  8
PLAN_1
 62
5
 10
23.23797
 20
8.722759
 30
0.2
 11
23.385092
 21
8.543491
 31
0.2
  0
LINE
  8
PLAN_1
 62
5
 10
23.385092
 20
8.543491
 30
0.2
 11
23.56436
 21
8.396371
 31
0.2
  0
LINE
  8
PLAN_1
 62
5
 10
23.56436
 20
8.396371
 30
0.2
 11
23.768885
 21
8.287049
 31
0.2
  0
LINE
  8
PLAN_1
 62
5
 10
23.768885
 20
8.287049
 30
0.2
 11
23.990808
 21
8.21973
 31
0.2
  0
LINE
  8
PLAN_1
 62
5
 10
23.990808
 20
8.21973
 30
0.2
 11
24.2216
 21
8.197
 31
0.2
  0
LINE
  8
PLAN_1
 62
5
 10
24.2216
 20
8.197
 30
0.2
 11
24.452391
 21
8.21973
 31
0.2
  0
LINE
  8
PLAN_1
 62
5
 10
24.452391
 20
8.21973
 30
0.2
 11
24.674314
 21
8.287049
 31
0.2
  0
LINE
  8
PLAN_1
 62
5
 10
24.674314
 20
8.287049
 30
0.2
 11
24.878839
 21
8.39637
 31
0.2
  0
LINE
  8
PLAN_1
 62
5
 10
24.878839
 20
8.39637
 30
0.2
 11
25.058107
 21
8.543491
 31
0.2
  0
LINE
  8
PLAN_1
 62
5
 10
25.058107
 20
8.543491
 30
0.2
 11
25.205229
 21
8.722759
 31
0.2
  0
LINE
  8
PLAN_1
 62
5
 10
25.205229
 20
8.722759
 30
0.2
 11
25.314548
 21
8.927284
 31
0.2
  0
LINE
  8
PLAN_1
 62
5
 10
25.314548
 20
8.927284
 30
0.2
 11
25.381868
 21
9.149207
 31
0.2
  0
LINE
  8
PLAN_1
 62
5
 10
25.381868
 20
9.149207
 30
0.2
 11
25.4046
 21
9.379999
 31
0.2
  0
LINE
  8
PLAN_1
 62
5
 10
25.4046
 20
9.379999
 30
0.2
 11
25.316156
 21
9.59772
 31
0.2
  0
LINE
  8
PLAN_1
 62
5
 10
25.316156
 20
9.59772
 30
0.2
 11
25.252649
 21
9.807074
 31
0.2
  0
LINE
  8
PLAN_1
 62
5
 10
25.252649
 20
9.807074
 30
0.2
 11
25.149519
 21
10.000015
 31
0.2
  0
LINE
  8
PLAN_1
 62
5
 10
25.149519
 20
10.000015
 30
0.2
 11
25.010731
 21
10.16913
 31
0.2
  0
LINE
  8
PLAN_1
 62
5
 10
25.010731
 20
10.16913
 30
0.2
 11
24.841616
 21
10.30792
 31
0.2
  0
LINE
  8
PLAN_1
 62
5
 10
24.841616
 20
10.30792
 30
0.2
 11
24.648674
 21
10.411049
 31
0.2
  0
LINE
  8
PLAN_1
 62
5
 10
24.648674
 20
10.411049
 30
0.2
 11
24.43932
 21
10.474556
 31
0.2
  0
LINE
  8
PLAN_1
 62
5
 10
24.43932
 20
10.474556
 30
0.2
 11
24.2216
 21
10.495999
 31
0.2
  0
LINE
  8
PLAN_1
 62
5
 10
24.2216
 20
10.495999
 30
0.2
 11
24.00388
 21
10.474556
 31
0.2
  0
LINE
  8
PLAN_1
 62
5
 10
24.00388
 20
10.474556
 30
0.2
 11
23.794525
 21
10.411049
 31
0.2
  0
LINE
  8
PLAN_1
 62
5
 10
23.794525
 20
10.411049
 30
0.2
 11
23.601583
 21
10.30792
 31
0.2
  0
LINE
  8
PLAN_1
 62
5
 10
23.601583
 20
10.30792
 30
0.2
 11
23.432468
 21
10.16913
 31
0.2
  0
LINE
  8
PLAN_1
 62
5
 10
23.432468
 20
10.16913
 30
0.2
 11
23.29368
 21
10.000015
 31
0.2
  0
LINE
  8
PLAN_1
 62
5
 10
23.29368
 20
10.000015
 30
0.2
 11
23.19055
 21
9.807074
 31
0.2
  0
LINE
  8
PLAN_1
 62
5
 10
23.19055
 20
9.807074
 30
0.2
 11
23.127043
 21
9.59772
 31
0.2
  0
LINE
  8
PLAN_1
 62
5
 10
23.127043
 20
9.59772
 30
0.2
 11
23.1056
 21
9.379999
 31
0.2
  0
LINE
  8
PLAN_1
 62
5
 10
23.1056
 20
9.379999
 30
0.2
 11
23.127043
 21
9.162278
 31
0.2
  0
LINE
  8
PLAN_1
 62
5
 10
23.127043
 20
9.162278
 30
0.2
 11
23.19055
 21
8.952925
 31
0.2
  0
LINE
  8
PLAN_1
 62
5
 10
23.19055
 20
8.952925
 30
0.2
 11
23.29368
 21
8.759983
 31
0.2
  0
LINE
  8
PLAN_1
 62
5
 10
23.29368
 20
8.759983
 30
0.2
 11
23.432468
 21
8.590868
 31
0.2
  0
LINE
  8
PLAN_1
 62
5
 10
23.432468
 20
8.590868
 30
0.2
 11
23.601583
 21
8.452079
 31
0.2
  0
LINE
  8
PLAN_1
 62
5
 10
23.601583
 20
8.452079
 30
0.2
 11
23.794525
 21
8.348949
 31
0.2
  0
LINE
  8
PLAN_1
 62
5
 10
23.794525
 20
8.348949
 30
0.2
 11
24.00388
 21
8.285442
 31
0.2
  0
LINE
  8
PLAN_1
 62
5
 10
24.00388
 20
8.285442
 30
0.2
 11
24.2216
 21
8.263999
 31
0.2
  0
LINE
  8
PLAN_1
 62
5
 10
24.2216
 20
8.263999
 30
0.2
 11
24.43932
 21
8.285442
 31
0.2
  0
LINE
  8
PLAN_1
 62
5
 10
24.43932
 20
8.285442
 30
0.2
 11
24.648674
 21
8.348949
 31
0.2
  0
LINE
  8
PLAN_1
 62
5
 10
24.648674
 20
8.348949
 30
0.2
 11
24.841616
 21
8.452079
 31
0.2
  0
LINE
  8
PLAN_1
 62
5
 10
24.841616
 20
8.452079
 30
0.2
 11
25.010731
 21
8.590868
 31
0.2
  0
LINE
  8
PLAN_1
 62
5
 10
25.010731
 20
8.590868
 30
0.2
 11
25.149519
 21
8.759983
 31
0.2
  0
LINE
  8
PLAN_1
 62
5
 10
25.149519
 20
8.759983
 30
0.2
 11
25.252649
 21
8.952925
 31
0.2
  0
LINE
  8
PLAN_1
 62
5
 10
25.252649
 20
8.952925
 30
0.2
 11
25.316156
 21
9.162278
 31
0.2
  0
LINE
  8
PLAN_1
 62
5
 10
25.316156
 20
9.162278
 30
0.2
 11
25.337599
 21
9.379999
 31
0.2
  0
LINE
  8
PLAN_1
 62
5
 10
25.337599
 20
9.379999
 30
0.2
 11
25.4046
 21
9.379999
 31
0.2
  0
LINE
  8
PLAN_1
 62
5
 10
25.4046
 20
9.379999
 30
0.2
 11
25.381868
 21
9.610791
 31
0.2
  0
LINE
  8
PLAN_1
 62
5
 10
25.381868
 20
9.610791
 30
0.2
 11
25.314548
 21
9.832714
 31
0.2
  0
LINE
  8
PLAN_1
 62
5
 10
25.314548
 20
9.832714
 30
0.2
 11
25.205229
 21
10.037239
 31
0.2
  0
LINE
  8
PLAN_1
 62
5
 10
25.205229
 20
10.037239
 30
0.2
 11
25.058107
 21
10.216507
 31
0.2
  0
LINE
  8
PLAN_1
 62
5
 10
25.058107
 20
10.216507
 30
0.2
 11
24.878839
 21
10.363627
 31
0.2
  0
LINE
  8
PLAN_1
 62
5
 10
24.878839
 20
10.363627
 30
0.2
 11
24.674314
 21
10.472949
 31
0.2
  0
LINE
  8
PLAN_1
 62
5
 10
24.674314
 20
10.472949
 30
0.2
 11
24.452391
 21
10.540268
 31
0.2
  0
LINE
  8
PLAN_1
 62
5
 10
17.761869
 20
9.610791
 30
0.2
 11
17.69455
 21
9.832714
 31
0.2
  0
LINE
  8
PLAN_1
 62
5
 10
17.69455
 20
9.832714
 30
0.2
 11
17.58523
 21
10.037239
 31
0.2
  0
LINE
  8
PLAN_1
 62
5
 10
17.58523
 20
10.037239
 30
0.2
 11
17.438108
 21
10.216507
 31
0.2
  0
LINE
  8
PLAN_1
 62
5
 10
17.438108
 20
10.216507
 30
0.2
 11
17.258841
 21
10.363627
 31
0.2
  0
LINE
  8
PLAN_1
 62
5
 10
17.258841
 20
10.363627
 30
0.2
 11
17.054316
 21
10.472949
 31
0.2
  0
LINE
  8
PLAN_1
 62
5
 10
17.054316
 20
10.472949
 30
0.2
 11
16.832392
 21
10.540268
 31
0.2
  0
LINE
  8
PLAN_1
 62
5
 10
16.832392
 20
10.540268
 30
0.2
 11
16.601601
 21
10.562999
 31
0.2
  0
LINE
  8
PLAN_1
 62
5
 10
16.601601
 20
10.562999
 30
0.2
 11
16.37081
 21
10.540268
 31
0.2
  0
LINE
  8
PLAN_1
 62
5
 10
16.37081
 20
10.540268
 30
0.2
 11
16.148886
 21
10.472949
 31
0.2
  0
LINE
  8
PLAN_1
 62
5
 10
16.148886
 20
10.472949
 30
0.2
 11
15.944361
 21
10.363627
 31
0.2
  0
LINE
  8
PLAN_1
 62
5
 10
15.944361
 20
10.363627
 30
0.2
 11
15.765093
 21
10.216507
 31
0.2
  0
LINE
  8
PLAN_1
 62
5
 10
15.765093
 20
10.216507
 30
0.2
 11
15.617972
 21
10.037239
 31
0.2
  0
LINE
  8
PLAN_1
 62
5
 10
15.617972
 20
10.037239
 30
0.2
 11
15.508651
 21
9.832714
 31
0.2
  0
LINE
  8
PLAN_1
 62
5
 10
15.508651
 20
9.832714
 30
0.2
 11
15.441332
 21
9.610791
 31
0.2
  0
LINE
  8
PLAN_1
 62
5
 10
15.441332
 20
9.610791
 30
0.2
 11
15.418601
 21
9.379999
 31
0.2
  0
LINE
  8
PLAN_1
 62
5
 10
15.418601
 20
9.379999
 30
0.2
 11
15.441332
 21
9.149207
 31
0.2
  0
LINE
  8
PLAN_1
 62
5
 10
15.441332
 20
9.149207
 30
0.2
 11
15.508651
 21
8.927284
 31
0.2
  0
LINE
  8
PLAN_1
 62
5
 10
15.508651
 20
8.927284
 30
0.2
 11
15.617972
 21
8.722759
 31
0.2
  0
LINE
  8
PLAN_1
 62
5
 10
15.617972
 20
8.722759
 30
0.2
 11
15.765093
 21
8.543491
 31
0.2
  0
LINE
  8
PLAN_1
 62
5
 10
15.765093
 20
8.543491
 30
0.2
 11
15.944361
 21
8.396371
 31
0.2
  0
LINE
  8
PLAN_1
 62
5
 10
15.944361
 20
8.396371
 30
0.2
 11
16.148886
 21
8.287049
 31
0.2
  0
LINE
  8
PLAN_1
 62
5
 10
16.148886
 20
8.287049
 30
0.2
 11
16.37081
 21
8.21973
 31
0.2
  0
LINE
  8
PLAN_1
 62
5
 10
16.37081
 20
8.21973
 30
0.2
 11
16.601601
 21
8.197
 31
0.2
  0
LINE
  8
PLAN_1
 62
5
 10
16.601601
 20
8.197
 30
0.2
 11
16.832392
 21
8.21973
 31
0.2
  0
LINE
  8
PLAN_1
 62
5
 10
16.832392
 20
8.21973
 30
0.2
 11
17.054316
 21
8.287049
 31
0.2
  0
LINE
  8
PLAN_1
 62
5
 10
17.054316
 20
8.287049
 30
0.2
 11
17.258841
 21
8.39637
 31
0.2
  0
LINE
  8
PLAN_1
 62
5
 10
17.258841
 20
8.39637
 30
0.2
 11
17.438108
 21
8.543491
 31
0.2
  0
LINE
  8
PLAN_1
 62
5
 10
17.438108
 20
8.543491
 30
0.2
 11
17.58523
 21
8.722759
 31
0.2
  0
LINE
  8
PLAN_1
 62
5
 10
17.58523
 20
8.722759
 30
0.2
 11
17.69455
 21
8.927284
 31
0.2
  0
LINE
  8
PLAN_1
 62
5
 10
17.69455
 20
8.927284
 30
0.2
 11
17.761869
 21
9.149207
 31
0.2
  0
LINE
  8
PLAN_1
 62
5
 10
17.761869
 20
9.149207
 30
0.2
 11
17.784601
 21
9.379999
 31
0.2
  0
LINE
  8
PLAN_1
 62
5
 10
17.784601
 20
9.379999
 30
0.2
 11
17.696157
 21
9.59772
 31
0.2
  0
LINE
  8
PLAN_1
 62
5
 10
17.696157
 20
9.59772
 30
0.2
 11
17.63265
 21
9.807074
 31
0.2
  0
LINE
  8
PLAN_1
 62
5
 10
17.63265
 20
9.807074
 30
0.2
 11
17.52952
 21
10.000015
 31
0.2
  0
LINE
  8
PLAN_1
 62
5
 10
17.52952
 20
10.000015
 30
0.2
 11
17.390732
 21
10.16913
 31
0.2
  0
LINE
  8
PLAN_1
 62
5
 10
17.390732
 20
10.16913
 30
0.2
 11
17.221617
 21
10.30792
 31
0.2
  0
LINE
  8
PLAN_1
 62
5
 10
17.221617
 20
10.30792
 30
0.2
 11
17.028675
 21
10.411049
 31
0.2
  0
LINE
  8
PLAN_1
 62
5
 10
17.028675
 20
10.411049
 30
0.2
 11
16.819321
 21
10.474556
 31
0.2
  0
LINE
  8
PLAN_1
 62
5
 10
16.819321
 20
10.474556
 30
0.2
 11
16.601601
 21
10.495999
 31
0.2
  0
LINE
  8
PLAN_1
 62
5
 10
16.601601
 20
10.495999
 30
0.2
 11
16.383881
 21
10.474556
 31
0.2
  0
LINE
  8
PLAN_1
 62
5
 10
16.383881
 20
10.474556
 30
0.2
 11
16.174526
 21
10.411049
 31
0.2
  0
LINE
  8
PLAN_1
 62
5
 10
16.174526
 20
10.411049
 30
0.2
 11
15.981585
 21
10.30792
 31
0.2
  0
LINE
  8
PLAN_1
 62
5
 10
15.981585
 20
10.30792
 30
0.2
 11
15.812469
 21
10.16913
 31
0.2
  0
LINE
  8
PLAN_1
 62
5
 10
15.812469
 20
10.16913
 30
0.2
 11
15.67368
 21
10.000015
 31
0.2
  0
LINE
  8
PLAN_1
 62
5
 10
15.67368
 20
10.000015
 30
0.2
 11
15.570551
 21
9.807074
 31
0.2
  0
LINE
  8
PLAN_1
 62
5
 10
15.570551
 20
9.807074
 30
0.2
 11
15.507044
 21
9.59772
 31
0.2
  0
LINE
  8
PLAN_1
 62
5
 10
15.507044
 20
9.59772
 30
0.2
 11
15.4856
 21
9.379999
 31
0.2
  0
LINE
  8
PLAN_1
 62
5
 10
15.4856
 20
9.379999
 30
0.2
 11
15.507044
 21
9.162278
 31
0.2
  0
LINE
  8
PLAN_1
 62
5
 10
15.507044
 20
9.162278
 30
0.2
 11
15.570551
 21
8.952925
 31
0.2
  0
LINE
  8
PLAN_1
 62
5
 10
15.570551
 20
8.952925
 30
0.2
 11
15.67368
 21
8.759983
 31
0.2
  0
LINE
  8
PLAN_1
 62
5
 10
15.67368
 20
8.759983
 30
0.2
 11
15.812469
 21
8.590868
 31
0.2
  0
LINE
  8
PLAN_1
 62
5
 10
15.812469
 20
8.590868
 30
0.2
 11
15.981584
 21
8.452079
 31
0.2
  0
LINE
  8
PLAN_1
 62
5
 10
15.981584
 20
8.452079
 30
0.2
 11
16.174526
 21
8.348949
 31
0.2
  0
LINE
  8
PLAN_1
 62
5
 10
16.174526
 20
8.348949
 30
0.2
 11
16.383881
 21
8.285442
 31
0.2
  0
LINE
  8
PLAN_1
 62
5
 10
16.383881
 20
8.285442
 30
0.2
 11
16.601601
 21
8.263999
 31
0.2
  0
LINE
  8
PLAN_1
 62
5
 10
16.601601
 20
8.263999
 30
0.2
 11
16.819321
 21
8.285442
 31
0.2
  0
LINE
  8
PLAN_1
 62
5
 10
16.819321
 20
8.285442
 30
0.2
 11
17.028675
 21
8.348949
 31
0.2
  0
LINE
  8
PLAN_1
 62
5
 10
17.028675
 20
8.348949
 30
0.2
 11
17.221617
 21
8.452079
 31
0.2
  0
LINE
  8
PLAN_1
 62
5
 10
17.221617
 20
8.452079
 30
0.2
 11
17.390732
 21
8.590868
 31
0.2
  0
LINE
  8
PLAN_1
 62
5
 10
17.390732
 20
8.590868
 30
0.2
 11
17.52952
 21
8.759983
 31
0.2
  0
LINE
  8
PLAN_1
 62
5
 10
17.52952
 20
8.759983
 30
0.2
 11
17.63265
 21
8.952925
 31
0.2
  0
LINE
  8
PLAN_1
 62
5
 10
17.63265
 20
8.952925
 30
0.2
 11
17.696157
 21
9.162278
 31
0.2
  0
LINE
  8
PLAN_1
 62
5
 10
17.696157
 20
9.162278
 30
0.2
 11
17.7176
 21
9.379999
 31
0.2
  0
LINE
  8
PLAN_1
 62
5
 10
17.7176
 20
9.379999
 30
0.2
 11
17.784601
 21
9.379999
 31
0.2
  0
LINE
  8
PLAN_1
 62
5
 10
17.784601
 20
9.379999
 30
0.2
 11
17.761869
 21
9.610791
 31
0.2
  0
LINE
  8
PLAN_1
 62
5
 10
17.054316
 20
10.827048
 30
0.2
 11
17.258841
 21
10.936369
 31
0.2
  0
LINE
  8
PLAN_1
 62
5
 10
17.258841
 20
10.936369
 30
0.2
 11
17.438108
 21
11.08349
 31
0.2
  0
LINE
  8
PLAN_1
 62
5
 10
17.438108
 20
11.08349
 30
0.2
 11
17.58523
 21
11.262758
 31
0.2
  0
LINE
  8
PLAN_1
 62
5
 10
17.58523
 20
11.262758
 30
0.2
 11
17.69455
 21
11.467283
 31
0.2
  0
LINE
  8
PLAN_1
 62
5
 10
17.69455
 20
11.467283
 30
0.2
 11
17.761869
 21
11.689206
 31
0.2
  0
LINE
  8
PLAN_1
 62
5
 10
17.761869
 20
11.689206
 30
0.2
 11
17.784601
 21
11.919998
 31
0.2
  0
LINE
  8
PLAN_1
 62
5
 10
17.784601
 20
11.919998
 30
0.2
 11
17.761869
 21
12.15079
 31
0.2
  0
LINE
  8
PLAN_1
 62
5
 10
17.761869
 20
12.15079
 30
0.2
 11
17.69455
 21
12.372713
 31
0.2
  0
LINE
  8
PLAN_1
 62
5
 10
17.69455
 20
12.372713
 30
0.2
 11
17.58523
 21
12.577238
 31
0.2
  0
LINE
  8
PLAN_1
 62
5
 10
17.58523
 20
12.577238
 30
0.2
 11
17.438108
 21
12.756506
 31
0.2
  0
LINE
  8
PLAN_1
 62
5
 10
17.438108
 20
12.756506
 30
0.2
 11
17.258841
 21
12.903626
 31
0.2
  0
LINE
  8
PLAN_1
 62
5
 10
17.258841
 20
12.903626
 30
0.2
 11
17.054316
 21
13.012948
 31
0.2
  0
LINE
  8
PLAN_1
 62
5
 10
17.054316
 20
13.012948
 30
0.2
 11
16.832392
 21
13.080267
 31
0.2
  0
LINE
  8
PLAN_1
 62
5
 10
16.832392
 20
13.080267
 30
0.2
 11
16.601601
 21
13.102998
 31
0.2
  0
LINE
  8
PLAN_1
 62
5
 10
16.601601
 20
13.102998
 30
0.2
 11
16.37081
 21
13.080267
 31
0.2
  0
LINE
  8
PLAN_1
 62
5
 10
16.37081
 20
13.080267
 30
0.2
 11
16.148886
 21
13.012948
 31
0.2
  0
LINE
  8
PLAN_1
 62
5
 10
16.148886
 20
13.012948
 30
0.2
 11
15.944361
 21
12.903626
 31
0.2
  0
LINE
  8
PLAN_1
 62
5
 10
15.944361
 20
12.903626
 30
0.2
 11
15.765093
 21
12.756506
 31
0.2
  0
LINE
  8
PLAN_1
 62
5
 10
15.765093
 20
12.756506
 30
0.2
 11
15.632547
 21
12.594998
 31
0.2
  0
LINE
  8
PLAN_1
 62
5
 10
15.632547
 20
12.594998
 30
0.2
 11
10.3666
 21
12.594998
 31
0.2
  0
LINE
  8
PLAN_1
 62
5
 10
10.3666
 20
12.594998
 30
0.2
 11
10.23489
 21
12.582024
 31
0.2
  0
LINE
  8
PLAN_1
 62
5
 10
10.23489
 20
12.582024
 30
0.2
 11
10.145812
 21
12.554998
 31
0.2
  0
LINE
  8
PLAN_1
 62
5
 10
10.145812
 20
12.554998
 30
0.2
 11
5.284601
 21
12.554998
 31
0.2
  0
LINE
  8
PLAN_1
 62
5
 10
5.284601
 20
12.554998
 30
0.2
 11
5.284601
 21
13.062998
 31
0.2
  0
LINE
  8
PLAN_1
 62
5
 10
5.284601
 20
13.062998
 30
0.2
 11
2.918601
 21
13.062998
 31
0.2
  0
LINE
  8
PLAN_1
 62
5
 10
2.918601
 20
13.062998
 30
0.2
 11
2.918601
 21
10.696999
 31
0.2
  0
LINE
  8
PLAN_1
 62
5
 10
2.918601
 20
10.696999
 30
0.2
 11
5.284601
 21
10.696999
 31
0.2
  0
LINE
  8
PLAN_1
 62
5
 10
5.284601
 20
10.696999
 30
0.2
 11
5.284601
 21
11.204998
 31
0.2
  0
LINE
  8
PLAN_1
 62
5
 10
5.284601
 20
11.204998
 30
0.2
 11
10.326603
 21
11.204998
 31
0.2
  0
LINE
  8
PLAN_1
 62
5
 10
10.326603
 20
11.204998
 30
0.2
 11
10.458289
 21
11.217968
 31
0.2
  0
LINE
  8
PLAN_1
 62
5
 10
10.458289
 20
11.217968
 30
0.2
 11
10.547396
 21
11.244998
 31
0.2
  0
LINE
  8
PLAN_1
 62
5
 10
10.547396
 20
11.244998
 30
0.2
 11
15.632547
 21
11.244998
 31
0.2
  0
LINE
  8
PLAN_1
 62
5
 10
15.632547
 20
11.244998
 30
0.2
 11
15.67368
 21
11.299982
 31
0.2
  0
LINE
  8
PLAN_1
 62
5
 10
15.67368
 20
11.299982
 30
0.2
 11
15.812469
 21
11.130867
 31
0.2
  0
LINE
  8
PLAN_1
 62
5
 10
15.812469
 20
11.130867
 30
0.2
 11
15.981584
 21
10.992078
 31
0.2
  0
LINE
  8
PLAN_1
 62
5
 10
15.981584
 20
10.992078
 30
0.2
 11
16.174526
 21
10.888948
 31
0.2
  0
LINE
  8
PLAN_1
 62
5
 10
16.174526
 20
10.888948
 30
0.2
 11
16.383881
 21
10.825441
 31
0.2
  0
LINE
  8
PLAN_1
 62
5
 10
16.383881
 20
10.825441
 30
0.2
 11
16.601601
 21
10.803998
 31
0.2
  0
LINE
  8
PLAN_1
 62
5
 10
16.601601
 20
10.803998
 30
0.2
 11
16.819321
 21
10.825441
 31
0.2
  0
LINE
  8
PLAN_1
 62
5
 10
16.819321
 20
10.825441
 30
0.2
 11
17.028675
 21
10.888948
 31
0.2
  0
LINE
  8
PLAN_1
 62
5
 10
17.028675
 20
10.888948
 30
0.2
 11
17.221617
 21
10.992078
 31
0.2
  0
LINE
  8
PLAN_1
 62
5
 10
17.221617
 20
10.992078
 30
0.2
 11
17.390732
 21
11.130867
 31
0.2
  0
LINE
  8
PLAN_1
 62
5
 10
17.390732
 20
11.130867
 30
0.2
 11
17.52952
 21
11.299982
 31
0.2
  0
LINE
  8
PLAN_1
 62
5
 10
17.52952
 20
11.299982
 30
0.2
 11
17.63265
 21
11.492924
 31
0.2
  0
LINE
  8
PLAN_1
 62
5
 10
17.63265
 20
11.492924
 30
0.2
 11
17.696157
 21
11.702277
 31
0.2
  0
LINE
  8
PLAN_1
 62
5
 10
17.696157
 20
11.702277
 30
0.2
 11
17.7176
 21
11.919998
 31
0.2
  0
LINE
  8
PLAN_1
 62
5
 10
17.7176
 20
11.919998
 30
0.2
 11
17.696157
 21
12.137719
 31
0.2
  0
LINE
  8
PLAN_1
 62
5
 10
17.696157
 20
12.137719
 30
0.2
 11
17.63265
 21
12.347073
 31
0.2
  0
LINE
  8
PLAN_1
 62
5
 10
17.63265
 20
12.347073
 30
0.2
 11
17.52952
 21
12.540014
 31
0.2
  0
LINE
  8
PLAN_1
 62
5
 10
17.52952
 20
12.540014
 30
0.2
 11
17.390732
 21
12.709129
 31
0.2
  0
LINE
  8
PLAN_1
 62
5
 10
17.390732
 20
12.709129
 30
0.2
 11
17.221617
 21
12.847919
 31
0.2
  0
LINE
  8
PLAN_1
 62
5
 10
17.221617
 20
12.847919
 30
0.2
 11
17.028675
 21
12.951048
 31
0.2
  0
LINE
  8
PLAN_1
 62
5
 10
17.028675
 20
12.951048
 30
0.2
 11
16.819321
 21
13.014555
 31
0.2
  0
LINE
  8
PLAN_1
 62
5
 10
16.819321
 20
13.014555
 30
0.2
 11
16.601601
 21
13.035998
 31
0.2
  0
LINE
  8
PLAN_1
 62
5
 10
16.601601
 20
13.035998
 30
0.2
 11
16.383881
 21
13.014555
 31
0.2
  0
LINE
  8
PLAN_1
 62
5
 10
16.383881
 20
13.014555
 30
0.2
 11
16.174526
 21
12.951048
 31
0.2
  0
LINE
  8
PLAN_1
 62
5
 10
16.174526
 20
12.951048
 30
0.2
 11
15.981585
 21
12.847919
 31
0.2
  0
LINE
  8
PLAN_1
 62
5
 10
15.981585
 20
12.847919
 30
0.2
 11
15.812469
 21
12.709129
 31
0.2
  0
LINE
  8
PLAN_1
 62
5
 10
15.812469
 20
12.709129
 30
0.2
 11
15.67368
 21
12.540014
 31
0.2
  0
LINE
  8
PLAN_1
 62
5
 10
15.67368
 20
12.540014
 30
0.2
 11
15.667257
 21
12.527998
 31
0.2
  0
LINE
  8
PLAN_1
 62
5
 10
15.667257
 20
12.527998
 30
0.2
 11
10.3666
 21
12.527998
 31
0.2
  0
LINE
  8
PLAN_1
 62
5
 10
10.3666
 20
12.527998
 30
0.2
 11
10.247964
 21
12.516312
 31
0.2
  0
LINE
  8
PLAN_1
 62
5
 10
10.247964
 20
12.516312
 30
0.2
 11
10.154639
 21
12.487998
 31
0.2
  0
LINE
  8
PLAN_1
 62
5
 10
10.154639
 20
12.487998
 30
0.2
 11
5.217601
 21
12.487998
 31
0.2
  0
LINE
  8
PLAN_1
 62
5
 10
5.217601
 20
12.487998
 30
0.2
 11
5.217601
 21
12.995998
 31
0.2
  0
LINE
  8
PLAN_1
 62
5
 10
5.217601
 20
12.995998
 30
0.2
 11
2.9856
 21
12.995998
 31
0.2
  0
LINE
  8
PLAN_1
 62
5
 10
2.9856
 20
12.995998
 30
0.2
 11
2.9856
 21
10.763998
 31
0.2
  0
LINE
  8
PLAN_1
 62
5
 10
2.9856
 20
10.763998
 30
0.2
 11
5.217601
 21
10.763998
 31
0.2
  0
LINE
  8
PLAN_1
 62
5
 10
5.217601
 20
10.763998
 30
0.2
 11
5.217601
 21
11.271998
 31
0.2
  0
LINE
  8
PLAN_1
 62
5
 10
5.217601
 20
11.271998
 30
0.2
 11
10.326603
 21
11.271998
 31
0.2
  0
LINE
  8
PLAN_1
 62
5
 10
10.326603
 20
11.271998
 30
0.2
 11
10.445218
 21
11.283681
 31
0.2
  0
LINE
  8
PLAN_1
 62
5
 10
10.445218
 20
11.283681
 30
0.2
 11
10.538569
 21
11.311998
 31
0.2
  0
LINE
  8
PLAN_1
 62
5
 10
10.538569
 20
11.311998
 30
0.2
 11
15.667257
 21
11.311998
 31
0.2
  0
LINE
  8
PLAN_1
 62
5
 10
15.667257
 20
11.311998
 30
0.2
 11
15.632547
 21
11.244998
 31
0.2
  0
LINE
  8
PLAN_1
 62
5
 10
15.632547
 20
11.244998
 30
0.2
 11
15.765093
 21
11.08349
 31
0.2
  0
LINE
  8
PLAN_1
 62
5
 10
15.765093
 20
11.08349
 30
0.2
 11
15.944361
 21
10.93637
 31
0.2
  0
LINE
  8
PLAN_1
 62
5
 10
15.944361
 20
10.93637
 30
0.2
 11
16.148886
 21
10.827048
 31
0.2
  0
LINE
  8
PLAN_1
 62
5
 10
16.148886
 20
10.827048
 30
0.2
 11
16.37081
 21
10.759729
 31
0.2
  0
LINE
  8
PLAN_1
 62
5
 10
16.37081
 20
10.759729
 30
0.2
 11
16.601601
 21
10.736999
 31
0.2
  0
LINE
  8
PLAN_1
 62
5
 10
16.601601
 20
10.736999
 30
0.2
 11
16.832392
 21
10.759729
 31
0.2
  0
LINE
  8
PLAN_1
 62
5
 10
16.832392
 20
10.759729
 30
0.2
 11
17.054316
 21
10.827048
 31
0.2
  0
LINE
  8
PLAN_1
 62
5
 10
16.601601
 20
15.816998
 30
0.2
 11
16.832392
 21
15.839729
 31
0.2
  0
LINE
  8
PLAN_1
 62
5
 10
16.832392
 20
15.839729
 30
0.2
 11
17.054316
 21
15.907048
 31
0.2
  0
LINE
  8
PLAN_1
 62
5
 10
17.054316
 20
15.907048
 30
0.2
 11
17.258841
 21
16.016369
 31
0.2
  0
LINE
  8
PLAN_1
 62
5
 10
17.258841
 20
16.016369
 30
0.2
 11
17.438108
 21
16.16349
 31
0.2
  0
LINE
  8
PLAN_1
 62
5
 10
17.438108
 20
16.16349
 30
0.2
 11
17.58523
 21
16.342758
 31
0.2
  0
LINE
  8
PLAN_1
 62
5
 10
17.58523
 20
16.342758
 30
0.2
 11
17.69455
 21
16.547283
 31
0.2
  0
LINE
  8
PLAN_1
 62
5
 10
17.69455
 20
16.547283
 30
0.2
 11
17.761869
 21
16.769207
 31
0.2
  0
LINE
  8
PLAN_1
 62
5
 10
17.761869
 20
16.769207
 30
0.2
 11
17.784601
 21
16.999998
 31
0.2
  0
LINE
  8
PLAN_1
 62
5
 10
17.784601
 20
16.999998
 30
0.2
 11
17.761869
 21
17.230789
 31
0.2
  0
LINE
  8
PLAN_1
 62
5
 10
17.761869
 20
17.230789
 30
0.2
 11
17.69455
 21
17.452713
 31
0.2
  0
LINE
  8
PLAN_1
 62
5
 10
17.69455
 20
17.452713
 30
0.2
 11
17.58523
 21
17.657238
 31
0.2
  0
LINE
  8
PLAN_1
 62
5
 10
17.58523
 20
17.657238
 30
0.2
 11
17.438108
 21
17.836506
 31
0.2
  0
LINE
  8
PLAN_1
 62
5
 10
17.438108
 20
17.836506
 30
0.2
 11
17.258841
 21
17.983627
 31
0.2
  0
LINE
  8
PLAN_1
 62
5
 10
17.258841
 20
17.983627
 30
0.2
 11
17.054316
 21
18.092947
 31
0.2
  0
LINE
  8
PLAN_1
 62
5
 10
17.054316
 20
18.092947
 30
0.2
 11
16.832392
 21
18.160267
 31
0.2
  0
LINE
  8
PLAN_1
 62
5
 10
16.832392
 20
18.160267
 30
0.2
 11
16.601601
 21
18.182999
 31
0.2
  0
LINE
  8
PLAN_1
 62
5
 10
16.601601
 20
18.182999
 30
0.2
 11
16.37081
 21
18.160267
 31
0.2
  0
LINE
  8
PLAN_1
 62
5
 10
16.37081
 20
18.160267
 30
0.2
 11
16.148886
 21
18.092947
 31
0.2
  0
LINE
  8
PLAN_1
 62
5
 10
16.148886
 20
18.092947
 30
0.2
 11
15.944361
 21
17.983627
 31
0.2
  0
LINE
  8
PLAN_1
 62
5
 10
15.944361
 20
17.983627
 30
0.2
 11
15.765093
 21
17.836506
 31
0.2
  0
LINE
  8
PLAN_1
 62
5
 10
15.765093
 20
17.836506
 30
0.2
 11
15.632547
 21
17.674997
 31
0.2
  0
LINE
  8
PLAN_1
 62
5
 10
15.632547
 20
17.674997
 30
0.2
 11
13.762392
 21
17.674997
 31
0.2
  0
LINE
  8
PLAN_1
 62
5
 10
13.762392
 20
17.674997
 30
0.2
 11
13.673269
 21
17.70203
 31
0.2
  0
LINE
  8
PLAN_1
 62
5
 10
13.673269
 20
17.70203
 30
0.2
 11
13.541583
 21
17.714996
 31
0.2
  0
LINE
  8
PLAN_1
 62
5
 10
13.541583
 20
17.714996
 30
0.2
 11
12.570654
 21
17.714996
 31
0.2
  0
LINE
  8
PLAN_1
 62
5
 10
12.570654
 20
17.714996
 30
0.2
 11
12.438108
 21
17.876505
 31
0.2
  0
LINE
  8
PLAN_1
 62
5
 10
12.438108
 20
17.876505
 30
0.2
 11
12.258841
 21
18.023626
 31
0.2
  0
LINE
  8
PLAN_1
 62
5
 10
12.258841
 20
18.023626
 30
0.2
 11
12.054316
 21
18.132946
 31
0.2
  0
LINE
  8
PLAN_1
 62
5
 10
12.054316
 20
18.132946
 30
0.2
 11
11.832393
 21
18.200266
 31
0.2
  0
LINE
  8
PLAN_1
 62
5
 10
11.832393
 20
18.200266
 30
0.2
 11
11.601601
 21
18.222998
 31
0.2
  0
LINE
  8
PLAN_1
 62
5
 10
11.601601
 20
18.222998
 30
0.2
 11
11.370809
 21
18.200266
 31
0.2
  0
LINE
  8
PLAN_1
 62
5
 10
11.370809
 20
18.200266
 30
0.2
 11
11.148886
 21
18.132946
 31
0.2
  0
LINE
  8
PLAN_1
 62
5
 10
11.148886
 20
18.132946
 30
0.2
 11
10.944361
 21
18.023626
 31
0.2
  0
LINE
  8
PLAN_1
 62
5
 10
10.944361
 20
18.023626
 30
0.2
 11
10.765093
 21
17.876505
 31
0.2
  0
LINE
  8
PLAN_1
 62
5
 10
10.765093
 20
17.876505
 30
0.2
 11
10.632547
 21
17.714996
 31
0.2
  0
LINE
  8
PLAN_1
 62
5
 10
10.632547
 20
17.714996
 30
0.2
 11
7.826603
 21
17.714996
 31
0.2
  0
LINE
  8
PLAN_1
 62
5
 10
7.826603
 20
17.714996
 30
0.2
 11
7.694925
 21
17.702028
 31
0.2
  0
LINE
  8
PLAN_1
 62
5
 10
7.694925
 20
17.702028
 30
0.2
 11
7.568299
 21
17.663618
 31
0.2
  0
LINE
  8
PLAN_1
 62
5
 10
7.568299
 20
17.663618
 30
0.2
 11
7.514749
 21
17.634996
 31
0.2
  0
LINE
  8
PLAN_1
 62
5
 10
7.514749
 20
17.634996
 30
0.2
 11
5.284601
 21
17.634996
 31
0.2
  0
LINE
  8
PLAN_1
 62
5
 10
5.284601
 20
17.634996
 30
0.2
 11
5.284601
 21
18.142998
 31
0.2
  0
LINE
  8
PLAN_1
 62
5
 10
5.284601
 20
18.142998
 30
0.2
 11
2.918601
 21
18.142998
 31
0.2
  0
LINE
  8
PLAN_1
 62
5
 10
2.918601
 20
18.142998
 30
0.2
 11
2.918601
 21
15.776997
 31
0.2
  0
LINE
  8
PLAN_1
 62
5
 10
2.918601
 20
15.776997
 30
0.2
 11
5.284601
 21
15.776997
 31
0.2
  0
LINE
  8
PLAN_1
 62
5
 10
5.284601
 20
15.776997
 30
0.2
 11
5.284601
 21
16.284998
 31
0.2
  0
LINE
  8
PLAN_1
 62
5
 10
5.284601
 20
16.284998
 30
0.2
 11
7.746601
 21
16.284998
 31
0.2
  0
LINE
  8
PLAN_1
 62
5
 10
7.746601
 20
16.284998
 30
0.2
 11
7.878287
 21
16.297968
 31
0.2
  0
LINE
  8
PLAN_1
 62
5
 10
7.878287
 20
16.297968
 30
0.2
 11
8.004912
 21
16.336378
 31
0.2
  0
LINE
  8
PLAN_1
 62
5
 10
8.004912
 20
16.336378
 30
0.2
 11
8.058455
 21
16.364998
 31
0.2
  0
LINE
  8
PLAN_1
 62
5
 10
8.058455
 20
16.364998
 30
0.2
 11
10.632547
 21
16.364998
 31
0.2
  0
LINE
  8
PLAN_1
 62
5
 10
10.632547
 20
16.364998
 30
0.2
 11
10.765093
 21
16.203489
 31
0.2
  0
LINE
  8
PLAN_1
 62
5
 10
10.765093
 20
16.203489
 30
0.2
 11
10.944361
 21
16.056368
 31
0.2
  0
LINE
  8
PLAN_1
 62
5
 10
10.944361
 20
16.056368
 30
0.2
 11
11.148886
 21
15.947047
 31
0.2
  0
LINE
  8
PLAN_1
 62
5
 10
11.148886
 20
15.947047
 30
0.2
 11
11.370809
 21
15.879728
 31
0.2
  0
LINE
  8
PLAN_1
 62
5
 10
11.370809
 20
15.879728
 30
0.2
 11
11.601601
 21
15.856997
 31
0.2
  0
LINE
  8
PLAN_1
 62
5
 10
11.601601
 20
15.856997
 30
0.2
 11
11.832393
 21
15.879728
 31
0.2
  0
LINE
  8
PLAN_1
 62
5
 10
11.832393
 20
15.879728
 30
0.2
 11
12.054316
 21
15.947047
 31
0.2
  0
LINE
  8
PLAN_1
 62
5
 10
12.054316
 20
15.947047
 30
0.2
 11
12.25884
 21
16.056368
 31
0.2
  0
LINE
  8
PLAN_1
 62
5
 10
12.25884
 20
16.056368
 30
0.2
 11
12.438107
 21
16.203489
 31
0.2
  0
LINE
  8
PLAN_1
 62
5
 10
12.438107
 20
16.203489
 30
0.2
 11
12.570654
 21
16.364998
 31
0.2
  0
LINE
  8
PLAN_1
 62
5
 10
12.570654
 20
16.364998
 30
0.2
 11
13.360808
 21
16.364998
 31
0.2
  0
LINE
  8
PLAN_1
 62
5
 10
13.360808
 20
16.364998
 30
0.2
 11
13.449914
 21
16.337969
 31
0.2
  0
LINE
  8
PLAN_1
 62
5
 10
13.449914
 20
16.337969
 30
0.2
 11
13.5816
 21
16.324999
 31
0.2
  0
LINE
  8
PLAN_1
 62
5
 10
13.5816
 20
16.324999
 30
0.2
 11
15.632547
 21
16.324999
 31
0.2
  0
LINE
  8
PLAN_1
 62
5
 10
15.632547
 20
16.324999
 30
0.2
 11
15.67368
 21
16.379982
 31
0.2
  0
LINE
  8
PLAN_1
 62
5
 10
15.67368
 20
16.379982
 30
0.2
 11
15.812469
 21
16.210867
 31
0.2
  0
LINE
  8
PLAN_1
 62
5
 10
15.812469
 20
16.210867
 30
0.2
 11
15.981584
 21
16.072079
 31
0.2
  0
LINE
  8
PLAN_1
 62
5
 10
15.981584
 20
16.072079
 30
0.2
 11
16.174526
 21
15.968948
 31
0.2
  0
LINE
  8
PLAN_1
 62
5
 10
16.174526
 20
15.968948
 30
0.2
 11
16.383881
 21
15.905441
 31
0.2
  0
LINE
  8
PLAN_1
 62
5
 10
16.383881
 20
15.905441
 30
0.2
 11
16.601601
 21
15.883998
 31
0.2
  0
LINE
  8
PLAN_1
 62
5
 10
16.601601
 20
15.883998
 30
0.2
 11
16.819321
 21
15.905441
 31
0.2
  0
LINE
  8
PLAN_1
 62
5
 10
16.819321
 20
15.905441
 30
0.2
 11
17.028675
 21
15.968948
 31
0.2
  0
LINE
  8
PLAN_1
 62
5
 10
17.028675
 20
15.968948
 30
0.2
 11
17.221617
 21
16.072079
 31
0.2
  0
LINE
  8
PLAN_1
 62
5
 10
17.221617
 20
16.072079
 30
0.2
 11
17.390732
 21
16.210867
 31
0.2
  0
LINE
  8
PLAN_1
 62
5
 10
17.390732
 20
16.210867
 30
0.2
 11
17.52952
 21
16.379982
 31
0.2
  0
LINE
  8
PLAN_1
 62
5
 10
17.52952
 20
16.379982
 30
0.2
 11
17.63265
 21
16.572924
 31
0.2
  0
LINE
  8
PLAN_1
 62
5
 10
17.63265
 20
16.572924
 30
0.2
 11
17.696157
 21
16.782278
 31
0.2
  0
LINE
  8
PLAN_1
 62
5
 10
17.696157
 20
16.782278
 30
0.2
 11
17.7176
 21
16.999998
 31
0.2
  0
LINE
  8
PLAN_1
 62
5
 10
17.7176
 20
16.999998
 30
0.2
 11
17.696157
 21
17.217718
 31
0.2
  0
LINE
  8
PLAN_1
 62
5
 10
17.696157
 20
17.217718
 30
0.2
 11
17.63265
 21
17.427073
 31
0.2
  0
LINE
  8
PLAN_1
 62
5
 10
17.63265
 20
17.427073
 30
0.2
 11
17.52952
 21
17.620014
 31
0.2
  0
LINE
  8
PLAN_1
 62
5
 10
17.52952
 20
17.620014
 30
0.2
 11
17.390732
 21
17.789129
 31
0.2
  0
LINE
  8
PLAN_1
 62
5
 10
17.390732
 20
17.789129
 30
0.2
 11
17.221617
 21
17.927917
 31
0.2
  0
LINE
  8
PLAN_1
 62
5
 10
17.221617
 20
17.927917
 30
0.2
 11
17.028675
 21
18.031048
 31
0.2
  0
LINE
  8
PLAN_1
 62
5
 10
17.028675
 20
18.031048
 30
0.2
 11
16.819321
 21
18.094555
 31
0.2
  0
LINE
  8
PLAN_1
 62
5
 10
16.819321
 20
18.094555
 30
0.2
 11
16.601601
 21
18.115997
 31
0.2
  0
LINE
  8
PLAN_1
 62
5
 10
16.601601
 20
18.115997
 30
0.2
 11
16.383881
 21
18.094555
 31
0.2
  0
LINE
  8
PLAN_1
 62
5
 10
16.383881
 20
18.094555
 30
0.2
 11
16.174526
 21
18.031048
 31
0.2
  0
LINE
  8
PLAN_1
 62
5
 10
16.174526
 20
18.031048
 30
0.2
 11
15.981585
 21
17.927917
 31
0.2
  0
LINE
  8
PLAN_1
 62
5
 10
15.981585
 20
17.927917
 30
0.2
 11
15.812469
 21
17.789129
 31
0.2
  0
LINE
  8
PLAN_1
 62
5
 10
15.812469
 20
17.789129
 30
0.2
 11
15.67368
 21
17.620014
 31
0.2
  0
LINE
  8
PLAN_1
 62
5
 10
15.67368
 20
17.620014
 30
0.2
 11
15.667257
 21
17.607998
 31
0.2
  0
LINE
  8
PLAN_1
 62
5
 10
15.667257
 20
17.607998
 30
0.2
 11
13.753564
 21
17.607998
 31
0.2
  0
LINE
  8
PLAN_1
 62
5
 10
13.753564
 20
17.607998
 30
0.2
 11
13.6602
 21
17.636318
 31
0.2
  0
LINE
  8
PLAN_1
 62
5
 10
13.6602
 20
17.636318
 30
0.2
 11
13.541585
 21
17.647997
 31
0.2
  0
LINE
  8
PLAN_1
 62
5
 10
13.541585
 20
17.647997
 30
0.2
 11
12.535944
 21
17.647997
 31
0.2
  0
LINE
  8
PLAN_1
 62
5
 10
12.535944
 20
17.647997
 30
0.2
 11
12.529521
 21
17.660013
 31
0.2
  0
LINE
  8
PLAN_1
 62
5
 10
12.529521
 20
17.660013
 30
0.2
 11
12.390732
 21
17.829128
 31
0.2
  0
LINE
  8
PLAN_1
 62
5
 10
12.390732
 20
17.829128
 30
0.2
 11
12.221617
 21
17.967916
 31
0.2
  0
LINE
  8
PLAN_1
 62
5
 10
12.221617
 20
17.967916
 30
0.2
 11
12.028675
 21
18.071047
 31
0.2
  0
LINE
  8
PLAN_1
 62
5
 10
12.028675
 20
18.071047
 30
0.2
 11
11.819322
 21
18.134554
 31
0.2
  0
LINE
  8
PLAN_1
 62
5
 10
11.819322
 20
18.134554
 30
0.2
 11
11.601601
 21
18.155996
 31
0.2
  0
LINE
  8
PLAN_1
 62
5
 10
11.601601
 20
18.155996
 30
0.2
 11
11.38388
 21
18.134554
 31
0.2
  0
LINE
  8
PLAN_1
 62
5
 10
11.38388
 20
18.134554
 30
0.2
 11
11.174526
 21
18.071047
 31
0.2
  0
LINE
  8
PLAN_1
 62
5
 10
11.174526
 20
18.071047
 30
0.2
 11
10.981585
 21
17.967916
 31
0.2
  0
LINE
  8
PLAN_1
 62
5
 10
10.981585
 20
17.967916
 30
0.2
 11
10.812469
 21
17.829128
 31
0.2
  0
LINE
  8
PLAN_1
 62
5
 10
10.812469
 20
17.829128
 30
0.2
 11
10.67368
 21
17.660013
 31
0.2
  0
LINE
  8
PLAN_1
 62
5
 10
10.67368
 20
17.660013
 30
0.2
 11
10.667257
 21
17.647997
 31
0.2
  0
LINE
  8
PLAN_1
 62
5
 10
10.667257
 20
17.647997
 30
0.2
 11
7.826603
 21
17.647997
 31
0.2
  0
LINE
  8
PLAN_1
 62
5
 10
7.826603
 20
17.647997
 30
0.2
 11
7.707995
 21
17.636316
 31
0.2
  0
LINE
  8
PLAN_1
 62
5
 10
7.707995
 20
17.636316
 30
0.2
 11
7.593938
 21
17.601719
 31
0.2
  0
LINE
  8
PLAN_1
 62
5
 10
7.593938
 20
17.601719
 30
0.2
 11
7.530848
 21
17.567997
 31
0.2
  0
LINE
  8
PLAN_1
 62
5
 10
7.530848
 20
17.567997
 30
0.2
 11
5.217601
 21
17.567997
 31
0.2
  0
LINE
  8
PLAN_1
 62
5
 10
5.217601
 20
17.567997
 30
0.2
 11
5.217601
 21
18.075996
 31
0.2
  0
LINE
  8
PLAN_1
 62
5
 10
5.217601
 20
18.075996
 30
0.2
 11
2.9856
 21
18.075996
 31
0.2
  0
LINE
  8
PLAN_1
 62
5
 10
2.9856
 20
18.075996
 30
0.2
 11
2.9856
 21
15.843997
 31
0.2
  0
LINE
  8
PLAN_1
 62
5
 10
2.9856
 20
15.843997
 30
0.2
 11
5.217601
 21
15.843997
 31
0.2
  0
LINE
  8
PLAN_1
 62
5
 10
5.217601
 20
15.843997
 30
0.2
 11
5.217601
 21
16.351997
 31
0.2
  0
LINE
  8
PLAN_1
 62
5
 10
5.217601
 20
16.351997
 30
0.2
 11
7.746601
 21
16.351997
 31
0.2
  0
LINE
  8
PLAN_1
 62
5
 10
7.746601
 20
16.351997
 30
0.2
 11
7.865216
 21
16.36368
 31
0.2
  0
LINE
  8
PLAN_1
 62
5
 10
7.865216
 20
16.36368
 30
0.2
 11
7.979273
 21
16.398279
 31
0.2
  0
LINE
  8
PLAN_1
 62
5
 10
7.979273
 20
16.398279
 30
0.2
 11
8.042356
 21
16.431997
 31
0.2
  0
LINE
  8
PLAN_1
 62
5
 10
8.042356
 20
16.431997
 30
0.2
 11
10.667257
 21
16.431997
 31
0.2
  0
LINE
  8
PLAN_1
 62
5
 10
10.667257
 20
16.431997
 30
0.2
 11
10.67368
 21
16.419981
 31
0.2
  0
LINE
  8
PLAN_1
 62
5
 10
10.67368
 20
16.419981
 30
0.2
 11
10.812469
 21
16.250866
 31
0.2
  0
LINE
  8
PLAN_1
 62
5
 10
10.812469
 20
16.250866
 30
0.2
 11
10.981584
 21
16.112078
 31
0.2
  0
LINE
  8
PLAN_1
 62
5
 10
10.981584
 20
16.112078
 30
0.2
 11
11.174526
 21
16.008947
 31
0.2
  0
LINE
  8
PLAN_1
 62
5
 10
11.174526
 20
16.008947
 30
0.2
 11
11.38388
 21
15.94544
 31
0.2
  0
LINE
  8
PLAN_1
 62
5
 10
11.38388
 20
15.94544
 30
0.2
 11
11.601601
 21
15.923997
 31
0.2
  0
LINE
  8
PLAN_1
 62
5
 10
11.601601
 20
15.923997
 30
0.2
 11
11.819322
 21
15.94544
 31
0.2
  0
LINE
  8
PLAN_1
 62
5
 10
11.819322
 20
15.94544
 30
0.2
 11
12.028676
 21
16.008947
 31
0.2
  0
LINE
  8
PLAN_1
 62
5
 10
12.028676
 20
16.008947
 30
0.2
 11
12.221617
 21
16.112078
 31
0.2
  0
LINE
  8
PLAN_1
 62
5
 10
12.221617
 20
16.112078
 30
0.2
 11
12.390732
 21
16.250866
 31
0.2
  0
LINE
  8
PLAN_1
 62
5
 10
12.390732
 20
16.250866
 30
0.2
 11
12.529521
 21
16.419981
 31
0.2
  0
LINE
  8
PLAN_1
 62
5
 10
12.529521
 20
16.419981
 30
0.2
 11
12.535944
 21
16.431997
 31
0.2
  0
LINE
  8
PLAN_1
 62
5
 10
12.535944
 20
16.431997
 30
0.2
 11
13.369639
 21
16.431997
 31
0.2
  0
LINE
  8
PLAN_1
 62
5
 10
13.369639
 20
16.431997
 30
0.2
 11
13.462985
 21
16.403681
 31
0.2
  0
LINE
  8
PLAN_1
 62
5
 10
13.462985
 20
16.403681
 30
0.2
 11
13.5816
 21
16.391998
 31
0.2
  0
LINE
  8
PLAN_1
 62
5
 10
13.5816
 20
16.391998
 30
0.2
 11
15.667257
 21
16.391998
 31
0.2
  0
LINE
  8
PLAN_1
 62
5
 10
15.667257
 20
16.391998
 30
0.2
 11
15.632547
 21
16.324999
 31
0.2
  0
LINE
  8
PLAN_1
 62
5
 10
15.632547
 20
16.324999
 30
0.2
 11
15.765093
 21
16.16349
 31
0.2
  0
LINE
  8
PLAN_1
 62
5
 10
15.765093
 20
16.16349
 30
0.2
 11
15.944361
 21
16.016369
 31
0.2
  0
LINE
  8
PLAN_1
 62
5
 10
15.944361
 20
16.016369
 30
0.2
 11
16.148886
 21
15.907048
 31
0.2
  0
LINE
  8
PLAN_1
 62
5
 10
16.148886
 20
15.907048
 30
0.2
 11
16.37081
 21
15.839729
 31
0.2
  0
LINE
  8
PLAN_1
 62
5
 10
16.37081
 20
15.839729
 30
0.2
 11
16.601601
 21
15.816998
 31
0.2
  0
LINE
  8
PLAN_1
 62
5
 10
0.001601
 20
0.4
 30
1.0
 11
45.701595
 21
0.4
 31
1.0
  0
LINE
  8
PLAN_1
 62
5
 10
45.701595
 20
0.4
 30
1.0
 11
45.701595
 21
26.099997
 31
1.0
  0
LINE
  8
PLAN_1
 62
5
 10
45.701595
 20
26.099997
 30
1.0
 11
0.001601
 21
26.099997
 31
1.0
  0
LINE
  8
PLAN_1
 62
5
 10
0.001601
 20
26.099997
 30
1.0
 11
0.001601
 21
0.4
 31
1.0
  0
ENDSEC
  0
EOF

