G04 PROTEUS GERBER X2 FILE*
%TF.GenerationSoftware,Labcenter,Proteus,8.6-SP2-Build23525*%
%TF.CreationDate,2024-05-25T15:53:27+00:00*%
%TF.FileFunction,Copper,L2,Bot*%
%TF.FilePolarity,Positive*%
%TF.Part,Single*%
%FSLAX45Y45*%
%MOMM*%
G01*
%TA.AperFunction,Conductor*%
%ADD10C,1.016000*%
%TA.AperFunction,ComponentPad*%
%ADD11C,2.032000*%
%TA.AperFunction,ComponentPad*%
%ADD12R,2.032000X2.032000*%
%TA.AperFunction,Profile*%
%ADD13C,0.203200*%
%TD.AperFunction*%
D10*
X-1450000Y+1400000D02*
X-1284000Y+1566000D01*
X-1284000Y+2100000D01*
X-1950000Y+1400000D02*
X-2441999Y+1400000D01*
X-2488000Y+1446000D01*
X-2488000Y+1446001D01*
X-1450000Y+1400000D02*
X-1950000Y+1400000D01*
X-3250000Y+1192000D02*
X-3873500Y+1192000D01*
X-3877500Y+1188000D01*
X-4500000Y+1188000D01*
X-3250000Y+1446000D02*
X-2921000Y+1446000D01*
X-2667001Y+1192001D01*
X-2488000Y+1192000D01*
X-2488000Y+1192001D01*
X-3750000Y+1450000D02*
X-4127500Y+1450000D01*
X-4135500Y+1442000D01*
X-4500000Y+1442000D01*
X-3250000Y+1446000D02*
X-3254000Y+1450000D01*
X-3750000Y+1450000D01*
X-800000Y+600000D02*
X-800000Y+825500D01*
X-688000Y+937500D01*
X-688000Y+1400000D01*
X-1308000Y+600000D02*
X-1714500Y+600000D01*
X-1752500Y+638000D01*
X-1950000Y+638000D01*
X-3750000Y+1704000D02*
X-4127500Y+1704000D01*
X-4135500Y+1696000D01*
X-4500000Y+1696000D01*
X-3750000Y+1704000D02*
X-3556000Y+1704000D01*
X-3552000Y+1700000D01*
X-3250000Y+1700000D01*
X-2488000Y+1700000D02*
X-2738000Y+1950000D01*
X-4500000Y+1950000D01*
X-2488000Y+1700000D02*
X-2300000Y+1888000D01*
X-2300000Y+2100000D01*
X-2488000Y+1192000D02*
X-1542001Y+1192001D01*
X-1054000Y+704000D01*
X-1054000Y+600000D01*
D11*
X-800000Y+600000D03*
X-1308000Y+600000D03*
X-1054000Y+600000D03*
X-3250000Y+1700000D03*
X-3250000Y+1446000D03*
X-3250000Y+1192000D03*
X-3250000Y+938000D03*
X-2488000Y+938000D03*
X-2488000Y+1192000D03*
X-2488000Y+1446000D03*
X-2488000Y+1700000D03*
X-3750000Y+1450000D03*
X-3750000Y+1704000D03*
X-1450000Y+1400000D03*
X-688000Y+1400000D03*
X-1950000Y+638000D03*
X-1950000Y+1400000D03*
X-2300000Y+2100000D03*
X-1284000Y+2100000D03*
D12*
X-4500000Y+1950000D03*
X-4500000Y+1696000D03*
X-4500000Y+1442000D03*
X-4500000Y+1188000D03*
D13*
X-4900000Y+50000D02*
X-350000Y+50000D01*
X-350000Y+2600000D01*
X-4900000Y+2600000D01*
X-4900000Y+50000D01*
M02*
